Cabin-CondensedBold.ufo
<glyph name="exclam" format="2">
  <advance width="468"/>
  <unicode hex="0021"/>
  <outline>
    <contour>
      <point x="136" y="414" type="line"/>
      <point x="332" y="414" type="line"/>
      <point x="332" y="472" type="line"/>
      <point x="350" y="1400" type="line"/>
      <point x="118" y="1400" type="line"/>
      <point x="136" y="472" type="line"/>
    </contour>
    <contour>
      <point x="112" y="0" type="line"/>
      <point x="356" y="0" type="line"/>
      <point x="356" y="272" type="line"/>
      <point x="112" y="272" type="line"/>
    </contour>
  </outline>
</glyph>
<glyph name="numbersign" format="2">
  <advance width="1210"/>
  <unicode hex="0023"/>
  <outline>
    <contour>
      <point x="110" y="-22" type="line"/>
      <point x="284" y="-22" type="line"/>
      <point x="430" y="422" type="line"/>
      <point x="602" y="422" type="line"/>
      <point x="464" y="-22" type="line"/>
      <point x="640" y="-22" type="line"/>
      <point x="784" y="422" type="line"/>
      <point x="982" y="422" type="line"/>
      <point x="1064" y="618" type="line"/>
      <point x="852" y="618" type="line"/>
      <point x="914" y="828" type="line"/>
      <point x="1108" y="828" type="line"/>
      <point x="1170" y="1024" type="line"/>
      <point x="982" y="1024" type="line"/>
      <point x="1104" y="1400" type="line"/>
      <point x="926" y="1400" type="line"/>
      <point x="806" y="1024" type="line"/>
      <point x="628" y="1024" type="line"/>
      <point x="750" y="1400" type="line"/>
      <point x="578" y="1400" type="line"/>
      <point x="452" y="1024" type="line"/>
      <point x="236" y="1024" type="line"/>
      <point x="180" y="828" type="line"/>
      <point x="384" y="828" type="line"/>
      <point x="320" y="618" type="line"/>
      <point x="130" y="618" type="line"/>
      <point x="52" y="422" type="line"/>
      <point x="254" y="422" type="line"/>
    </contour>
    <contour>
      <point x="492" y="618" type="line"/>
      <point x="560" y="828" type="line"/>
      <point x="738" y="828" type="line"/>
      <point x="670" y="618" type="line"/>
    </contour>
  </outline>
</glyph>
<glyph name="ampersand" format="2">
  <advance width="1080"/>
  <unicode hex="0026"/>
  <outline>
    <contour>
      <point x="456" y="-48" type="curve" smooth="yes"/>
      <point x="600" y="-48"/>
      <point x="706" y="-2"/>
      <point x="770" y="68" type="curve"/>
      <point x="814" y="0" type="line"/>
      <point x="1100" y="0" type="line"/>
      <point x="906" y="240" type="line"/>
      <point x="970" y="400"/>
      <point x="980" y="590"/>
      <point x="978" y="704" type="curve"/>
      <point x="746" y="704" type="line"/>
      <point x="744" y="618"/>
      <point x="750" y="516"/>
      <point x="750" y="422" type="curve"/>
      <point x="546" y="742" type="line"/>
      <point x="662" y="844"/>
      <point x="774" y="944"/>
      <point x="774" y="1120" type="curve" smooth="yes"/>
      <point x="774" y="1290"/>
      <point x="666" y="1406"/>
      <point x="488" y="1406" type="curve" smooth="yes"/>
      <point x="310" y="1406"/>
      <point x="134" y="1284"/>
      <point x="134" y="1076" type="curve" smooth="yes"/>
      <point x="134" y="950"/>
      <point x="208" y="834"/>
      <point x="262" y="734" type="curve"/>
      <point x="168" y="638"/>
      <point x="56" y="520"/>
      <point x="56" y="336" type="curve" smooth="yes"/>
      <point x="56" y="136"/>
      <point x="182" y="-48"/>
    </contour>
    <contour>
      <point x="498" y="142" type="curve" smooth="yes"/>
      <point x="334" y="142"/>
      <point x="310" y="254"/>
      <point x="310" y="358" type="curve" smooth="yes"/>
      <point x="310" y="458"/>
      <point x="336" y="534"/>
      <point x="376" y="600" type="curve"/>
      <point x="648" y="210" type="line"/>
      <point x="612" y="168"/>
      <point x="564" y="142"/>
    </contour>
    <contour>
      <point x="446" y="864" type="curve"/>
      <point x="404" y="942"/>
      <point x="374" y="1000"/>
      <point x="374" y="1066" type="curve" smooth="yes"/>
      <point x="374" y="1160"/>
      <point x="416" y="1208"/>
      <point x="484" y="1208" type="curve" smooth="yes"/>
      <point x="532" y="1208"/>
      <point x="562" y="1178"/>
      <point x="562" y="1092" type="curve" smooth="yes"/>
      <point x="562" y="1000"/>
      <point x="508" y="932"/>
    </contour>
  </outline>
</glyph>
<glyph name="quotesingle" format="2">
  <advance width="332"/>
  <unicode hex="0027"/>
  <outline>
    <contour>
      <point x="88" y="1000" type="line"/>
      <point x="244" y="1000" type="line"/>
      <point x="280" y="1400" type="line"/>
      <point x="52" y="1400" type="line"/>
    </contour>
  </outline>
</glyph>
<glyph name="parenleft" format="2">
  <advance width="564"/>
  <unicode hex="0028"/>
  <outline>
    <contour>
      <point x="328" y="-272" type="curve"/>
      <point x="528" y="-272" type="line"/>
      <point x="424" y="-54"/>
      <point x="340" y="222"/>
      <point x="340" y="614" type="curve" smooth="yes"/>
      <point x="340" y="1006"/>
      <point x="424" y="1282"/>
      <point x="528" y="1500" type="curve"/>
      <point x="328" y="1500" type="line"/>
      <point x="214" y="1282"/>
      <point x="100" y="1026"/>
      <point x="100" y="614" type="curve" smooth="yes"/>
      <point x="100" y="202"/>
      <point x="214" y="-54"/>
    </contour>
  </outline>
</glyph>
<glyph name="parenright" format="2">
  <advance width="564"/>
  <unicode hex="0029"/>
  <outline>
    <contour>
      <point x="36" y="-272" type="curve"/>
      <point x="236" y="-272" type="line"/>
      <point x="350" y="-54"/>
      <point x="464" y="202"/>
      <point x="464" y="614" type="curve" smooth="yes"/>
      <point x="464" y="1026"/>
      <point x="350" y="1282"/>
      <point x="236" y="1500" type="curve"/>
      <point x="36" y="1500" type="line"/>
      <point x="140" y="1282"/>
      <point x="224" y="1006"/>
      <point x="224" y="614" type="curve" smooth="yes"/>
      <point x="224" y="222"/>
      <point x="140" y="-54"/>
    </contour>
  </outline>
</glyph>
<glyph name="asterisk" format="2">
  <advance width="814"/>
  <unicode hex="002A"/>
  <outline>
    <contour>
      <point x="48" y="978" type="line"/>
      <point x="130" y="858" type="line"/>
      <point x="346" y="1002" type="line"/>
      <point x="336" y="724" type="line"/>
      <point x="478" y="724" type="line"/>
      <point x="468" y="1002" type="line"/>
      <point x="684" y="858" type="line"/>
      <point x="766" y="978" type="line"/>
      <point x="522" y="1122" type="line"/>
      <point x="764" y="1264" type="line"/>
      <point x="682" y="1384" type="line"/>
      <point x="468" y="1242" type="line"/>
      <point x="478" y="1510" type="line"/>
      <point x="336" y="1510" type="line"/>
      <point x="346" y="1242" type="line"/>
      <point x="132" y="1384" type="line"/>
      <point x="50" y="1264" type="line"/>
      <point x="292" y="1122" type="line"/>
    </contour>
  </outline>
</glyph>
<glyph name="plus" format="2">
  <advance width="820"/>
  <unicode hex="002B"/>
  <outline>
    <contour>
      <point x="312" y="192" type="line"/>
      <point x="508" y="192" type="line"/>
      <point x="508" y="462" type="line"/>
      <point x="748" y="462" type="line"/>
      <point x="748" y="646" type="line"/>
      <point x="508" y="646" type="line"/>
      <point x="508" y="916" type="line"/>
      <point x="312" y="916" type="line"/>
      <point x="312" y="646" type="line"/>
      <point x="72" y="646" type="line"/>
      <point x="72" y="462" type="line"/>
      <point x="312" y="462" type="line"/>
    </contour>
  </outline>
</glyph>
<glyph name="comma" format="2">
  <advance width="408"/>
  <unicode hex="002C"/>
  <outline>
    <contour>
      <point x="204" y="-240" type="line"/>
      <point x="332" y="24" type="line"/>
      <point x="332" y="272" type="line"/>
      <point x="88" y="272" type="line"/>
      <point x="88" y="0" type="line"/>
      <point x="190" y="0" type="line"/>
      <point x="104" y="-240" type="line"/>
    </contour>
  </outline>
</glyph>
<glyph name="hyphen" format="2">
  <advance width="702"/>
  <unicode hex="002D"/>
  <outline>
    <contour>
      <point x="84" y="528" type="line"/>
      <point x="618" y="528" type="line"/>
      <point x="618" y="716" type="line"/>
      <point x="84" y="716" type="line"/>
    </contour>
  </outline>
</glyph>
<glyph name="period" format="2">
  <advance width="388"/>
  <unicode hex="002E"/>
  <outline>
    <contour>
      <point x="72" y="0" type="line"/>
      <point x="316" y="0" type="line"/>
      <point x="316" y="272" type="line"/>
      <point x="72" y="272" type="line"/>
    </contour>
  </outline>
</glyph>
<glyph name="slash" format="2">
  <advance width="658"/>
  <unicode hex="002F"/>
  <outline>
    <contour>
      <point x="-16" y="-170" type="line"/>
      <point x="214" y="-170" type="line"/>
      <point x="710" y="1400" type="line"/>
      <point x="480" y="1400" type="line"/>
    </contour>
  </outline>
</glyph>
<glyph name="zero" format="2">
  <advance width="1212"/>
  <unicode hex="0030"/>
  <outline>
    <contour>
      <point x="606" y="-28" type="curve" smooth="yes"/>
      <point x="912" y="-28"/>
      <point x="1112" y="268"/>
      <point x="1112" y="712" type="curve" smooth="yes"/>
      <point x="1112" y="1134"/>
      <point x="912" y="1428"/>
      <point x="606" y="1428" type="curve" smooth="yes"/>
      <point x="302" y="1428"/>
      <point x="100" y="1136"/>
      <point x="100" y="712" type="curve" smooth="yes"/>
      <point x="100" y="268"/>
      <point x="302" y="-28"/>
    </contour>
    <contour>
      <point x="606" y="218" type="curve" smooth="yes"/>
      <point x="464" y="218"/>
      <point x="356" y="366"/>
      <point x="356" y="712" type="curve" smooth="yes"/>
      <point x="356" y="1032"/>
      <point x="464" y="1182"/>
      <point x="606" y="1182" type="curve" smooth="yes"/>
      <point x="748" y="1182"/>
      <point x="856" y="1030"/>
      <point x="856" y="712" type="curve" smooth="yes"/>
      <point x="856" y="362"/>
      <point x="748" y="218"/>
    </contour>
  </outline>
</glyph>
<glyph name="one" format="2">
  <advance width="670"/>
  <unicode hex="0031"/>
  <outline>
    <contour>
      <point x="242" y="0" type="line"/>
      <point x="486" y="0" type="line"/>
      <point x="486" y="1400" type="line"/>
      <point x="302" y="1400" type="line"/>
      <point x="270" y="1304"/>
      <point x="174" y="1210"/>
      <point x="80" y="1182" type="curve"/>
      <point x="96" y="966" type="line"/>
      <point x="150" y="978"/>
      <point x="198" y="1002"/>
      <point x="242" y="1038" type="curve"/>
    </contour>
  </outline>
</glyph>
<glyph name="two" format="2">
  <advance width="900"/>
  <unicode hex="0032"/>
  <outline>
    <contour>
      <point x="92" y="0" type="line"/>
      <point x="820" y="0" type="line"/>
      <point x="820" y="236" type="line"/>
      <point x="476" y="236" type="line"/>
      <point x="588" y="448" type="line" smooth="yes"/>
      <point x="744" y="744"/>
      <point x="794" y="880"/>
      <point x="794" y="1050" type="curve" smooth="yes"/>
      <point x="794" y="1254"/>
      <point x="682" y="1428"/>
      <point x="454" y="1428" type="curve" smooth="yes"/>
      <point x="316" y="1428"/>
      <point x="210" y="1390"/>
      <point x="114" y="1326" type="curve"/>
      <point x="142" y="1086" type="line"/>
      <point x="202" y="1134"/>
      <point x="284" y="1182"/>
      <point x="370" y="1182" type="curve" smooth="yes"/>
      <point x="476" y="1182"/>
      <point x="538" y="1122"/>
      <point x="538" y="1008" type="curve" smooth="yes"/>
      <point x="538" y="884"/>
      <point x="500" y="778"/>
      <point x="366" y="524" type="curve" smooth="yes"/>
    </contour>
  </outline>
</glyph>
<glyph name="three" format="2">
  <advance width="920"/>
  <unicode hex="0033"/>
  <outline>
    <contour>
      <point x="382" y="-28" type="curve" smooth="yes"/>
      <point x="644" y="-28"/>
      <point x="820" y="124"/>
      <point x="820" y="398" type="curve" smooth="yes"/>
      <point x="820" y="600"/>
      <point x="694" y="728"/>
      <point x="512" y="760" type="curve"/>
      <point x="514" y="714" type="line"/>
      <point x="678" y="772"/>
      <point x="770" y="890"/>
      <point x="770" y="1070" type="curve" smooth="yes"/>
      <point x="770" y="1284"/>
      <point x="628" y="1428"/>
      <point x="398" y="1428" type="curve" smooth="yes"/>
      <point x="274" y="1428"/>
      <point x="168" y="1398"/>
      <point x="94" y="1360" type="curve"/>
      <point x="132" y="1142" type="line"/>
      <point x="200" y="1182"/>
      <point x="270" y="1208"/>
      <point x="350" y="1208" type="curve" smooth="yes"/>
      <point x="458" y="1208"/>
      <point x="518" y="1140"/>
      <point x="518" y="1038" type="curve" smooth="yes"/>
      <point x="518" y="920"/>
      <point x="456" y="850"/>
      <point x="344" y="850" type="curve" smooth="yes"/>
      <point x="284" y="850" type="line"/>
      <point x="284" y="610" type="line"/>
      <point x="346" y="610" type="line" smooth="yes"/>
      <point x="484" y="610"/>
      <point x="568" y="538"/>
      <point x="568" y="398" type="curve" smooth="yes"/>
      <point x="568" y="258"/>
      <point x="484" y="192"/>
      <point x="356" y="192" type="curve" smooth="yes"/>
      <point x="262" y="192"/>
      <point x="186" y="218"/>
      <point x="110" y="274" type="curve"/>
      <point x="48" y="58" type="line"/>
      <point x="144" y="0"/>
      <point x="252" y="-28"/>
    </contour>
  </outline>
</glyph>
<glyph name="four" format="2">
  <advance width="1000"/>
  <unicode hex="0034"/>
  <outline>
    <contour>
      <point x="552" y="0" type="line"/>
      <point x="796" y="0" type="line"/>
      <point x="796" y="320" type="line"/>
      <point x="916" y="320" type="line"/>
      <point x="916" y="522" type="line"/>
      <point x="796" y="522" type="line"/>
      <point x="796" y="1400" type="line"/>
      <point x="630" y="1400" type="line"/>
      <point x="4" y="320" type="line"/>
      <point x="552" y="320" type="line"/>
    </contour>
    <contour>
      <point x="310" y="464" type="line"/>
      <point x="630" y="1052" type="line"/>
      <point x="552" y="1124" type="line"/>
      <point x="552" y="522" type="line"/>
      <point x="292" y="522" type="line"/>
    </contour>
  </outline>
</glyph>
<glyph name="five" format="2">
  <advance width="916"/>
  <unicode hex="0035"/>
  <outline>
    <contour>
      <point x="394" y="-26" type="curve" smooth="yes"/>
      <point x="650" y="-26"/>
      <point x="836" y="152"/>
      <point x="836" y="446" type="curve" smooth="yes"/>
      <point x="836" y="720"/>
      <point x="672" y="880"/>
      <point x="436" y="880" type="curve" smooth="yes"/>
      <point x="380" y="880"/>
      <point x="332" y="870"/>
      <point x="288" y="852" type="curve"/>
      <point x="376" y="764" type="line"/>
      <point x="424" y="1152" type="line"/>
      <point x="764" y="1152" type="line"/>
      <point x="780" y="1400" type="line"/>
      <point x="240" y="1400" type="line"/>
      <point x="150" y="642" type="line"/>
      <point x="214" y="658"/>
      <point x="278" y="670"/>
      <point x="344" y="670" type="curve" smooth="yes"/>
      <point x="502" y="670"/>
      <point x="588" y="582"/>
      <point x="588" y="436" type="curve" smooth="yes"/>
      <point x="588" y="300"/>
      <point x="504" y="214"/>
      <point x="370" y="214" type="curve" smooth="yes"/>
      <point x="282" y="214"/>
      <point x="210" y="242"/>
      <point x="140" y="284" type="curve"/>
      <point x="80" y="54" type="line"/>
      <point x="168" y="4"/>
      <point x="268" y="-26"/>
    </contour>
  </outline>
</glyph>
<glyph name="six" format="2">
  <advance width="936"/>
  <unicode hex="0036"/>
  <outline>
    <contour>
      <point x="478" y="-28" type="curve" smooth="yes"/>
      <point x="724" y="-28"/>
      <point x="868" y="144"/>
      <point x="868" y="416" type="curve" smooth="yes"/>
      <point x="868" y="666"/>
      <point x="718" y="842"/>
      <point x="520" y="842" type="curve" smooth="yes"/>
      <point x="368" y="842"/>
      <point x="272" y="772"/>
      <point x="222" y="654" type="curve"/>
      <point x="326" y="580" type="line"/>
      <point x="326" y="938"/>
      <point x="570" y="1150"/>
      <point x="758" y="1284" type="curve"/>
      <point x="584" y="1430" type="line"/>
      <point x="362" y="1284"/>
      <point x="80" y="920"/>
      <point x="80" y="474" type="curve" smooth="yes"/>
      <point x="80" y="172"/>
      <point x="228" y="-28"/>
    </contour>
    <contour>
      <point x="482" y="188" type="curve" smooth="yes"/>
      <point x="382" y="188"/>
      <point x="328" y="280"/>
      <point x="328" y="410" type="curve" smooth="yes"/>
      <point x="328" y="540"/>
      <point x="382" y="626"/>
      <point x="482" y="626" type="curve" smooth="yes"/>
      <point x="580" y="626"/>
      <point x="636" y="540"/>
      <point x="636" y="410" type="curve" smooth="yes"/>
      <point x="636" y="280"/>
      <point x="580" y="188"/>
    </contour>
  </outline>
</glyph>
<glyph name="seven" format="2">
  <advance width="864"/>
  <unicode hex="0037"/>
  <outline>
    <contour>
      <point x="160" y="0" type="line"/>
      <point x="404" y="0" type="line"/>
      <point x="848" y="1400" type="line"/>
      <point x="68" y="1400" type="line"/>
      <point x="68" y="1176" type="line"/>
      <point x="592" y="1176" type="line"/>
      <point x="564" y="1258" type="line"/>
    </contour>
  </outline>
</glyph>
<glyph name="eight" format="2">
  <advance width="1036"/>
  <unicode hex="0038"/>
  <outline>
    <contour>
      <point x="518" y="-28" type="curve" smooth="yes"/>
      <point x="778" y="-28"/>
      <point x="940" y="148"/>
      <point x="940" y="402" type="curve" smooth="yes"/>
      <point x="940" y="654"/>
      <point x="770" y="826"/>
      <point x="518" y="826" type="curve" smooth="yes"/>
      <point x="266" y="826"/>
      <point x="96" y="654"/>
      <point x="96" y="402" type="curve" smooth="yes"/>
      <point x="96" y="148"/>
      <point x="258" y="-28"/>
    </contour>
    <contour>
      <point x="518" y="192" type="curve" smooth="yes"/>
      <point x="400" y="192"/>
      <point x="332" y="282"/>
      <point x="332" y="418" type="curve" smooth="yes"/>
      <point x="332" y="546"/>
      <point x="400" y="640"/>
      <point x="518" y="640" type="curve" smooth="yes"/>
      <point x="636" y="640"/>
      <point x="704" y="546"/>
      <point x="704" y="418" type="curve" smooth="yes"/>
      <point x="704" y="282"/>
      <point x="636" y="192"/>
    </contour>
    <contour>
      <point x="518" y="680" type="curve" smooth="yes"/>
      <point x="738" y="680"/>
      <point x="880" y="832"/>
      <point x="880" y="1050" type="curve" smooth="yes"/>
      <point x="880" y="1234"/>
      <point x="780" y="1428"/>
      <point x="518" y="1428" type="curve" smooth="yes"/>
      <point x="260" y="1428"/>
      <point x="156" y="1234"/>
      <point x="156" y="1050" type="curve" smooth="yes"/>
      <point x="156" y="832"/>
      <point x="318" y="680"/>
    </contour>
    <contour>
      <point x="518" y="866" type="curve" smooth="yes"/>
      <point x="426" y="866"/>
      <point x="380" y="948"/>
      <point x="380" y="1048" type="curve" smooth="yes"/>
      <point x="380" y="1154"/>
      <point x="426" y="1228"/>
      <point x="518" y="1228" type="curve" smooth="yes"/>
      <point x="610" y="1228"/>
      <point x="656" y="1154"/>
      <point x="656" y="1048" type="curve" smooth="yes"/>
      <point x="656" y="948"/>
      <point x="610" y="866"/>
    </contour>
  </outline>
</glyph>
<glyph name="nine" format="2">
  <advance width="936"/>
  <unicode hex="0039"/>
  <outline>
    <contour>
      <point x="352" y="-28" type="line"/>
      <point x="574" y="118"/>
      <point x="856" y="482"/>
      <point x="856" y="928" type="curve" smooth="yes"/>
      <point x="856" y="1230"/>
      <point x="708" y="1430"/>
      <point x="458" y="1430" type="curve" smooth="yes"/>
      <point x="212" y="1430"/>
      <point x="68" y="1258"/>
      <point x="68" y="986" type="curve" smooth="yes"/>
      <point x="68" y="736"/>
      <point x="218" y="560"/>
      <point x="416" y="560" type="curve" smooth="yes"/>
      <point x="568" y="560"/>
      <point x="664" y="630"/>
      <point x="714" y="748" type="curve"/>
      <point x="610" y="822" type="line"/>
      <point x="610" y="464"/>
      <point x="366" y="252"/>
      <point x="178" y="118" type="curve"/>
    </contour>
    <contour>
      <point x="454" y="776" type="curve" smooth="yes"/>
      <point x="356" y="776"/>
      <point x="300" y="862"/>
      <point x="300" y="992" type="curve" smooth="yes"/>
      <point x="300" y="1122"/>
      <point x="356" y="1214"/>
      <point x="454" y="1214" type="curve" smooth="yes"/>
      <point x="554" y="1214"/>
      <point x="608" y="1122"/>
      <point x="608" y="992" type="curve" smooth="yes"/>
      <point x="608" y="862"/>
      <point x="554" y="776"/>
    </contour>
  </outline>
</glyph>
<glyph name="less" format="2">
  <advance width="700"/>
  <unicode hex="003C"/>
  <outline>
    <contour>
      <point x="660" y="134" type="line"/>
      <point x="660" y="338" type="line"/>
      <point x="222" y="554" type="line"/>
      <point x="660" y="772" type="line"/>
      <point x="660" y="976" type="line"/>
      <point x="60" y="658" type="line"/>
      <point x="60" y="450" type="line"/>
    </contour>
  </outline>
</glyph>
<glyph name="equal" format="2">
  <advance width="820"/>
  <unicode hex="003D"/>
  <outline>
    <contour>
      <point x="72" y="624" type="line"/>
      <point x="748" y="624" type="line"/>
      <point x="748" y="808" type="line"/>
      <point x="72" y="808" type="line"/>
    </contour>
    <contour>
      <point x="72" y="300" type="line"/>
      <point x="748" y="300" type="line"/>
      <point x="748" y="484" type="line"/>
      <point x="72" y="484" type="line"/>
    </contour>
  </outline>
</glyph>
<glyph name="question" format="2">
  <advance width="864"/>
  <unicode hex="003F"/>
  <outline>
    <contour>
      <point x="216" y="414" type="line"/>
      <point x="460" y="414" type="line"/>
      <point x="460" y="446" type="line" smooth="yes"/>
      <point x="460" y="552"/>
      <point x="510" y="610"/>
      <point x="606" y="722" type="curve" smooth="yes"/>
      <point x="714" y="848"/>
      <point x="788" y="934"/>
      <point x="788" y="1074" type="curve" smooth="yes"/>
      <point x="788" y="1278"/>
      <point x="640" y="1428"/>
      <point x="394" y="1428" type="curve" smooth="yes"/>
      <point x="252" y="1428"/>
      <point x="164" y="1406"/>
      <point x="68" y="1370" type="curve"/>
      <point x="96" y="1142" type="line"/>
      <point x="168" y="1170"/>
      <point x="238" y="1190"/>
      <point x="324" y="1190" type="curve" smooth="yes"/>
      <point x="440" y="1190"/>
      <point x="516" y="1132"/>
      <point x="516" y="1030" type="curve" smooth="yes"/>
      <point x="516" y="934"/>
      <point x="458" y="866"/>
      <point x="372" y="766" type="curve" smooth="yes"/>
      <point x="278" y="656"/>
      <point x="216" y="580"/>
      <point x="216" y="434" type="curve" smooth="yes"/>
    </contour>
    <contour>
      <point x="216" y="0" type="line"/>
      <point x="460" y="0" type="line"/>
      <point x="460" y="272" type="line"/>
      <point x="216" y="272" type="line"/>
    </contour>
  </outline>
</glyph>
<glyph name="A" format="2">
  <advance width="1070"/>
  <unicode hex="0041"/>
  <anchor x="534" y="0" name="bottom"/>
  <anchor x="952" y="0" name="ogonek"/>
  <anchor x="534" y="1400" name="top"/>
  <outline>
    <contour>
      <point x="794" y="334" type="line"/>
      <point x="794" y="558" type="line"/>
      <point x="276" y="558" type="line"/>
      <point x="276" y="334" type="line"/>
    </contour>
    <contour>
      <point x="512" y="1108" type="line"/>
      <point x="830" y="0" type="line"/>
      <point x="1074" y="0" type="line"/>
      <point x="646" y="1400" type="line"/>
      <point x="422" y="1400" type="line"/>
      <point x="-4" y="0" type="line"/>
      <point x="240" y="0" type="line"/>
      <point x="556" y="1108" type="line"/>
    </contour>
  </outline>
</glyph>
<glyph name="B" format="2">
  <advance width="1126"/>
  <unicode hex="0042"/>
  <outline>
    <contour>
      <point x="132" y="0" type="line"/>
      <point x="656" y="0" type="line" smooth="yes"/>
      <point x="902" y="0"/>
      <point x="1054" y="146"/>
      <point x="1054" y="398" type="curve" smooth="yes"/>
      <point x="1054" y="602"/>
      <point x="952" y="726"/>
      <point x="770" y="774" type="curve"/>
      <point x="770" y="726" type="line"/>
      <point x="884" y="778"/>
      <point x="942" y="892"/>
      <point x="942" y="1062" type="curve" smooth="yes"/>
      <point x="942" y="1282"/>
      <point x="830" y="1400"/>
      <point x="600" y="1400" type="curve" smooth="yes"/>
      <point x="132" y="1400" type="line"/>
    </contour>
    <contour>
      <point x="376" y="224" type="line"/>
      <point x="376" y="626" type="line"/>
      <point x="612" y="626" type="line" smooth="yes"/>
      <point x="720" y="626"/>
      <point x="802" y="580"/>
      <point x="802" y="422" type="curve" smooth="yes"/>
      <point x="802" y="272"/>
      <point x="728" y="224"/>
      <point x="612" y="224" type="curve" smooth="yes"/>
    </contour>
    <contour>
      <point x="376" y="846" type="line"/>
      <point x="376" y="1176" type="line"/>
      <point x="556" y="1176" type="line" smooth="yes"/>
      <point x="654" y="1176"/>
      <point x="702" y="1128"/>
      <point x="702" y="1010" type="curve" smooth="yes"/>
      <point x="702" y="896"/>
      <point x="654" y="846"/>
      <point x="556" y="846" type="curve" smooth="yes"/>
    </contour>
  </outline>
</glyph>
<glyph name="D" format="2">
  <advance width="1238"/>
  <unicode hex="0044"/>
  <anchor x="620" y="0" name="bottom"/>
  <anchor x="620" y="1400" name="top"/>
  <outline>
    <contour>
      <point x="132" y="0" type="line"/>
      <point x="584" y="0" type="line" smooth="yes"/>
      <point x="926" y="0"/>
      <point x="1176" y="260"/>
      <point x="1176" y="700" type="curve" smooth="yes"/>
      <point x="1176" y="1140"/>
      <point x="926" y="1400"/>
      <point x="584" y="1400" type="curve" smooth="yes"/>
      <point x="132" y="1400" type="line"/>
    </contour>
    <contour>
      <point x="376" y="224" type="line"/>
      <point x="376" y="1176" type="line"/>
      <point x="584" y="1176" type="line" smooth="yes"/>
      <point x="800" y="1176"/>
      <point x="908" y="994"/>
      <point x="908" y="700" type="curve" smooth="yes"/>
      <point x="908" y="406"/>
      <point x="800" y="224"/>
      <point x="584" y="224" type="curve" smooth="yes"/>
    </contour>
  </outline>
</glyph>
<glyph name="E" format="2">
  <advance width="994"/>
  <unicode hex="0045"/>
  <anchor x="534" y="0" name="bottom"/>
  <anchor x="872" y="0" name="ogonek"/>
  <anchor x="526" y="1400" name="top"/>
  <outline>
    <contour>
      <point x="132" y="0" type="line"/>
      <point x="936" y="0" type="line"/>
      <point x="936" y="224" type="line"/>
      <point x="376" y="224" type="line"/>
      <point x="376" y="622" type="line"/>
      <point x="794" y="622" type="line"/>
      <point x="794" y="846" type="line"/>
      <point x="376" y="846" type="line"/>
      <point x="376" y="1176" type="line"/>
      <point x="918" y="1176" type="line"/>
      <point x="918" y="1400" type="line"/>
      <point x="132" y="1400" type="line"/>
    </contour>
  </outline>
</glyph>
<glyph name="F" format="2">
  <advance width="906"/>
  <unicode hex="0046"/>
  <outline>
    <contour>
      <point x="132" y="0" type="line"/>
      <point x="376" y="0" type="line"/>
      <point x="376" y="622" type="line"/>
      <point x="762" y="622" type="line"/>
      <point x="762" y="846" type="line"/>
      <point x="376" y="846" type="line"/>
      <point x="376" y="1176" type="line"/>
      <point x="876" y="1176" type="line"/>
      <point x="876" y="1400" type="line"/>
      <point x="132" y="1400" type="line"/>
    </contour>
  </outline>
</glyph>
<glyph name="G" format="2">
  <advance width="1142"/>
  <unicode hex="0047"/>
  <anchor x="696" y="0" name="bottom"/>
  <anchor x="690" y="1400" name="top"/>
  <outline>
    <contour>
      <point x="684" y="-28" type="curve" smooth="yes"/>
      <point x="838" y="-28"/>
      <point x="974" y="12"/>
      <point x="1062" y="74" type="curve"/>
      <point x="1062" y="702" type="line"/>
      <point x="658" y="702" type="line"/>
      <point x="658" y="478" type="line"/>
      <point x="818" y="478" type="line"/>
      <point x="818" y="236" type="line"/>
      <point x="784" y="224"/>
      <point x="742" y="218"/>
      <point x="706" y="218" type="curve" smooth="yes"/>
      <point x="458" y="218"/>
      <point x="328" y="396"/>
      <point x="328" y="700" type="curve" smooth="yes"/>
      <point x="328" y="1000"/>
      <point x="476" y="1182"/>
      <point x="726" y="1182" type="curve" smooth="yes"/>
      <point x="832" y="1182"/>
      <point x="908" y="1154"/>
      <point x="994" y="1118" type="curve"/>
      <point x="1022" y="1362" type="line"/>
      <point x="936" y="1400"/>
      <point x="828" y="1428"/>
      <point x="694" y="1428" type="curve" smooth="yes"/>
      <point x="332" y="1428"/>
      <point x="60" y="1150"/>
      <point x="60" y="700" type="curve" smooth="yes"/>
      <point x="60" y="260"/>
      <point x="310" y="-28"/>
    </contour>
  </outline>
</glyph>
<glyph name="H" format="2">
  <advance width="1272"/>
  <unicode hex="0048"/>
  <anchor x="636" y="0" name="bottom"/>
  <anchor x="636" y="1400" name="top"/>
  <outline>
    <contour>
      <point x="132" y="0" type="line"/>
      <point x="376" y="0" type="line"/>
      <point x="376" y="606" type="line"/>
      <point x="896" y="606" type="line"/>
      <point x="896" y="0" type="line"/>
      <point x="1140" y="0" type="line"/>
      <point x="1140" y="1400" type="line"/>
      <point x="896" y="1400" type="line"/>
      <point x="896" y="846" type="line"/>
      <point x="376" y="846" type="line"/>
      <point x="376" y="1400" type="line"/>
      <point x="132" y="1400" type="line"/>
    </contour>
  </outline>
</glyph>
<glyph name="I" format="2">
  <advance width="484"/>
  <unicode hex="0049"/>
  <anchor x="242" y="0" name="bottom"/>
  <anchor x="300" y="0" name="ogonek"/>
  <anchor x="242" y="1400" name="top"/>
  <outline>
    <contour>
      <point x="120" y="0" type="line"/>
      <point x="364" y="0" type="line"/>
      <point x="364" y="1400" type="line"/>
      <point x="120" y="1400" type="line"/>
    </contour>
  </outline>
</glyph>
<glyph name="J" format="2">
  <advance width="484"/>
  <unicode hex="004A"/>
  <anchor x="238" y="1400" name="top"/>
  <outline>
    <contour>
      <point x="10" y="-344" type="line"/>
      <point x="52" y="-344" type="line" smooth="yes"/>
      <point x="236" y="-344"/>
      <point x="360" y="-252"/>
      <point x="360" y="-48" type="curve" smooth="yes"/>
      <point x="360" y="1400" type="line"/>
      <point x="116" y="1400" type="line"/>
      <point x="116" y="-2" type="line" smooth="yes"/>
      <point x="116" y="-92"/>
      <point x="80" y="-128"/>
      <point x="-8" y="-128" type="curve"/>
    </contour>
  </outline>
</glyph>
<glyph name="K" format="2">
  <advance width="1052"/>
  <unicode hex="004B"/>
  <anchor x="568" y="0" name="bottom"/>
  <anchor x="568" y="1400" name="top"/>
  <outline>
    <contour>
      <point x="784" y="0" type="line"/>
      <point x="1072" y="0" type="line"/>
      <point x="638" y="740" type="line"/>
      <point x="1072" y="1400" type="line"/>
      <point x="784" y="1400" type="line"/>
      <point x="362" y="740" type="line"/>
    </contour>
    <contour>
      <point x="108" y="0" type="line"/>
      <point x="352" y="0" type="line"/>
      <point x="352" y="1400" type="line"/>
      <point x="108" y="1400" type="line"/>
    </contour>
  </outline>
</glyph>
<glyph name="L" format="2">
  <advance width="860"/>
  <unicode hex="004C"/>
  <anchor x="490" y="0" name="bottom"/>
  <anchor x="684" y="784" name="center"/>
  <anchor x="254" y="1400" name="top"/>
  <anchor x="658" y="1400" name="topright"/>
  <outline>
    <contour>
      <point x="132" y="0" type="line"/>
      <point x="848" y="0" type="line"/>
      <point x="848" y="224" type="line"/>
      <point x="376" y="224" type="line"/>
      <point x="376" y="1400" type="line"/>
      <point x="132" y="1400" type="line"/>
    </contour>
  </outline>
</glyph>
<glyph name="M" format="2">
  <advance width="1460"/>
  <unicode hex="004D"/>
  <anchor x="734" y="0" name="bottom"/>
  <anchor x="734" y="1400" name="top"/>
  <outline>
    <contour>
      <point x="72" y="0" type="line"/>
      <point x="324" y="0" type="line"/>
      <point x="444" y="1050" type="line"/>
      <point x="360" y="1040" type="line"/>
      <point x="724" y="282" type="line"/>
      <point x="1090" y="1042" type="line"/>
      <point x="1004" y="1052" type="line"/>
      <point x="1124" y="0" type="line"/>
      <point x="1376" y="0" type="line"/>
      <point x="1200" y="1400" type="line"/>
      <point x="1002" y="1400" type="line"/>
      <point x="724" y="786" type="line"/>
      <point x="446" y="1400" type="line"/>
      <point x="248" y="1400" type="line"/>
    </contour>
  </outline>
</glyph>
<glyph name="N" format="2">
  <advance width="1222"/>
  <unicode hex="004E"/>
  <anchor x="626" y="0" name="bottom"/>
  <anchor x="614" y="1400" name="top"/>
  <outline>
    <contour>
      <point x="132" y="0" type="line"/>
      <point x="376" y="0" type="line"/>
      <point x="376" y="932" type="line"/>
      <point x="876" y="0" type="line"/>
      <point x="1090" y="0" type="line"/>
      <point x="1090" y="1400" type="line"/>
      <point x="846" y="1400" type="line"/>
      <point x="846" y="524" type="line"/>
      <point x="382" y="1400" type="line"/>
      <point x="132" y="1400" type="line"/>
    </contour>
  </outline>
</glyph>
<glyph name="O" format="2">
  <advance width="1308"/>
  <unicode hex="004F"/>
  <anchor x="654" y="0" name="bottom"/>
  <anchor x="696" y="0" name="ogonek"/>
  <anchor x="654" y="1400" name="top"/>
  <anchor x="828" y="1400" name="topright"/>
  <outline>
    <contour>
      <point x="654" y="-28" type="curve" smooth="yes"/>
      <point x="1000" y="-28"/>
      <point x="1248" y="260"/>
      <point x="1248" y="700" type="curve" smooth="yes"/>
      <point x="1248" y="1140"/>
      <point x="1000" y="1428"/>
      <point x="654" y="1428" type="curve" smooth="yes"/>
      <point x="310" y="1428"/>
      <point x="60" y="1140"/>
      <point x="60" y="700" type="curve" smooth="yes"/>
      <point x="60" y="260"/>
      <point x="310" y="-28"/>
    </contour>
    <contour>
      <point x="654" y="218" type="curve" smooth="yes"/>
      <point x="432" y="218"/>
      <point x="320" y="420"/>
      <point x="320" y="700" type="curve" smooth="yes"/>
      <point x="320" y="980"/>
      <point x="432" y="1182"/>
      <point x="654" y="1182" type="curve" smooth="yes"/>
      <point x="876" y="1182"/>
      <point x="988" y="980"/>
      <point x="988" y="700" type="curve" smooth="yes"/>
      <point x="988" y="420"/>
      <point x="876" y="218"/>
    </contour>
  </outline>
</glyph>
<glyph name="P" format="2">
  <advance width="1038"/>
  <unicode hex="0050"/>
  <outline>
    <contour>
      <point x="120" y="0" type="line"/>
      <point x="364" y="0" type="line"/>
      <point x="364" y="472" type="line"/>
      <point x="528" y="472" type="line" smooth="yes"/>
      <point x="808" y="472"/>
      <point x="998" y="620"/>
      <point x="998" y="936" type="curve" smooth="yes"/>
      <point x="998" y="1252"/>
      <point x="808" y="1400"/>
      <point x="528" y="1400" type="curve" smooth="yes"/>
      <point x="120" y="1400" type="line"/>
    </contour>
    <contour>
      <point x="364" y="684" type="line"/>
      <point x="364" y="1188" type="line"/>
      <point x="506" y="1188" type="line" smooth="yes"/>
      <point x="654" y="1188"/>
      <point x="746" y="1110"/>
      <point x="746" y="936" type="curve" smooth="yes"/>
      <point x="746" y="748"/>
      <point x="654" y="684"/>
      <point x="506" y="684" type="curve" smooth="yes"/>
    </contour>
  </outline>
</glyph>
<glyph name="R" format="2">
  <advance width="1074"/>
  <unicode hex="0052"/>
  <anchor x="580" y="0" name="bottom"/>
  <anchor x="538" y="1400" name="top"/>
  <outline>
    <contour>
      <point x="122" y="0" type="line"/>
      <point x="366" y="0" type="line"/>
      <point x="366" y="520" type="line"/>
      <point x="544" y="520" type="line" smooth="yes"/>
      <point x="552" y="520"/>
      <point x="558" y="520"/>
      <point x="566" y="520" type="curve"/>
      <point x="794" y="0" type="line"/>
      <point x="1068" y="0" type="line"/>
      <point x="800" y="587" type="line"/>
      <point x="924" y="661"/>
      <point x="998" y="792"/>
      <point x="998" y="968" type="curve" smooth="yes"/>
      <point x="998" y="1276"/>
      <point x="810" y="1400"/>
      <point x="530" y="1400" type="curve" smooth="yes"/>
      <point x="122" y="1400" type="line"/>
    </contour>
    <contour>
      <point x="366" y="732" type="line"/>
      <point x="366" y="1188" type="line"/>
      <point x="508" y="1188" type="line" smooth="yes"/>
      <point x="658" y="1188"/>
      <point x="746" y="1124"/>
      <point x="746" y="960" type="curve" smooth="yes"/>
      <point x="746" y="796"/>
      <point x="658" y="732"/>
      <point x="508" y="732" type="curve" smooth="yes"/>
    </contour>
  </outline>
</glyph>
<glyph name="S" format="2">
  <advance width="1014"/>
  <unicode hex="0053"/>
  <anchor x="534" y="0" name="bottom"/>
  <anchor x="542" y="1400" name="top"/>
  <outline>
    <contour>
      <point x="484" y="-28" type="curve" smooth="yes"/>
      <point x="786" y="-28"/>
      <point x="964" y="132"/>
      <point x="964" y="378" type="curve" smooth="yes"/>
      <point x="964" y="584"/>
      <point x="848" y="692"/>
      <point x="624" y="800" type="curve" smooth="yes"/>
      <point x="448" y="884"/>
      <point x="342" y="926"/>
      <point x="342" y="1040" type="curve" smooth="yes"/>
      <point x="342" y="1134"/>
      <point x="410" y="1182"/>
      <point x="532" y="1182" type="curve" smooth="yes"/>
      <point x="650" y="1182"/>
      <point x="760" y="1146"/>
      <point x="890" y="1082" type="curve"/>
      <point x="916" y="1346" type="line"/>
      <point x="810" y="1394"/>
      <point x="692" y="1428"/>
      <point x="552" y="1428" type="curve" smooth="yes"/>
      <point x="254" y="1428"/>
      <point x="82" y="1260"/>
      <point x="82" y="1030" type="curve" smooth="yes"/>
      <point x="82" y="824"/>
      <point x="200" y="724"/>
      <point x="422" y="624" type="curve" smooth="yes"/>
      <point x="630" y="530"/>
      <point x="704" y="476"/>
      <point x="704" y="368" type="curve" smooth="yes"/>
      <point x="704" y="270"/>
      <point x="626" y="218"/>
      <point x="500" y="218" type="curve" smooth="yes"/>
      <point x="364" y="218"/>
      <point x="240" y="260"/>
      <point x="112" y="330" type="curve"/>
      <point x="82" y="58" type="line"/>
      <point x="190" y="4"/>
      <point x="340" y="-28"/>
    </contour>
  </outline>
</glyph>
<glyph name="T" format="2">
  <advance width="952"/>
  <unicode hex="0054"/>
  <anchor x="476" y="0" name="bottom"/>
  <anchor x="476" y="1400" name="top"/>
  <outline>
    <contour>
      <point x="354" y="0" type="line"/>
      <point x="598" y="0" type="line"/>
      <point x="598" y="1176" type="line"/>
      <point x="934" y="1176" type="line"/>
      <point x="934" y="1400" type="line"/>
      <point x="18" y="1400" type="line"/>
      <point x="18" y="1176" type="line"/>
      <point x="354" y="1176" type="line"/>
    </contour>
  </outline>
</glyph>
<glyph name="U" format="2">
  <advance width="1240"/>
  <unicode hex="0055"/>
  <anchor x="622" y="0" name="bottom"/>
  <anchor x="714" y="0" name="ogonek"/>
  <anchor x="622" y="1400" name="top"/>
  <anchor x="958" y="1400" name="topright"/>
  <outline>
    <contour>
      <point x="620" y="-28" type="curve" smooth="yes"/>
      <point x="960" y="-28"/>
      <point x="1120" y="196"/>
      <point x="1120" y="540" type="curve" smooth="yes"/>
      <point x="1120" y="1400" type="line"/>
      <point x="876" y="1400" type="line"/>
      <point x="876" y="606" type="line" smooth="yes"/>
      <point x="876" y="380"/>
      <point x="832" y="218"/>
      <point x="620" y="218" type="curve" smooth="yes"/>
      <point x="410" y="218"/>
      <point x="364" y="380"/>
      <point x="364" y="606" type="curve" smooth="yes"/>
      <point x="364" y="1400" type="line"/>
      <point x="120" y="1400" type="line"/>
      <point x="120" y="540" type="line" smooth="yes"/>
      <point x="120" y="196"/>
      <point x="280" y="-28"/>
    </contour>
  </outline>
</glyph>
<glyph name="V" format="2">
  <advance width="1152"/>
  <unicode hex="0056"/>
  <anchor x="576" y="0" name="bottom"/>
  <anchor x="576" y="1400" name="top"/>
  <outline>
    <contour>
      <point x="432" y="0" type="line"/>
      <point x="720" y="0" type="line"/>
      <point x="1156" y="1400" type="line"/>
      <point x="912" y="1400" type="line"/>
      <point x="542" y="198" type="line"/>
      <point x="610" y="198" type="line"/>
      <point x="240" y="1400" type="line"/>
      <point x="-4" y="1400" type="line"/>
    </contour>
  </outline>
</glyph>
<glyph name="W" format="2">
  <advance width="1620"/>
  <unicode hex="0057"/>
  <anchor x="810" y="0" name="bottom"/>
  <anchor x="810" y="1400" name="top"/>
  <outline>
    <contour>
      <point x="308" y="0" type="line"/>
      <point x="568" y="0" type="line"/>
      <point x="810" y="1008" type="line"/>
      <point x="1052" y="0" type="line"/>
      <point x="1312" y="0" type="line"/>
      <point x="1624" y="1400" type="line"/>
      <point x="1380" y="1400" type="line"/>
      <point x="1176" y="366" type="line"/>
      <point x="940" y="1374" type="line"/>
      <point x="680" y="1374" type="line"/>
      <point x="444" y="366" type="line"/>
      <point x="240" y="1400" type="line"/>
      <point x="-4" y="1400" type="line"/>
    </contour>
  </outline>
</glyph>
<glyph name="X" format="2">
  <advance width="1110"/>
  <unicode hex="0058"/>
  <outline>
    <contour>
      <point x="-4" y="0" type="line"/>
      <point x="256" y="0" type="line"/>
      <point x="555" y="500" type="line"/>
      <point x="854" y="0" type="line"/>
      <point x="1114" y="0" type="line"/>
      <point x="685" y="717" type="line"/>
      <point x="1094" y="1400" type="line"/>
      <point x="834" y="1400" type="line"/>
      <point x="555" y="934" type="line"/>
      <point x="276" y="1400" type="line"/>
      <point x="16" y="1400" type="line"/>
      <point x="425" y="717" type="line"/>
    </contour>
  </outline>
</glyph>
<glyph name="Y" format="2">
  <advance width="1050"/>
  <unicode hex="0059"/>
  <anchor x="526" y="0" name="bottom"/>
  <anchor x="526" y="1400" name="top"/>
  <outline>
    <contour>
      <point x="404" y="0" type="line"/>
      <point x="646" y="0" type="line"/>
      <point x="646" y="620" type="line"/>
      <point x="1066" y="1400" type="line"/>
      <point x="806" y="1400" type="line"/>
      <point x="476" y="746" type="line"/>
      <point x="578" y="746" type="line"/>
      <point x="244" y="1400" type="line"/>
      <point x="-16" y="1400" type="line"/>
      <point x="404" y="620" type="line"/>
    </contour>
  </outline>
</glyph>
<glyph name="Z" format="2">
  <advance width="954"/>
  <unicode hex="005A"/>
  <anchor x="476" y="0" name="bottom"/>
  <anchor x="512" y="1400" name="top"/>
  <outline>
    <contour>
      <point x="14" y="0" type="line"/>
      <point x="938" y="0" type="line"/>
      <point x="938" y="224" type="line"/>
      <point x="284" y="224" type="line"/>
      <point x="332" y="144" type="line"/>
      <point x="930" y="1400" type="line"/>
      <point x="94" y="1400" type="line"/>
      <point x="94" y="1176" type="line"/>
      <point x="664" y="1176" type="line"/>
      <point x="616" y="1256" type="line"/>
    </contour>
  </outline>
</glyph>
<glyph name="bracketleft" format="2">
  <advance width="576"/>
  <unicode hex="005B"/>
  <outline>
    <contour>
      <point x="116" y="-272" type="line"/>
      <point x="558" y="-272" type="line"/>
      <point x="558" y="-54" type="line"/>
      <point x="332" y="-54" type="line"/>
      <point x="332" y="1282" type="line"/>
      <point x="558" y="1282" type="line"/>
      <point x="558" y="1500" type="line"/>
      <point x="116" y="1500" type="line"/>
    </contour>
  </outline>
</glyph>
<glyph name="backslash" format="2">
  <advance width="754"/>
  <unicode hex="005C"/>
  <outline>
    <contour>
      <point x="502" y="-170" type="line"/>
      <point x="732" y="-170" type="line"/>
      <point x="276" y="1400" type="line"/>
      <point x="46" y="1400" type="line"/>
    </contour>
  </outline>
</glyph>
<glyph name="bracketright" format="2">
  <advance width="586"/>
  <unicode hex="005D"/>
  <outline>
    <contour>
      <point x="28" y="-272" type="line"/>
      <point x="470" y="-272" type="line"/>
      <point x="470" y="1500" type="line"/>
      <point x="28" y="1500" type="line"/>
      <point x="28" y="1252" type="line"/>
      <point x="254" y="1252" type="line"/>
      <point x="254" y="-24" type="line"/>
      <point x="28" y="-24" type="line"/>
    </contour>
  </outline>
</glyph>
<glyph name="a" format="2">
  <advance width="846"/>
  <unicode hex="0061"/>
  <anchor x="424" y="0" name="bottom"/>
  <anchor x="742" y="0" name="ogonek"/>
  <anchor x="424" y="1000" name="top"/>
  <outline>
    <contour>
      <point x="290" y="-20" type="curve" smooth="yes"/>
      <point x="400" y="-20"/>
      <point x="468" y="24"/>
      <point x="534" y="96" type="curve"/>
      <point x="566" y="26"/>
      <point x="644" y="-20"/>
      <point x="716" y="-20" type="curve" smooth="yes"/>
      <point x="822" y="-20" type="line"/>
      <point x="838" y="184" type="line"/>
      <point x="806" y="184" type="line" smooth="yes"/>
      <point x="756" y="184"/>
      <point x="740" y="194"/>
      <point x="740" y="344" type="curve" smooth="yes"/>
      <point x="740" y="646" type="line" smooth="yes"/>
      <point x="740" y="912"/>
      <point x="610" y="1016"/>
      <point x="420" y="1016" type="curve" smooth="yes"/>
      <point x="314" y="1016"/>
      <point x="204" y="986"/>
      <point x="98" y="928" type="curve"/>
      <point x="114" y="726" type="line"/>
      <point x="200" y="774"/>
      <point x="272" y="802"/>
      <point x="356" y="802" type="curve" smooth="yes"/>
      <point x="462" y="802"/>
      <point x="498" y="752"/>
      <point x="498" y="638" type="curve"/>
      <point x="360" y="632"/>
      <point x="24" y="558"/>
      <point x="24" y="258" type="curve" smooth="yes"/>
      <point x="24" y="74"/>
      <point x="150" y="-20"/>
    </contour>
    <contour>
      <point x="372" y="170" type="curve" smooth="yes"/>
      <point x="318" y="170"/>
      <point x="276" y="200"/>
      <point x="276" y="282" type="curve" smooth="yes"/>
      <point x="276" y="406"/>
      <point x="388" y="456"/>
      <point x="500" y="470" type="curve"/>
      <point x="500" y="242" type="line"/>
      <point x="462" y="196"/>
      <point x="422" y="170"/>
    </contour>
  </outline>
</glyph>
<glyph name="b" format="2">
  <advance width="986"/>
  <unicode hex="0062"/>
  <anchor x="494" y="0" name="bottom"/>
  <anchor x="220" y="1500" name="top"/>
  <outline>
    <contour>
      <point x="570" y="-20" type="curve" smooth="yes"/>
      <point x="822" y="-20"/>
      <point x="956" y="218"/>
      <point x="956" y="498" type="curve" smooth="yes"/>
      <point x="956" y="778"/>
      <point x="822" y="1016"/>
      <point x="570" y="1016" type="curve" smooth="yes"/>
      <point x="446" y="1016"/>
      <point x="352" y="958"/>
      <point x="288" y="872" type="curve"/>
      <point x="340" y="834" type="line"/>
      <point x="340" y="1500" type="line"/>
      <point x="100" y="1500" type="line"/>
      <point x="100" y="0" type="line"/>
      <point x="324" y="0" type="line"/>
      <point x="336" y="170" type="line"/>
      <point x="276" y="128" type="line"/>
      <point x="348" y="36"/>
      <point x="444" y="-20"/>
    </contour>
    <contour>
      <point x="524" y="176" type="curve" smooth="yes"/>
      <point x="388" y="176"/>
      <point x="328" y="308"/>
      <point x="328" y="498" type="curve" smooth="yes"/>
      <point x="328" y="688"/>
      <point x="388" y="820"/>
      <point x="524" y="820" type="curve" smooth="yes"/>
      <point x="644" y="820"/>
      <point x="712" y="688"/>
      <point x="712" y="498" type="curve" smooth="yes"/>
      <point x="712" y="308"/>
      <point x="644" y="176"/>
    </contour>
  </outline>
</glyph>
<glyph name="c" format="2">
  <advance width="770"/>
  <unicode hex="0063"/>
  <guideline x="362" y="471" angle="90"/>
  <anchor x="486" y="0" name="bottom"/>
  <anchor x="470" y="1000" name="top"/>
  <outline>
    <contour>
      <point x="520" y="-20" type="curve" smooth="yes"/>
      <point x="598" y="-20"/>
      <point x="674" y="-4"/>
      <point x="724" y="20" type="curve"/>
      <point x="708" y="212" type="line"/>
      <point x="660" y="188"/>
      <point x="612" y="176"/>
      <point x="554" y="176" type="curve" smooth="yes"/>
      <point x="384" y="176"/>
      <point x="292" y="316"/>
      <point x="292" y="498" type="curve" smooth="yes"/>
      <point x="292" y="688"/>
      <point x="388" y="820"/>
      <point x="556" y="820" type="curve" smooth="yes"/>
      <point x="612" y="820"/>
      <point x="660" y="806"/>
      <point x="702" y="786" type="curve"/>
      <point x="720" y="982" type="line"/>
      <point x="674" y="1002"/>
      <point x="608" y="1016"/>
      <point x="528" y="1016" type="curve" smooth="yes"/>
      <point x="206" y="1016"/>
      <point x="48" y="782"/>
      <point x="48" y="498" type="curve" smooth="yes"/>
      <point x="48" y="214"/>
      <point x="210" y="-20"/>
    </contour>
  </outline>
</glyph>
<glyph name="d" format="2">
  <advance width="986"/>
  <unicode hex="0064"/>
  <anchor x="504" y="0" name="bottom"/>
  <anchor x="712" y="1278" name="center"/>
  <anchor x="766" y="1500" name="top"/>
  <anchor x="966" y="1500" name="topright"/>
  <outline>
    <contour>
      <point x="426" y="-20" type="curve" smooth="yes"/>
      <point x="556" y="-20"/>
      <point x="632" y="32"/>
      <point x="712" y="118" type="curve"/>
      <point x="648" y="170" type="line"/>
      <point x="660" y="0" type="line"/>
      <point x="886" y="0" type="line"/>
      <point x="886" y="1500" type="line"/>
      <point x="646" y="1500" type="line"/>
      <point x="646" y="834" type="line"/>
      <point x="698" y="886" type="line"/>
      <point x="632" y="962"/>
      <point x="550" y="1016"/>
      <point x="426" y="1016" type="curve" smooth="yes"/>
      <point x="170" y="1016"/>
      <point x="30" y="778"/>
      <point x="30" y="498" type="curve" smooth="yes"/>
      <point x="30" y="218"/>
      <point x="170" y="-20"/>
    </contour>
    <contour>
      <point x="462" y="176" type="curve" smooth="yes"/>
      <point x="342" y="176"/>
      <point x="274" y="308"/>
      <point x="274" y="498" type="curve" smooth="yes"/>
      <point x="274" y="688"/>
      <point x="342" y="820"/>
      <point x="462" y="820" type="curve" smooth="yes"/>
      <point x="598" y="820"/>
      <point x="658" y="688"/>
      <point x="658" y="498" type="curve" smooth="yes"/>
      <point x="658" y="308"/>
      <point x="598" y="176"/>
    </contour>
  </outline>
</glyph>
<glyph name="f" format="2">
  <advance width="586"/>
  <unicode hex="0066"/>
  <outline>
    <contour>
      <point x="144" y="0" type="line"/>
      <point x="384" y="0" type="line"/>
      <point x="384" y="796" type="line"/>
      <point x="556" y="796" type="line"/>
      <point x="556" y="1000" type="line"/>
      <point x="384" y="1000" type="line"/>
      <point x="384" y="1176" type="line" smooth="yes"/>
      <point x="384" y="1246"/>
      <point x="420" y="1292"/>
      <point x="484" y="1292" type="curve" smooth="yes"/>
      <point x="506" y="1292"/>
      <point x="524" y="1288"/>
      <point x="540" y="1282" type="curve"/>
      <point x="558" y="1480" type="line"/>
      <point x="524" y="1492"/>
      <point x="478" y="1500"/>
      <point x="426" y="1500" type="curve" smooth="yes"/>
      <point x="232" y="1500"/>
      <point x="144" y="1378"/>
      <point x="144" y="1212" type="curve" smooth="yes"/>
      <point x="144" y="1000" type="line"/>
      <point x="50" y="1000" type="line"/>
      <point x="32" y="796" type="line"/>
      <point x="144" y="796" type="line"/>
    </contour>
  </outline>
</glyph>
<glyph name="g" format="2">
  <advance width="864"/>
  <unicode hex="0067"/>
  <anchor x="444" y="-484" name="bottom"/>
  <anchor x="432" y="1000" name="top"/>
  <outline>
    <contour>
      <point x="440" y="-500" type="curve" smooth="yes"/>
      <point x="686" y="-500"/>
      <point x="860" y="-376"/>
      <point x="860" y="-186" type="curve" smooth="yes"/>
      <point x="860" y="-22"/>
      <point x="772" y="58"/>
      <point x="582" y="102" type="curve" smooth="yes"/>
      <point x="376" y="150" type="line" smooth="yes"/>
      <point x="332" y="160"/>
      <point x="314" y="174"/>
      <point x="314" y="200" type="curve" smooth="yes"/>
      <point x="314" y="214"/>
      <point x="320" y="224"/>
      <point x="331" y="233" type="curve"/>
      <point x="355" y="229"/>
      <point x="381" y="226"/>
      <point x="408" y="226" type="curve" smooth="yes"/>
      <point x="634" y="226"/>
      <point x="768" y="406"/>
      <point x="768" y="622" type="curve" smooth="yes"/>
      <point x="768" y="706"/>
      <point x="748" y="783"/>
      <point x="712" y="847" type="curve"/>
      <point x="737" y="857"/>
      <point x="762" y="862"/>
      <point x="788" y="862" type="curve" smooth="yes"/>
      <point x="806" y="862"/>
      <point x="818" y="860"/>
      <point x="828" y="858" type="curve"/>
      <point x="846" y="1012" type="line"/>
      <point x="834" y="1014"/>
      <point x="818" y="1016"/>
      <point x="796" y="1016" type="curve" smooth="yes"/>
      <point x="737" y="1016"/>
      <point x="679" y="990"/>
      <point x="629" y="944" type="curve"/>
      <point x="571" y="989"/>
      <point x="497" y="1016"/>
      <point x="408" y="1016" type="curve" smooth="yes"/>
      <point x="182" y="1016"/>
      <point x="48" y="842"/>
      <point x="48" y="622" type="curve" smooth="yes"/>
      <point x="48" y="485"/>
      <point x="102" y="362"/>
      <point x="200" y="291" type="curve"/>
      <point x="141" y="255"/>
      <point x="106" y="210"/>
      <point x="106" y="148" type="curve" smooth="yes"/>
      <point x="106" y="90"/>
      <point x="133" y="43"/>
      <point x="192" y="11" type="curve"/>
      <point x="101" y="-46"/>
      <point x="42" y="-116"/>
      <point x="42" y="-220" type="curve" smooth="yes"/>
      <point x="42" y="-400"/>
      <point x="206" y="-500"/>
    </contour>
    <contour>
      <point x="446" y="-320" type="curve" smooth="yes"/>
      <point x="322" y="-320"/>
      <point x="234" y="-274"/>
      <point x="234" y="-186" type="curve" smooth="yes"/>
      <point x="234" y="-123"/>
      <point x="276" y="-78"/>
      <point x="341" y="-38" type="curve"/>
      <point x="514" y="-80" type="line" smooth="yes"/>
      <point x="612" y="-104"/>
      <point x="652" y="-134"/>
      <point x="652" y="-200" type="curve" smooth="yes"/>
      <point x="652" y="-278"/>
      <point x="566" y="-320"/>
    </contour>
    <contour>
      <point x="408" y="406" type="curve" smooth="yes"/>
      <point x="316" y="406"/>
      <point x="268" y="494"/>
      <point x="268" y="622" type="curve" smooth="yes"/>
      <point x="268" y="746"/>
      <point x="316" y="836"/>
      <point x="408" y="836" type="curve" smooth="yes"/>
      <point x="498" y="836"/>
      <point x="548" y="746"/>
      <point x="548" y="622" type="curve" smooth="yes"/>
      <point x="548" y="494"/>
      <point x="498" y="406"/>
    </contour>
  </outline>
</glyph>
<glyph name="h" format="2">
  <advance width="950"/>
  <unicode hex="0068"/>
  <anchor x="474" y="0" name="bottom"/>
  <anchor x="208" y="1500" name="top"/>
  <outline>
    <contour>
      <point x="88" y="0" type="line"/>
      <point x="328" y="0" type="line"/>
      <point x="328" y="814" type="line"/>
      <point x="290" y="662" type="line"/>
      <point x="330" y="760"/>
      <point x="390" y="820"/>
      <point x="482" y="820" type="curve" smooth="yes"/>
      <point x="578" y="820"/>
      <point x="618" y="744"/>
      <point x="618" y="618" type="curve" smooth="yes"/>
      <point x="618" y="0" type="line"/>
      <point x="858" y="0" type="line"/>
      <point x="858" y="650" type="line" smooth="yes"/>
      <point x="858" y="866"/>
      <point x="756" y="1016"/>
      <point x="550" y="1016" type="curve" smooth="yes"/>
      <point x="414" y="1016"/>
      <point x="328" y="962"/>
      <point x="258" y="868" type="curve"/>
      <point x="328" y="868" type="line"/>
      <point x="328" y="1500" type="line"/>
      <point x="88" y="1500" type="line"/>
    </contour>
  </outline>
</glyph>
<glyph name="i" format="2">
  <advance width="416"/>
  <unicode hex="0069"/>
  <anchor x="208" y="0" name="bottom"/>
  <anchor x="264" y="0" name="ogonek"/>
  <outline>
    <contour>
      <point x="88" y="0" type="line"/>
      <point x="328" y="0" type="line"/>
      <point x="328" y="1000" type="line"/>
      <point x="88" y="1000" type="line"/>
    </contour>
    <contour>
      <point x="88" y="1152" type="line"/>
      <point x="328" y="1152" type="line"/>
      <point x="328" y="1400" type="line"/>
      <point x="88" y="1400" type="line"/>
    </contour>
  </outline>
</glyph>
<glyph name="k" format="2">
  <advance width="844"/>
  <unicode hex="006B"/>
  <anchor x="452" y="0" name="bottom"/>
  <anchor x="204" y="1500" name="top"/>
  <outline>
    <contour>
      <point x="84" y="0" type="line"/>
      <point x="324" y="0" type="line"/>
      <point x="324" y="454" type="line"/>
      <point x="578" y="0" type="line"/>
      <point x="850" y="0" type="line"/>
      <point x="546" y="528" type="line"/>
      <point x="842" y="1000" type="line"/>
      <point x="570" y="1000" type="line"/>
      <point x="324" y="600" type="line"/>
      <point x="324" y="1500" type="line"/>
      <point x="84" y="1500" type="line"/>
    </contour>
  </outline>
</glyph>
<glyph name="l" format="2">
  <advance width="456"/>
  <unicode hex="006C"/>
  <anchor x="272" y="0" name="bottom"/>
  <anchor x="532" y="830" name="center"/>
  <anchor x="212" y="1500" name="top"/>
  <anchor x="412" y="1500" name="topright"/>
  <outline>
    <contour>
      <point x="312" y="-20" type="curve" smooth="yes"/>
      <point x="402" y="-20" type="line"/>
      <point x="422" y="184" type="line"/>
      <point x="346" y="184"/>
      <point x="332" y="216"/>
      <point x="332" y="324" type="curve" smooth="yes"/>
      <point x="332" y="1500" type="line"/>
      <point x="92" y="1500" type="line"/>
      <point x="92" y="242" type="line" smooth="yes"/>
      <point x="92" y="84"/>
      <point x="162" y="-20"/>
    </contour>
  </outline>
</glyph>
<glyph name="m" format="2">
  <advance width="1494"/>
  <unicode hex="006D"/>
  <anchor x="752" y="0" name="bottom"/>
  <anchor x="778" y="987" name="top"/>
  <outline>
    <contour>
      <point x="100" y="0" type="line"/>
      <point x="340" y="0" type="line"/>
      <point x="340" y="814" type="line"/>
      <point x="302" y="662" type="line"/>
      <point x="342" y="760"/>
      <point x="402" y="820"/>
      <point x="494" y="820" type="curve" smooth="yes"/>
      <point x="590" y="820"/>
      <point x="630" y="744"/>
      <point x="630" y="618" type="curve" smooth="yes"/>
      <point x="630" y="0" type="line"/>
      <point x="870" y="0" type="line"/>
      <point x="870" y="650" type="line" smooth="yes"/>
      <point x="870" y="762"/>
      <point x="924" y="820"/>
      <point x="1022" y="820" type="curve" smooth="yes"/>
      <point x="1124" y="820"/>
      <point x="1160" y="742"/>
      <point x="1160" y="618" type="curve" smooth="yes"/>
      <point x="1160" y="0" type="line"/>
      <point x="1400" y="0" type="line"/>
      <point x="1400" y="650" type="line" smooth="yes"/>
      <point x="1400" y="866"/>
      <point x="1292" y="1016"/>
      <point x="1072" y="1016" type="curve" smooth="yes"/>
      <point x="926" y="1016"/>
      <point x="814" y="944"/>
      <point x="758" y="828" type="curve"/>
      <point x="820" y="828" type="line"/>
      <point x="782" y="942"/>
      <point x="686" y="1016"/>
      <point x="548" y="1016" type="curve" smooth="yes"/>
      <point x="422" y="1016"/>
      <point x="336" y="962"/>
      <point x="270" y="868" type="curve"/>
      <point x="320" y="868" type="line"/>
      <point x="304" y="1000" type="line"/>
      <point x="100" y="1000" type="line"/>
    </contour>
  </outline>
</glyph>
<glyph name="n" format="2">
  <advance width="962"/>
  <unicode hex="006E"/>
  <anchor x="490" y="0" name="bottom"/>
  <anchor x="500" y="980" name="top"/>
  <outline>
    <contour>
      <point x="100" y="0" type="line"/>
      <point x="340" y="0" type="line"/>
      <point x="340" y="814" type="line"/>
      <point x="302" y="662" type="line"/>
      <point x="342" y="760"/>
      <point x="402" y="820"/>
      <point x="494" y="820" type="curve" smooth="yes"/>
      <point x="590" y="820"/>
      <point x="630" y="744"/>
      <point x="630" y="618" type="curve" smooth="yes"/>
      <point x="630" y="0" type="line"/>
      <point x="870" y="0" type="line"/>
      <point x="870" y="650" type="line" smooth="yes"/>
      <point x="870" y="866"/>
      <point x="768" y="1016"/>
      <point x="562" y="1016" type="curve" smooth="yes"/>
      <point x="426" y="1016"/>
      <point x="340" y="962"/>
      <point x="270" y="868" type="curve"/>
      <point x="324" y="868" type="line"/>
      <point x="308" y="1000" type="line"/>
      <point x="100" y="1000" type="line"/>
    </contour>
  </outline>
</glyph>
<glyph name="o" format="2">
  <advance width="982"/>
  <unicode hex="006F"/>
  <anchor x="492" y="0" name="bottom"/>
  <anchor x="530" y="0" name="ogonek"/>
  <anchor x="492" y="1000" name="top"/>
  <anchor x="584" y="1000" name="topright"/>
  <outline>
    <contour>
      <point x="490" y="-20" type="curve" smooth="yes"/>
      <point x="770" y="-20"/>
      <point x="934" y="218"/>
      <point x="934" y="498" type="curve" smooth="yes"/>
      <point x="934" y="778"/>
      <point x="770" y="1016"/>
      <point x="490" y="1016" type="curve" smooth="yes"/>
      <point x="210" y="1016"/>
      <point x="48" y="778"/>
      <point x="48" y="498" type="curve" smooth="yes"/>
      <point x="48" y="218"/>
      <point x="210" y="-20"/>
    </contour>
    <contour>
      <point x="490" y="176" type="curve" smooth="yes"/>
      <point x="366" y="176"/>
      <point x="292" y="308"/>
      <point x="292" y="498" type="curve" smooth="yes"/>
      <point x="292" y="688"/>
      <point x="366" y="820"/>
      <point x="490" y="820" type="curve" smooth="yes"/>
      <point x="618" y="820"/>
      <point x="690" y="688"/>
      <point x="690" y="498" type="curve" smooth="yes"/>
      <point x="690" y="308"/>
      <point x="618" y="176"/>
    </contour>
  </outline>
</glyph>
<glyph name="p" format="2">
  <advance width="986"/>
  <unicode hex="0070"/>
  <outline>
    <contour>
      <point x="90" y="-484" type="line"/>
      <point x="330" y="-484" type="line"/>
      <point x="330" y="164" type="line"/>
      <point x="264" y="114" type="line"/>
      <point x="352" y="20"/>
      <point x="424" y="-20"/>
      <point x="560" y="-20" type="curve" smooth="yes"/>
      <point x="812" y="-20"/>
      <point x="946" y="218"/>
      <point x="946" y="498" type="curve" smooth="yes"/>
      <point x="946" y="778"/>
      <point x="812" y="1016"/>
      <point x="560" y="1016" type="curve" smooth="yes"/>
      <point x="428" y="1016"/>
      <point x="342" y="954"/>
      <point x="264" y="860" type="curve"/>
      <point x="330" y="834" type="line"/>
      <point x="282" y="1000" type="line"/>
      <point x="90" y="1000" type="line"/>
    </contour>
    <contour>
      <point x="514" y="176" type="curve" smooth="yes"/>
      <point x="378" y="176"/>
      <point x="318" y="308"/>
      <point x="318" y="498" type="curve" smooth="yes"/>
      <point x="318" y="688"/>
      <point x="378" y="820"/>
      <point x="514" y="820" type="curve" smooth="yes"/>
      <point x="632" y="820"/>
      <point x="702" y="688"/>
      <point x="702" y="498" type="curve" smooth="yes"/>
      <point x="702" y="308"/>
      <point x="632" y="176"/>
    </contour>
  </outline>
</glyph>
<glyph name="q" format="2">
  <advance width="986"/>
  <unicode hex="0071"/>
  <outline>
    <contour>
      <point x="706" y="-484" type="line"/>
      <point x="946" y="-484" type="line"/>
      <point x="946" y="1000" type="line"/>
      <point x="764" y="1000" type="line"/>
      <point x="706" y="834" type="line"/>
      <point x="782" y="860" type="line"/>
      <point x="710" y="954"/>
      <point x="620" y="1016"/>
      <point x="486" y="1016" type="curve" smooth="yes"/>
      <point x="228" y="1016"/>
      <point x="90" y="778"/>
      <point x="90" y="498" type="curve" smooth="yes"/>
      <point x="90" y="218"/>
      <point x="228" y="-20"/>
      <point x="486" y="-20" type="curve" smooth="yes"/>
      <point x="620" y="-20"/>
      <point x="704" y="30"/>
      <point x="780" y="118" type="curve"/>
      <point x="706" y="164" type="line"/>
    </contour>
    <contour>
      <point x="522" y="176" type="curve" smooth="yes"/>
      <point x="402" y="176"/>
      <point x="334" y="308"/>
      <point x="334" y="498" type="curve" smooth="yes"/>
      <point x="334" y="688"/>
      <point x="402" y="820"/>
      <point x="522" y="820" type="curve" smooth="yes"/>
      <point x="658" y="820"/>
      <point x="718" y="688"/>
      <point x="718" y="498" type="curve" smooth="yes"/>
      <point x="718" y="308"/>
      <point x="658" y="176"/>
    </contour>
  </outline>
</glyph>
<glyph name="r" format="2">
  <advance width="574"/>
  <unicode hex="0072"/>
  <anchor x="210" y="0" name="bottom"/>
  <anchor x="352" y="1000" name="top"/>
  <outline>
    <contour>
      <point x="90" y="0" type="line"/>
      <point x="330" y="0" type="line"/>
      <point x="330" y="682" type="line"/>
      <point x="394" y="746"/>
      <point x="440" y="778"/>
      <point x="506" y="778" type="curve" smooth="yes"/>
      <point x="534" y="778"/>
      <point x="552" y="774"/>
      <point x="570" y="768" type="curve"/>
      <point x="588" y="1010" type="line"/>
      <point x="572" y="1014"/>
      <point x="554" y="1016"/>
      <point x="536" y="1016" type="curve" smooth="yes"/>
      <point x="442" y="1016"/>
      <point x="384" y="970"/>
      <point x="316" y="894" type="curve"/>
      <point x="300" y="1000" type="line"/>
      <point x="90" y="1000" type="line"/>
    </contour>
  </outline>
</glyph>
<glyph name="s" format="2">
  <advance width="738"/>
  <unicode hex="0073"/>
  <anchor x="354" y="0" name="bottom"/>
  <anchor x="396" y="1000" name="top"/>
  <outline>
    <contour>
      <point x="344" y="-20" type="curve" smooth="yes"/>
      <point x="554" y="-20"/>
      <point x="694" y="90"/>
      <point x="694" y="274" type="curve" smooth="yes"/>
      <point x="694" y="428"/>
      <point x="618" y="508"/>
      <point x="476" y="580" type="curve" smooth="yes"/>
      <point x="348" y="646"/>
      <point x="290" y="674"/>
      <point x="290" y="742" type="curve" smooth="yes"/>
      <point x="290" y="804"/>
      <point x="342" y="838"/>
      <point x="418" y="838" type="curve" smooth="yes"/>
      <point x="504" y="838"/>
      <point x="572" y="796"/>
      <point x="642" y="736" type="curve"/>
      <point x="664" y="942" type="line"/>
      <point x="592" y="986"/>
      <point x="508" y="1016"/>
      <point x="402" y="1016" type="curve" smooth="yes"/>
      <point x="192" y="1016"/>
      <point x="62" y="896"/>
      <point x="62" y="726" type="curve" smooth="yes"/>
      <point x="62" y="562"/>
      <point x="152" y="494"/>
      <point x="304" y="420" type="curve" smooth="yes"/>
      <point x="428" y="360"/>
      <point x="466" y="328"/>
      <point x="466" y="264" type="curve" smooth="yes"/>
      <point x="466" y="202"/>
      <point x="416" y="166"/>
      <point x="326" y="166" type="curve" smooth="yes"/>
      <point x="246" y="166"/>
      <point x="162" y="206"/>
      <point x="80" y="262" type="curve"/>
      <point x="58" y="50" type="line"/>
      <point x="148" y="4"/>
      <point x="232" y="-20"/>
    </contour>
  </outline>
</glyph>
<glyph name="u" format="2">
  <advance width="936"/>
  <unicode hex="0075"/>
  <anchor x="468" y="0" name="bottom"/>
  <anchor x="798" y="0" name="ogonek"/>
  <anchor x="478" y="1000" name="top"/>
  <anchor x="682" y="1000" name="topright"/>
  <outline>
    <contour>
      <point x="400" y="-16" type="curve" smooth="yes"/>
      <point x="536" y="-16"/>
      <point x="622" y="38"/>
      <point x="692" y="132" type="curve"/>
      <point x="638" y="132" type="line"/>
      <point x="654" y="0" type="line"/>
      <point x="862" y="0" type="line"/>
      <point x="862" y="1000" type="line"/>
      <point x="622" y="1000" type="line"/>
      <point x="622" y="186" type="line"/>
      <point x="660" y="338" type="line"/>
      <point x="620" y="240"/>
      <point x="560" y="180"/>
      <point x="468" y="180" type="curve" smooth="yes"/>
      <point x="372" y="180"/>
      <point x="332" y="256"/>
      <point x="332" y="382" type="curve" smooth="yes"/>
      <point x="332" y="1000" type="line"/>
      <point x="92" y="1000" type="line"/>
      <point x="92" y="350" type="line" smooth="yes"/>
      <point x="92" y="134"/>
      <point x="194" y="-16"/>
    </contour>
  </outline>
</glyph>
<glyph name="v" format="2">
  <advance width="892"/>
  <unicode hex="0076"/>
  <outline>
    <contour>
      <point x="342" y="0" type="line"/>
      <point x="550" y="0" type="line"/>
      <point x="888" y="1000" type="line"/>
      <point x="638" y="1000" type="line"/>
      <point x="446" y="320" type="line"/>
      <point x="254" y="1000" type="line"/>
      <point x="4" y="1000" type="line"/>
    </contour>
  </outline>
</glyph>
<glyph name="w" format="2">
  <advance width="1258"/>
  <unicode hex="0077"/>
  <anchor x="630" y="0" name="bottom"/>
  <anchor x="630" y="1000" name="top"/>
  <outline>
    <contour>
      <point x="284" y="0" type="line"/>
      <point x="490" y="0" type="line"/>
      <point x="630" y="644" type="line"/>
      <point x="770" y="0" type="line"/>
      <point x="976" y="0" type="line"/>
      <point x="1254" y="1000" type="line"/>
      <point x="1012" y="1000" type="line"/>
      <point x="874" y="320" type="line"/>
      <point x="730" y="980" type="line"/>
      <point x="530" y="980" type="line"/>
      <point x="392" y="320" type="line"/>
      <point x="246" y="1000" type="line"/>
      <point x="4" y="1000" type="line"/>
    </contour>
  </outline>
</glyph>
<glyph name="x" format="2">
  <advance width="848"/>
  <unicode hex="0078"/>
  <outline>
    <contour>
      <point x="10" y="0" type="line"/>
      <point x="276" y="0" type="line"/>
      <point x="414" y="294" type="line"/>
      <point x="570" y="0" type="line"/>
      <point x="836" y="0" type="line"/>
      <point x="548" y="500" type="line"/>
      <point x="840" y="1000" type="line"/>
      <point x="578" y="1000" type="line"/>
      <point x="430" y="706" type="line"/>
      <point x="274" y="1000" type="line"/>
      <point x="8" y="1000" type="line"/>
      <point x="292" y="500" type="line"/>
    </contour>
  </outline>
</glyph>
<glyph name="y" format="2">
  <advance width="958"/>
  <unicode hex="0079"/>
  <anchor x="702" y="0" name="bottom"/>
  <anchor x="482" y="1000" name="top"/>
  <outline>
    <contour>
      <point x="150" y="-484" type="line"/>
      <point x="394" y="-484" type="line"/>
      <point x="940" y="1000" type="line"/>
      <point x="690" y="1000" type="line"/>
      <point x="478" y="320" type="line"/>
      <point x="266" y="1000" type="line"/>
      <point x="16" y="1000" type="line"/>
      <point x="358" y="46" type="line"/>
    </contour>
  </outline>
</glyph>
<glyph name="z" format="2">
  <advance width="802"/>
  <unicode hex="007A"/>
  <anchor x="398" y="0" name="bottom"/>
  <anchor x="418" y="1000" name="top"/>
  <outline>
    <contour>
      <point x="36" y="0" type="line"/>
      <point x="760" y="0" type="line"/>
      <point x="760" y="202" type="line"/>
      <point x="330" y="202" type="line"/>
      <point x="340" y="120" type="line"/>
      <point x="772" y="1000" type="line"/>
      <point x="62" y="1000" type="line"/>
      <point x="62" y="798" type="line"/>
      <point x="468" y="798" type="line"/>
      <point x="468" y="880" type="line"/>
    </contour>
  </outline>
</glyph>
<glyph name="braceleft" format="2">
  <advance width="574"/>
  <unicode hex="007B"/>
  <outline>
    <contour>
      <point x="508" y="-272" type="curve" smooth="yes"/>
      <point x="562" y="-272" type="line"/>
      <point x="562" y="-74" type="line"/>
      <point x="528" y="-74" type="line" smooth="yes"/>
      <point x="428" y="-74"/>
      <point x="370" y="-26"/>
      <point x="370" y="108" type="curve" smooth="yes"/>
      <point x="370" y="190"/>
      <point x="386" y="300"/>
      <point x="386" y="380" type="curve" smooth="yes"/>
      <point x="386" y="540"/>
      <point x="298" y="608"/>
      <point x="162" y="642" type="curve"/>
      <point x="162" y="586" type="line"/>
      <point x="298" y="622"/>
      <point x="386" y="688"/>
      <point x="386" y="848" type="curve" smooth="yes"/>
      <point x="386" y="928"/>
      <point x="370" y="1038"/>
      <point x="370" y="1120" type="curve" smooth="yes"/>
      <point x="370" y="1254"/>
      <point x="428" y="1302"/>
      <point x="528" y="1302" type="curve" smooth="yes"/>
      <point x="562" y="1302" type="line"/>
      <point x="562" y="1500" type="line"/>
      <point x="508" y="1500" type="line" smooth="yes"/>
      <point x="276" y="1500"/>
      <point x="180" y="1368"/>
      <point x="180" y="1180" type="curve" smooth="yes"/>
      <point x="180" y="1102"/>
      <point x="196" y="994"/>
      <point x="196" y="908" type="curve" smooth="yes"/>
      <point x="196" y="764"/>
      <point x="156" y="694"/>
      <point x="24" y="694" type="curve"/>
      <point x="24" y="534" type="line"/>
      <point x="156" y="534"/>
      <point x="196" y="464"/>
      <point x="196" y="320" type="curve" smooth="yes"/>
      <point x="196" y="234"/>
      <point x="180" y="126"/>
      <point x="180" y="48" type="curve" smooth="yes"/>
      <point x="180" y="-140"/>
      <point x="276" y="-272"/>
    </contour>
  </outline>
</glyph>
<glyph name="braceright" format="2">
  <advance width="574"/>
  <unicode hex="007D"/>
  <outline>
    <contour>
      <point x="12" y="-272" type="line"/>
      <point x="66" y="-272" type="line" smooth="yes"/>
      <point x="298" y="-272"/>
      <point x="394" y="-140"/>
      <point x="394" y="48" type="curve" smooth="yes"/>
      <point x="394" y="126"/>
      <point x="378" y="234"/>
      <point x="378" y="320" type="curve" smooth="yes"/>
      <point x="378" y="464"/>
      <point x="418" y="534"/>
      <point x="550" y="534" type="curve"/>
      <point x="550" y="694" type="line"/>
      <point x="418" y="694"/>
      <point x="378" y="764"/>
      <point x="378" y="908" type="curve" smooth="yes"/>
      <point x="378" y="994"/>
      <point x="394" y="1102"/>
      <point x="394" y="1180" type="curve" smooth="yes"/>
      <point x="394" y="1368"/>
      <point x="298" y="1500"/>
      <point x="66" y="1500" type="curve" smooth="yes"/>
      <point x="12" y="1500" type="line"/>
      <point x="12" y="1302" type="line"/>
      <point x="46" y="1302" type="line" smooth="yes"/>
      <point x="146" y="1302"/>
      <point x="204" y="1254"/>
      <point x="204" y="1120" type="curve" smooth="yes"/>
      <point x="204" y="1038"/>
      <point x="188" y="928"/>
      <point x="188" y="848" type="curve" smooth="yes"/>
      <point x="188" y="688"/>
      <point x="276" y="622"/>
      <point x="412" y="586" type="curve"/>
      <point x="412" y="642" type="line"/>
      <point x="276" y="608"/>
      <point x="188" y="540"/>
      <point x="188" y="380" type="curve" smooth="yes"/>
      <point x="188" y="300"/>
      <point x="204" y="190"/>
      <point x="204" y="108" type="curve" smooth="yes"/>
      <point x="204" y="-26"/>
      <point x="146" y="-74"/>
      <point x="46" y="-74" type="curve" smooth="yes"/>
      <point x="12" y="-74" type="line"/>
    </contour>
  </outline>
</glyph>
<glyph name="asciitilde" format="2">
  <advance width="842"/>
  <unicode hex="007E"/>
  <outline>
    <contour>
      <point x="584" y="582" type="curve" smooth="yes"/>
      <point x="704" y="582"/>
      <point x="772" y="674"/>
      <point x="778" y="844" type="curve"/>
      <point x="612" y="844" type="line"/>
      <point x="612" y="792"/>
      <point x="586" y="762"/>
      <point x="544" y="762" type="curve" smooth="yes"/>
      <point x="446" y="762"/>
      <point x="384" y="854"/>
      <point x="268" y="854" type="curve" smooth="yes"/>
      <point x="140" y="854"/>
      <point x="70" y="762"/>
      <point x="64" y="592" type="curve"/>
      <point x="230" y="592" type="line"/>
      <point x="230" y="644"/>
      <point x="256" y="674"/>
      <point x="298" y="674" type="curve" smooth="yes"/>
      <point x="396" y="674"/>
      <point x="468" y="582"/>
    </contour>
  </outline>
</glyph>
<glyph name="cent" format="2">
  <advance width="770"/>
  <unicode hex="00A2"/>
  <outline>
    <contour>
      <point x="520" y="-20" type="curve" smooth="yes"/>
      <point x="598" y="-20"/>
      <point x="674" y="-4"/>
      <point x="724" y="20" type="curve"/>
      <point x="708" y="212" type="line"/>
      <point x="660" y="188"/>
      <point x="612" y="176"/>
      <point x="554" y="176" type="curve" smooth="yes"/>
      <point x="384" y="176"/>
      <point x="292" y="316"/>
      <point x="292" y="498" type="curve" smooth="yes"/>
      <point x="292" y="688"/>
      <point x="388" y="820"/>
      <point x="556" y="820" type="curve" smooth="yes"/>
      <point x="612" y="820"/>
      <point x="660" y="806"/>
      <point x="702" y="786" type="curve"/>
      <point x="720" y="982" type="line"/>
      <point x="674" y="1002"/>
      <point x="608" y="1016"/>
      <point x="528" y="1016" type="curve" smooth="yes"/>
      <point x="206" y="1016"/>
      <point x="48" y="782"/>
      <point x="48" y="498" type="curve" smooth="yes"/>
      <point x="48" y="214"/>
      <point x="210" y="-20"/>
    </contour>
    <contour>
      <point x="372" y="-288" type="line"/>
      <point x="568" y="-288" type="line"/>
      <point x="548" y="68" type="line"/>
      <point x="392" y="68" type="line"/>
    </contour>
    <contour>
      <point x="392" y="936" type="line"/>
      <point x="548" y="936" type="line"/>
      <point x="568" y="1278" type="line"/>
      <point x="372" y="1278" type="line"/>
    </contour>
  </outline>
</glyph>
<glyph name="currency" format="2">
  <advance width="1376"/>
  <unicode hex="00A4"/>
  <outline>
    <contour>
      <point x="688" y="1214" type="curve" smooth="yes"/>
      <point x="392" y="1214"/>
      <point x="192" y="994"/>
      <point x="192" y="696" type="curve" smooth="yes"/>
      <point x="192" y="402"/>
      <point x="386" y="178"/>
      <point x="688" y="178" type="curve" smooth="yes"/>
      <point x="984" y="178"/>
      <point x="1184" y="400"/>
      <point x="1184" y="696" type="curve" smooth="yes"/>
      <point x="1184" y="996"/>
      <point x="978" y="1214"/>
    </contour>
    <contour>
      <point x="688" y="990" type="curve" smooth="yes"/>
      <point x="842" y="990"/>
      <point x="930" y="870"/>
      <point x="930" y="696" type="curve" smooth="yes"/>
      <point x="930" y="522"/>
      <point x="842" y="402"/>
      <point x="688" y="402" type="curve" smooth="yes"/>
      <point x="534" y="402"/>
      <point x="446" y="522"/>
      <point x="446" y="696" type="curve" smooth="yes"/>
      <point x="446" y="870"/>
      <point x="534" y="990"/>
    </contour>
    <contour>
      <point x="198" y="1340" type="line"/>
      <point x="84" y="1228" type="line"/>
      <point x="380" y="930" type="line"/>
      <point x="490" y="1046" type="line"/>
    </contour>
    <contour>
      <point x="378" y="460" type="line"/>
      <point x="84" y="164" type="line"/>
      <point x="198" y="52" type="line"/>
      <point x="490" y="346" type="line"/>
    </contour>
    <contour>
      <point x="992" y="464" type="line"/>
      <point x="878" y="354" type="line"/>
      <point x="1178" y="52" type="line"/>
      <point x="1292" y="164" type="line"/>
    </contour>
    <contour>
      <point x="1178" y="1340" type="line"/>
      <point x="890" y="1052" type="line"/>
      <point x="1004" y="938" type="line"/>
      <point x="1292" y="1228" type="line"/>
    </contour>
  </outline>
</glyph>
<glyph name="yen" format="2">
  <advance width="1050"/>
  <unicode hex="00A5"/>
  <outline>
    <contour>
      <point x="404" y="0" type="line"/>
      <point x="646" y="0" type="line"/>
      <point x="646" y="620" type="line"/>
      <point x="1066" y="1400" type="line"/>
      <point x="806" y="1400" type="line"/>
      <point x="476" y="746" type="line"/>
      <point x="578" y="746" type="line"/>
      <point x="244" y="1400" type="line"/>
      <point x="-16" y="1400" type="line"/>
      <point x="404" y="620" type="line"/>
    </contour>
    <contour>
      <point x="136" y="248" type="line"/>
      <point x="916" y="248" type="line"/>
      <point x="916" y="422" type="line"/>
      <point x="136" y="422" type="line"/>
    </contour>
    <contour>
      <point x="136" y="530" type="line"/>
      <point x="916" y="530" type="line"/>
      <point x="916" y="704" type="line"/>
      <point x="136" y="704" type="line"/>
    </contour>
  </outline>
</glyph>
<glyph name="copyright" format="2">
  <advance width="1204"/>
  <unicode hex="00A9"/>
  <outline>
    <contour>
      <point x="602" y="74" type="curve" smooth="yes"/>
      <point x="912" y="74"/>
      <point x="1136" y="336"/>
      <point x="1136" y="730" type="curve" smooth="yes"/>
      <point x="1136" y="1126"/>
      <point x="912" y="1386"/>
      <point x="602" y="1386" type="curve" smooth="yes"/>
      <point x="294" y="1386"/>
      <point x="68" y="1126"/>
      <point x="68" y="730" type="curve" smooth="yes"/>
      <point x="68" y="336"/>
      <point x="294" y="74"/>
    </contour>
    <contour>
      <point x="616" y="380" type="curve" smooth="yes"/>
      <point x="680" y="380"/>
      <point x="750" y="398"/>
      <point x="800" y="430" type="curve"/>
      <point x="780" y="598" type="line"/>
      <point x="724" y="568"/>
      <point x="676" y="548"/>
      <point x="616" y="548" type="curve" smooth="yes"/>
      <point x="546" y="548"/>
      <point x="504" y="620"/>
      <point x="504" y="726" type="curve" smooth="yes"/>
      <point x="504" y="836"/>
      <point x="546" y="904"/>
      <point x="616" y="904" type="curve" smooth="yes"/>
      <point x="676" y="904"/>
      <point x="724" y="884"/>
      <point x="780" y="858" type="curve"/>
      <point x="800" y="1028" type="line"/>
      <point x="750" y="1054"/>
      <point x="682" y="1074"/>
      <point x="616" y="1074" type="curve" smooth="yes"/>
      <point x="448" y="1074"/>
      <point x="330" y="936"/>
      <point x="330" y="726" type="curve" smooth="yes"/>
      <point x="330" y="518"/>
      <point x="450" y="380"/>
    </contour>
    <contour>
      <point x="602" y="212" type="curve" smooth="yes"/>
      <point x="346" y="212"/>
      <point x="220" y="434"/>
      <point x="220" y="730" type="curve" smooth="yes"/>
      <point x="220" y="1026"/>
      <point x="346" y="1246"/>
      <point x="602" y="1246" type="curve" smooth="yes"/>
      <point x="858" y="1246"/>
      <point x="986" y="1026"/>
      <point x="986" y="730" type="curve" smooth="yes"/>
      <point x="986" y="434"/>
      <point x="858" y="212"/>
    </contour>
  </outline>
</glyph>
<glyph name="ordfeminine" format="2">
  <advance width="622"/>
  <unicode hex="00AA"/>
  <outline>
    <contour>
      <point x="208" y="868" type="curve" smooth="yes"/>
      <point x="268" y="868"/>
      <point x="308" y="890"/>
      <point x="342" y="932" type="curve"/>
      <point x="366" y="896"/>
      <point x="406" y="868"/>
      <point x="472" y="868" type="curve" smooth="yes"/>
      <point x="560" y="868" type="line"/>
      <point x="570" y="1038" type="line"/>
      <point x="548" y="1038" type="line" smooth="yes"/>
      <point x="528" y="1038"/>
      <point x="518" y="1052"/>
      <point x="518" y="1086" type="curve" smooth="yes"/>
      <point x="518" y="1256" type="line" smooth="yes"/>
      <point x="518" y="1392"/>
      <point x="436" y="1464"/>
      <point x="304" y="1464" type="curve" smooth="yes"/>
      <point x="238" y="1464"/>
      <point x="168" y="1452"/>
      <point x="94" y="1426" type="curve"/>
      <point x="102" y="1264" type="line"/>
      <point x="154" y="1282"/>
      <point x="210" y="1294"/>
      <point x="260" y="1294" type="curve" smooth="yes"/>
      <point x="306" y="1294"/>
      <point x="318" y="1276"/>
      <point x="318" y="1252" type="curve"/>
      <point x="178" y="1232"/>
      <point x="52" y="1172"/>
      <point x="52" y="1026" type="curve" smooth="yes"/>
      <point x="52" y="920"/>
      <point x="128" y="868"/>
    </contour>
    <contour>
      <point x="288" y="1016" type="curve" smooth="yes"/>
      <point x="270" y="1016"/>
      <point x="262" y="1030"/>
      <point x="262" y="1054" type="curve" smooth="yes"/>
      <point x="262" y="1092"/>
      <point x="288" y="1118"/>
      <point x="320" y="1126" type="curve"/>
      <point x="320" y="1032" type="line"/>
      <point x="312" y="1022"/>
      <point x="300" y="1016"/>
    </contour>
  </outline>
</glyph>
<glyph name="logicalnot" format="2">
  <advance width="940"/>
  <unicode hex="00AC"/>
  <outline>
    <contour>
      <point x="664" y="302" type="line"/>
      <point x="860" y="302" type="line"/>
      <point x="860" y="812" type="line"/>
      <point x="80" y="812" type="line"/>
      <point x="80" y="632" type="line"/>
      <point x="664" y="632" type="line"/>
    </contour>
  </outline>
</glyph>
<glyph name="softhyphen" format="2">
  <advance width="742"/>
  <unicode hex="00AD"/>
  <outline>
    <contour>
      <point x="104" y="528" type="line"/>
      <point x="638" y="528" type="line"/>
      <point x="638" y="716" type="line"/>
      <point x="104" y="716" type="line"/>
    </contour>
  </outline>
</glyph>
<glyph name="registered" format="2">
  <advance width="1204"/>
  <unicode hex="00AE"/>
  <outline>
    <contour>
      <point x="602" y="74" type="curve" smooth="yes"/>
      <point x="912" y="74"/>
      <point x="1136" y="336"/>
      <point x="1136" y="730" type="curve" smooth="yes"/>
      <point x="1136" y="1126"/>
      <point x="912" y="1386"/>
      <point x="602" y="1386" type="curve" smooth="yes"/>
      <point x="294" y="1386"/>
      <point x="68" y="1126"/>
      <point x="68" y="730" type="curve" smooth="yes"/>
      <point x="68" y="336"/>
      <point x="294" y="74"/>
    </contour>
    <contour>
      <point x="602" y="214" type="curve" smooth="yes"/>
      <point x="348" y="214"/>
      <point x="222" y="436"/>
      <point x="222" y="730" type="curve" smooth="yes"/>
      <point x="222" y="1026"/>
      <point x="348" y="1244"/>
      <point x="602" y="1244" type="curve" smooth="yes"/>
      <point x="858" y="1244"/>
      <point x="982" y="1026"/>
      <point x="982" y="730" type="curve" smooth="yes"/>
      <point x="982" y="436"/>
      <point x="858" y="214"/>
    </contour>
    <contour>
      <point x="378" y="406" type="line"/>
      <point x="550" y="406" type="line"/>
      <point x="550" y="630" type="line"/>
      <point x="582" y="630" type="line"/>
      <point x="686" y="406" type="line"/>
      <point x="870" y="406" type="line"/>
      <point x="740" y="682" type="line"/>
      <point x="774" y="712"/>
      <point x="816" y="778"/>
      <point x="816" y="856" type="curve" smooth="yes"/>
      <point x="816" y="1026"/>
      <point x="724" y="1076"/>
      <point x="604" y="1076" type="curve" smooth="yes"/>
      <point x="378" y="1076" type="line"/>
    </contour>
    <contour>
      <point x="550" y="792" type="line"/>
      <point x="550" y="926" type="line"/>
      <point x="582" y="926" type="line" smooth="yes"/>
      <point x="640" y="926"/>
      <point x="642" y="900"/>
      <point x="642" y="860" type="curve" smooth="yes"/>
      <point x="642" y="822"/>
      <point x="636" y="792"/>
      <point x="578" y="792" type="curve" smooth="yes"/>
    </contour>
  </outline>
</glyph>
<glyph name="degree" format="2">
  <advance width="514"/>
  <unicode hex="00B0"/>
  <outline>
    <contour>
      <point x="256" y="964" type="curve" smooth="yes"/>
      <point x="412" y="964"/>
      <point x="502" y="1088"/>
      <point x="502" y="1236" type="curve" smooth="yes"/>
      <point x="502" y="1384"/>
      <point x="412" y="1510"/>
      <point x="256" y="1510" type="curve" smooth="yes"/>
      <point x="100" y="1510"/>
      <point x="12" y="1384"/>
      <point x="12" y="1236" type="curve" smooth="yes"/>
      <point x="12" y="1088"/>
      <point x="100" y="964"/>
    </contour>
    <contour>
      <point x="256" y="1086" type="curve" smooth="yes"/>
      <point x="184" y="1086"/>
      <point x="148" y="1146"/>
      <point x="148" y="1236" type="curve" smooth="yes"/>
      <point x="148" y="1326"/>
      <point x="184" y="1388"/>
      <point x="256" y="1388" type="curve" smooth="yes"/>
      <point x="328" y="1388"/>
      <point x="364" y="1326"/>
      <point x="364" y="1236" type="curve" smooth="yes"/>
      <point x="364" y="1146"/>
      <point x="328" y="1086"/>
    </contour>
  </outline>
</glyph>
<glyph name="plusminus" format="2">
  <advance width="820"/>
  <unicode hex="00B1"/>
  <outline>
    <contour>
      <point x="316" y="378" type="line"/>
      <point x="504" y="378" type="line"/>
      <point x="504" y="634" type="line"/>
      <point x="748" y="634" type="line"/>
      <point x="748" y="814" type="line"/>
      <point x="504" y="814" type="line"/>
      <point x="504" y="1070" type="line"/>
      <point x="316" y="1070" type="line"/>
      <point x="316" y="814" type="line"/>
      <point x="72" y="814" type="line"/>
      <point x="72" y="634" type="line"/>
      <point x="316" y="634" type="line"/>
    </contour>
    <contour>
      <point x="72" y="94" type="line"/>
      <point x="748" y="94" type="line"/>
      <point x="748" y="282" type="line"/>
      <point x="72" y="282" type="line"/>
    </contour>
  </outline>
</glyph>
<glyph name="micro" format="2">
  <advance width="982"/>
  <unicode hex="00B5"/>
  <outline>
    <contour>
      <point x="88" y="-484" type="line"/>
      <point x="328" y="-484" type="line"/>
      <point x="328" y="22" type="line"/>
      <point x="364" y="-2"/>
      <point x="410" y="-16"/>
      <point x="460" y="-16" type="curve" smooth="yes"/>
      <point x="548" y="-16"/>
      <point x="614" y="30"/>
      <point x="658" y="84" type="curve"/>
      <point x="696" y="20"/>
      <point x="764" y="-20"/>
      <point x="866" y="-20" type="curve" smooth="yes"/>
      <point x="930" y="-20" type="line"/>
      <point x="946" y="184" type="line"/>
      <point x="934" y="184" type="line" smooth="yes"/>
      <point x="882" y="184"/>
      <point x="858" y="206"/>
      <point x="858" y="272" type="curve" smooth="yes"/>
      <point x="858" y="1000" type="line"/>
      <point x="618" y="1000" type="line"/>
      <point x="618" y="272" type="line"/>
      <point x="584" y="218"/>
      <point x="540" y="188"/>
      <point x="478" y="188" type="curve" smooth="yes"/>
      <point x="372" y="188"/>
      <point x="328" y="258"/>
      <point x="328" y="402" type="curve" smooth="yes"/>
      <point x="328" y="1000" type="line"/>
      <point x="88" y="1000" type="line"/>
    </contour>
  </outline>
</glyph>
<glyph name="paragraph" format="2">
  <advance width="1076"/>
  <unicode hex="00B6"/>
  <outline>
    <contour>
      <point x="484" y="0" type="line"/>
      <point x="624" y="0" type="line"/>
      <point x="624" y="1186" type="line"/>
      <point x="702" y="1186" type="line"/>
      <point x="702" y="0" type="line"/>
      <point x="882" y="0" type="line"/>
      <point x="882" y="1186" type="line"/>
      <point x="996" y="1186" type="line"/>
      <point x="996" y="1400" type="line"/>
      <point x="548" y="1400" type="line" smooth="yes"/>
      <point x="220" y="1400"/>
      <point x="56" y="1166"/>
      <point x="56" y="932" type="curve" smooth="yes"/>
      <point x="56" y="706"/>
      <point x="208" y="478"/>
      <point x="484" y="458" type="curve"/>
    </contour>
  </outline>
</glyph>
<glyph name="ordmasculine" format="2">
  <advance width="666"/>
  <unicode hex="00BA"/>
  <outline>
    <contour>
      <point x="334" y="868" type="curve" smooth="yes"/>
      <point x="514" y="868"/>
      <point x="614" y="1012"/>
      <point x="614" y="1166" type="curve" smooth="yes"/>
      <point x="614" y="1320"/>
      <point x="514" y="1464"/>
      <point x="334" y="1464" type="curve" smooth="yes"/>
      <point x="156" y="1464"/>
      <point x="52" y="1320"/>
      <point x="52" y="1166" type="curve" smooth="yes"/>
      <point x="52" y="1012"/>
      <point x="156" y="868"/>
    </contour>
    <contour>
      <point x="334" y="1022" type="curve" smooth="yes"/>
      <point x="286" y="1022"/>
      <point x="254" y="1092"/>
      <point x="254" y="1166" type="curve" smooth="yes"/>
      <point x="254" y="1240"/>
      <point x="286" y="1310"/>
      <point x="334" y="1310" type="curve" smooth="yes"/>
      <point x="382" y="1310"/>
      <point x="412" y="1240"/>
      <point x="412" y="1166" type="curve" smooth="yes"/>
      <point x="412" y="1092"/>
      <point x="382" y="1022"/>
    </contour>
  </outline>
</glyph>
<glyph name="AE" format="2">
  <advance width="1566"/>
  <unicode hex="00C6"/>
  <anchor x="784" y="0" name="bottom"/>
  <anchor x="1030" y="1400" name="top"/>
  <outline>
    <contour>
      <point x="-16" y="0" type="line"/>
      <point x="240" y="0" type="line"/>
      <point x="704" y="1146" type="line"/>
      <point x="704" y="0" type="line"/>
      <point x="1508" y="0" type="line"/>
      <point x="1508" y="224" type="line"/>
      <point x="948" y="224" type="line"/>
      <point x="948" y="622" type="line"/>
      <point x="1366" y="622" type="line"/>
      <point x="1366" y="846" type="line"/>
      <point x="948" y="846" type="line"/>
      <point x="948" y="1176" type="line"/>
      <point x="1490" y="1176" type="line"/>
      <point x="1490" y="1400" type="line"/>
      <point x="570" y="1400" type="line"/>
    </contour>
    <contour>
      <point x="320" y="352" type="line"/>
      <point x="812" y="352" type="line"/>
      <point x="812" y="576" type="line"/>
      <point x="320" y="576" type="line"/>
    </contour>
  </outline>
</glyph>
<glyph name="Eth" format="2">
  <advance width="1250"/>
  <unicode hex="00D0"/>
  <outline>
    <contour>
      <point x="144" y="0" type="line"/>
      <point x="596" y="0" type="line" smooth="yes"/>
      <point x="938" y="0"/>
      <point x="1188" y="260"/>
      <point x="1188" y="700" type="curve" smooth="yes"/>
      <point x="1188" y="1140"/>
      <point x="938" y="1400"/>
      <point x="596" y="1400" type="curve" smooth="yes"/>
      <point x="144" y="1400" type="line"/>
      <point x="144" y="806" type="line"/>
      <point x="28" y="806" type="line"/>
      <point x="28" y="598" type="line"/>
      <point x="144" y="598" type="line"/>
    </contour>
    <contour>
      <point x="388" y="224" type="line"/>
      <point x="388" y="598" type="line"/>
      <point x="604" y="598" type="line"/>
      <point x="604" y="806" type="line"/>
      <point x="388" y="806" type="line"/>
      <point x="388" y="1176" type="line"/>
      <point x="596" y="1176" type="line" smooth="yes"/>
      <point x="812" y="1176"/>
      <point x="920" y="994"/>
      <point x="920" y="700" type="curve" smooth="yes"/>
      <point x="920" y="406"/>
      <point x="812" y="224"/>
      <point x="596" y="224" type="curve" smooth="yes"/>
    </contour>
  </outline>
</glyph>
<glyph name="multiply" format="2">
  <advance width="770"/>
  <unicode hex="00D7"/>
  <guideline x="169" y="462" angle="0"/>
  <guideline x="333" y="92" angle="0"/>
  <outline>
    <contour>
      <point x="180" y="184" type="line"/>
      <point x="726" y="804" type="line"/>
      <point x="594" y="924" type="line"/>
      <point x="48" y="304" type="line"/>
    </contour>
    <contour>
      <point x="590" y="184" type="line"/>
      <point x="722" y="304" type="line"/>
      <point x="176" y="924" type="line"/>
      <point x="44" y="804" type="line"/>
    </contour>
  </outline>
</glyph>
<glyph name="Oslash" format="2">
  <advance width="1308"/>
  <unicode hex="00D8"/>
  <guideline x="30" y="350" angle="90"/>
  <guideline x="624" y="350" angle="90"/>
  <anchor x="658" y="1400" name="top"/>
  <outline>
    <contour>
      <point x="92" y="-88" type="line"/>
      <point x="282" y="-88" type="line"/>
      <point x="1216" y="1488" type="line"/>
      <point x="1026" y="1488" type="line"/>
    </contour>
    <component base="O"/>
  </outline>
</glyph>
<glyph name="Thorn" format="2">
  <advance width="1060"/>
  <unicode hex="00DE"/>
  <outline>
    <contour>
      <point x="120" y="0" type="line"/>
      <point x="364" y="0" type="line"/>
      <point x="364" y="330" type="line"/>
      <point x="572" y="330" type="line" smooth="yes"/>
      <point x="868" y="330"/>
      <point x="1020" y="470"/>
      <point x="1020" y="720" type="curve" smooth="yes"/>
      <point x="1020" y="970"/>
      <point x="868" y="1110"/>
      <point x="572" y="1110" type="curve" smooth="yes"/>
      <point x="364" y="1110" type="line"/>
      <point x="364" y="1400" type="line"/>
      <point x="120" y="1400" type="line"/>
    </contour>
    <contour>
      <point x="364" y="530" type="line"/>
      <point x="364" y="910" type="line"/>
      <point x="542" y="910" type="line" smooth="yes"/>
      <point x="720" y="910"/>
      <point x="776" y="854"/>
      <point x="776" y="720" type="curve" smooth="yes"/>
      <point x="776" y="602"/>
      <point x="720" y="530"/>
      <point x="542" y="530" type="curve" smooth="yes"/>
    </contour>
  </outline>
</glyph>
<glyph name="germandbls" format="2">
  <advance width="1110"/>
  <unicode hex="00DF"/>
  <outline>
    <contour>
      <point x="658" y="-28" type="curve" smooth="yes"/>
      <point x="882" y="-28"/>
      <point x="1090" y="88"/>
      <point x="1090" y="338" type="curve" smooth="yes"/>
      <point x="1090" y="626"/>
      <point x="758" y="674"/>
      <point x="758" y="796" type="curve" smooth="yes"/>
      <point x="758" y="852"/>
      <point x="796" y="884"/>
      <point x="886" y="974" type="curve" smooth="yes"/>
      <point x="962" y="1050"/>
      <point x="990" y="1104"/>
      <point x="990" y="1206" type="curve" smooth="yes"/>
      <point x="990" y="1400"/>
      <point x="836" y="1528"/>
      <point x="604" y="1528" type="curve" smooth="yes"/>
      <point x="314" y="1528"/>
      <point x="144" y="1356"/>
      <point x="144" y="1060" type="curve" smooth="yes"/>
      <point x="144" y="1000" type="line"/>
      <point x="54" y="1000" type="line"/>
      <point x="32" y="796" type="line"/>
      <point x="144" y="796" type="line"/>
      <point x="144" y="0" type="line"/>
      <point x="382" y="0" type="line"/>
      <point x="382" y="1064" type="line" smooth="yes"/>
      <point x="382" y="1230"/>
      <point x="466" y="1332"/>
      <point x="594" y="1332" type="curve" smooth="yes"/>
      <point x="696" y="1332"/>
      <point x="750" y="1278"/>
      <point x="750" y="1190" type="curve" smooth="yes"/>
      <point x="750" y="1120"/>
      <point x="716" y="1082"/>
      <point x="640" y="1000" type="curve" smooth="yes"/>
      <point x="564" y="920"/>
      <point x="514" y="856"/>
      <point x="514" y="772" type="curve" smooth="yes"/>
      <point x="514" y="542"/>
      <point x="846" y="548"/>
      <point x="846" y="334" type="curve" smooth="yes"/>
      <point x="846" y="228"/>
      <point x="774" y="168"/>
      <point x="660" y="168" type="curve" smooth="yes"/>
      <point x="598" y="168"/>
      <point x="540" y="174"/>
      <point x="480" y="186" type="curve"/>
      <point x="480" y="-10" type="line"/>
      <point x="542" y="-22"/>
      <point x="596" y="-28"/>
    </contour>
  </outline>
</glyph>
<glyph name="ae" format="2">
  <advance width="1358"/>
  <unicode hex="00E6"/>
  <anchor x="674" y="1000" name="top"/>
  <outline>
    <contour>
      <point x="296" y="-20" type="curve" smooth="yes"/>
      <point x="452" y="-20"/>
      <point x="546" y="54"/>
      <point x="642" y="162" type="curve"/>
      <point x="570" y="282" type="line"/>
      <point x="508" y="210"/>
      <point x="442" y="170"/>
      <point x="372" y="170" type="curve" smooth="yes"/>
      <point x="318" y="170"/>
      <point x="276" y="200"/>
      <point x="276" y="282" type="curve" smooth="yes"/>
      <point x="276" y="390"/>
      <point x="388" y="446"/>
      <point x="550" y="446" type="curve" smooth="yes"/>
      <point x="1296" y="446" type="line"/>
      <point x="1304" y="496"/>
      <point x="1308" y="538"/>
      <point x="1308" y="584" type="curve" smooth="yes"/>
      <point x="1308" y="824"/>
      <point x="1200" y="1016"/>
      <point x="962" y="1016" type="curve" smooth="yes"/>
      <point x="806" y="1016"/>
      <point x="688" y="940"/>
      <point x="618" y="816" type="curve"/>
      <point x="694" y="818" type="line"/>
      <point x="646" y="958"/>
      <point x="548" y="1016"/>
      <point x="420" y="1016" type="curve" smooth="yes"/>
      <point x="314" y="1016"/>
      <point x="204" y="986"/>
      <point x="98" y="928" type="curve"/>
      <point x="114" y="726" type="line"/>
      <point x="200" y="774"/>
      <point x="272" y="802"/>
      <point x="356" y="802" type="curve" smooth="yes"/>
      <point x="464" y="802"/>
      <point x="506" y="754"/>
      <point x="508" y="644" type="curve" smooth="yes"/>
      <point x="510" y="500" type="line" smooth="yes"/>
      <point x="510" y="218"/>
      <point x="664" y="-20"/>
      <point x="980" y="-20" type="curve" smooth="yes"/>
      <point x="1102" y="-20"/>
      <point x="1200" y="8"/>
      <point x="1270" y="46" type="curve"/>
      <point x="1264" y="256" type="line"/>
      <point x="1194" y="210"/>
      <point x="1108" y="176"/>
      <point x="1006" y="176" type="curve" smooth="yes"/>
      <point x="868" y="176"/>
      <point x="754" y="272"/>
      <point x="754" y="510" type="curve" smooth="yes"/>
      <point x="754" y="712"/>
      <point x="812" y="820"/>
      <point x="926" y="820" type="curve" smooth="yes"/>
      <point x="1034" y="820"/>
      <point x="1066" y="728"/>
      <point x="1066" y="614" type="curve"/>
      <point x="556" y="614" type="line" smooth="yes"/>
      <point x="332" y="614"/>
      <point x="24" y="540"/>
      <point x="24" y="258" type="curve" smooth="yes"/>
      <point x="24" y="74"/>
      <point x="152" y="-20"/>
    </contour>
  </outline>
</glyph>
<glyph name="eth" format="2">
  <advance width="882"/>
  <unicode hex="00F0"/>
  <outline>
    <contour>
      <point x="422" y="-26" type="curve" smooth="yes"/>
      <point x="672" y="-26"/>
      <point x="820" y="156"/>
      <point x="820" y="502" type="curve" smooth="yes"/>
      <point x="820" y="962"/>
      <point x="560" y="1290"/>
      <point x="210" y="1402" type="curve"/>
      <point x="160" y="1270" type="line"/>
      <point x="396" y="1174"/>
      <point x="576" y="974"/>
      <point x="576" y="694" type="curve"/>
      <point x="650" y="736" type="line"/>
      <point x="600" y="800"/>
      <point x="526" y="852"/>
      <point x="406" y="852" type="curve" smooth="yes"/>
      <point x="160" y="852"/>
      <point x="36" y="656"/>
      <point x="36" y="412" type="curve" smooth="yes"/>
      <point x="36" y="156"/>
      <point x="180" y="-26"/>
    </contour>
    <contour>
      <point x="434" y="176" type="curve" smooth="yes"/>
      <point x="328" y="176"/>
      <point x="280" y="278"/>
      <point x="280" y="420" type="curve" smooth="yes"/>
      <point x="280" y="562"/>
      <point x="328" y="658"/>
      <point x="428" y="658" type="curve" smooth="yes"/>
      <point x="526" y="658"/>
      <point x="576" y="562"/>
      <point x="576" y="420" type="curve" smooth="yes"/>
      <point x="576" y="278"/>
      <point x="526" y="176"/>
    </contour>
    <contour>
      <point x="240" y="982" type="line"/>
      <point x="716" y="1280" type="line"/>
      <point x="638" y="1400" type="line"/>
      <point x="160" y="1102" type="line"/>
    </contour>
  </outline>
</glyph>
<glyph name="divide" format="2">
  <advance width="862"/>
  <unicode hex="00F7"/>
  <outline>
    <contour>
      <point x="72" y="462" type="line"/>
      <point x="790" y="462" type="line"/>
      <point x="790" y="646" type="line"/>
      <point x="72" y="646" type="line"/>
    </contour>
    <contour>
      <point x="316" y="90" type="line"/>
      <point x="546" y="90" type="line"/>
      <point x="546" y="342" type="line"/>
      <point x="316" y="342" type="line"/>
    </contour>
    <contour>
      <point x="316" y="766" type="line"/>
      <point x="546" y="766" type="line"/>
      <point x="546" y="1018" type="line"/>
      <point x="316" y="1018" type="line"/>
    </contour>
  </outline>
</glyph>
<glyph name="oslash" format="2">
  <advance width="982"/>
  <unicode hex="00F8"/>
  <guideline x="24" y="249" angle="90"/>
  <guideline x="467" y="249" angle="90"/>
  <anchor x="492" y="1000" name="top"/>
  <outline>
    <contour>
      <point x="746" y="1060" type="line"/>
      <point x="76" y="-80" type="line"/>
      <point x="236" y="-80" type="line"/>
      <point x="906" y="1060" type="line"/>
    </contour>
    <component base="o"/>
  </outline>
</glyph>
<glyph name="thorn" format="2">
  <advance width="988"/>
  <unicode hex="00FE"/>
  <outline>
    <contour>
      <point x="92" y="-484" type="line"/>
      <point x="332" y="-484" type="line"/>
      <point x="332" y="164" type="line"/>
      <point x="266" y="114" type="line"/>
      <point x="354" y="20"/>
      <point x="426" y="-20"/>
      <point x="562" y="-20" type="curve" smooth="yes"/>
      <point x="814" y="-20"/>
      <point x="948" y="218"/>
      <point x="948" y="498" type="curve" smooth="yes"/>
      <point x="948" y="778"/>
      <point x="814" y="1016"/>
      <point x="562" y="1016" type="curve" smooth="yes"/>
      <point x="430" y="1016"/>
      <point x="344" y="954"/>
      <point x="266" y="860" type="curve"/>
      <point x="332" y="834" type="line"/>
      <point x="332" y="1500" type="line"/>
      <point x="92" y="1500" type="line"/>
    </contour>
    <contour>
      <point x="516" y="176" type="curve" smooth="yes"/>
      <point x="380" y="176"/>
      <point x="320" y="308"/>
      <point x="320" y="498" type="curve" smooth="yes"/>
      <point x="320" y="688"/>
      <point x="380" y="820"/>
      <point x="516" y="820" type="curve" smooth="yes"/>
      <point x="634" y="820"/>
      <point x="704" y="688"/>
      <point x="704" y="498" type="curve" smooth="yes"/>
      <point x="704" y="308"/>
      <point x="634" y="176"/>
    </contour>
  </outline>
</glyph>
<glyph name="dcroat" format="2">
  <advance width="1006"/>
  <unicode hex="0111"/>
  <outline>
    <contour>
      <point x="366" y="1174" type="line"/>
      <point x="1006" y="1174" type="line"/>
      <point x="1006" y="1340" type="line"/>
      <point x="366" y="1340" type="line"/>
    </contour>
    <component base="d"/>
  </outline>
</glyph>
<glyph name="Hbar" format="2">
  <advance width="1308"/>
  <unicode hex="0126"/>
  <outline>
    <contour>
      <point x="150" y="0" type="line"/>
      <point x="394" y="0" type="line"/>
      <point x="394" y="606" type="line"/>
      <point x="914" y="606" type="line"/>
      <point x="914" y="0" type="line"/>
      <point x="1158" y="0" type="line"/>
      <point x="1158" y="1400" type="line"/>
      <point x="914" y="1400" type="line"/>
      <point x="914" y="846" type="line"/>
      <point x="394" y="846" type="line"/>
      <point x="394" y="1400" type="line"/>
      <point x="150" y="1400" type="line"/>
    </contour>
    <contour>
      <point x="40" y="976" type="line"/>
      <point x="1268" y="976" type="line"/>
      <point x="1268" y="1156" type="line"/>
      <point x="40" y="1156" type="line"/>
    </contour>
  </outline>
</glyph>
<glyph name="hbar" format="2">
  <advance width="982"/>
  <unicode hex="0127"/>
  <outline>
    <contour>
      <point x="120" y="0" type="line"/>
      <point x="360" y="0" type="line"/>
      <point x="360" y="814" type="line"/>
      <point x="322" y="662" type="line"/>
      <point x="362" y="760"/>
      <point x="422" y="820"/>
      <point x="514" y="820" type="curve" smooth="yes"/>
      <point x="610" y="820"/>
      <point x="650" y="744"/>
      <point x="650" y="618" type="curve" smooth="yes"/>
      <point x="650" y="0" type="line"/>
      <point x="890" y="0" type="line"/>
      <point x="890" y="650" type="line" smooth="yes"/>
      <point x="890" y="866"/>
      <point x="788" y="1016"/>
      <point x="582" y="1016" type="curve" smooth="yes"/>
      <point x="446" y="1016"/>
      <point x="360" y="962"/>
      <point x="290" y="868" type="curve"/>
      <point x="360" y="868" type="line"/>
      <point x="360" y="1500" type="line"/>
      <point x="120" y="1500" type="line"/>
    </contour>
    <contour>
      <point x="0" y="1174" type="line"/>
      <point x="640" y="1174" type="line"/>
      <point x="640" y="1340" type="line"/>
      <point x="0" y="1340" type="line"/>
    </contour>
  </outline>
</glyph>
<glyph name="idotless" format="2">
  <advance width="414"/>
  <unicode hex="0131"/>
  <anchor x="208" y="0" name="bottom"/>
  <anchor x="372" y="20" name="ogonek"/>
  <anchor x="208" y="1000" name="top"/>
  <outline>
    <contour>
      <point x="88" y="0" type="line"/>
      <point x="326" y="0" type="line"/>
      <point x="326" y="1000" type="line"/>
      <point x="88" y="1000" type="line"/>
    </contour>
  </outline>
</glyph>
<glyph name="IJ" format="2">
  <advance width="1200"/>
  <unicode hex="0132"/>
  <outline>
    <contour>
      <point x="370" y="486" type="curve"/>
      <point x="124" y="450" type="line"/>
      <point x="150" y="158"/>
      <point x="304" y="-28"/>
      <point x="600" y="-28" type="curve" smooth="yes"/>
      <point x="926" y="-28"/>
      <point x="1080" y="196"/>
      <point x="1080" y="540" type="curve" smooth="yes"/>
      <point x="1080" y="1400" type="line"/>
      <point x="836" y="1400" type="line"/>
      <point x="836" y="606" type="line" smooth="yes"/>
      <point x="836" y="380"/>
      <point x="796" y="218"/>
      <point x="600" y="218" type="curve" smooth="yes"/>
      <point x="442" y="218"/>
      <point x="386" y="326"/>
    </contour>
    <contour>
      <point x="120" y="666" type="line"/>
      <point x="364" y="666" type="line"/>
      <point x="364" y="1400" type="line"/>
      <point x="120" y="1400" type="line"/>
    </contour>
  </outline>
</glyph>
<glyph name="kgreenlandic" format="2">
  <advance width="956"/>
  <unicode hex="0138"/>
  <outline>
    <contour>
      <point x="100" y="0" type="line"/>
      <point x="340" y="0" type="line"/>
      <point x="340" y="438" type="line"/>
      <point x="658" y="0" type="line"/>
      <point x="948" y="0" type="line"/>
      <point x="560" y="512" type="line"/>
      <point x="948" y="1000" type="line"/>
      <point x="658" y="1000" type="line"/>
      <point x="340" y="584" type="line"/>
      <point x="340" y="1000" type="line"/>
      <point x="100" y="1000" type="line"/>
    </contour>
  </outline>
</glyph>
<glyph name="Lslash" format="2">
  <advance width="878"/>
  <unicode hex="0141"/>
  <outline>
    <contour>
      <point x="150" y="0" type="line"/>
      <point x="866" y="0" type="line"/>
      <point x="866" y="224" type="line"/>
      <point x="394" y="224" type="line"/>
      <point x="394" y="1400" type="line"/>
      <point x="150" y="1400" type="line"/>
    </contour>
    <contour>
      <point x="40" y="704" type="line"/>
      <point x="716" y="888" type="line"/>
      <point x="716" y="1088" type="line"/>
      <point x="40" y="904" type="line"/>
    </contour>
  </outline>
</glyph>
<glyph name="lslash" format="2">
  <advance width="474"/>
  <unicode hex="0142"/>
  <outline>
    <contour>
      <point x="308" y="-20" type="curve" smooth="yes"/>
      <point x="398" y="-20" type="line"/>
      <point x="418" y="184" type="line"/>
      <point x="342" y="184"/>
      <point x="328" y="216"/>
      <point x="328" y="324" type="curve" smooth="yes"/>
      <point x="328" y="1500" type="line"/>
      <point x="88" y="1500" type="line"/>
      <point x="88" y="242" type="line" smooth="yes"/>
      <point x="88" y="84"/>
      <point x="158" y="-20"/>
    </contour>
    <contour>
      <point x="-20" y="760" type="line"/>
      <point x="458" y="894" type="line"/>
      <point x="458" y="1068" type="line"/>
      <point x="-20" y="934" type="line"/>
    </contour>
  </outline>
</glyph>
<glyph name="Eng" format="2">
  <advance width="1306"/>
  <unicode hex="014A"/>
  <outline>
    <contour>
      <point x="1186" y="100" type="curve" smooth="yes"/>
      <point x="1186" y="836" type="line" smooth="yes"/>
      <point x="1186" y="1190"/>
      <point x="1030" y="1428"/>
      <point x="714" y="1428" type="curve" smooth="yes"/>
      <point x="568" y="1428"/>
      <point x="434" y="1372"/>
      <point x="338" y="1266" type="curve"/>
      <point x="326" y="1400" type="line"/>
      <point x="120" y="1400" type="line"/>
      <point x="120" y="0" type="line"/>
      <point x="364" y="0" type="line"/>
      <point x="364" y="1060" type="line"/>
      <point x="422" y="1146"/>
      <point x="518" y="1204"/>
      <point x="652" y="1204" type="curve" smooth="yes"/>
      <point x="844" y="1204"/>
      <point x="942" y="1058"/>
      <point x="942" y="796" type="curve" smooth="yes"/>
      <point x="942" y="84" type="line" smooth="yes"/>
      <point x="942" y="-96"/>
      <point x="840" y="-186"/>
      <point x="686" y="-186" type="curve" smooth="yes"/>
      <point x="636" y="-186"/>
      <point x="586" y="-182"/>
      <point x="538" y="-172" type="curve"/>
      <point x="512" y="-386" type="line"/>
      <point x="566" y="-402"/>
      <point x="624" y="-410"/>
      <point x="684" y="-410" type="curve" smooth="yes"/>
      <point x="976" y="-410"/>
      <point x="1186" y="-246"/>
    </contour>
  </outline>
</glyph>
<glyph name="eng" format="2">
  <advance width="982"/>
  <unicode hex="014B"/>
  <outline>
    <contour>
      <point x="890" y="20" type="curve" smooth="yes"/>
      <point x="890" y="638" type="line" smooth="yes"/>
      <point x="890" y="860"/>
      <point x="788" y="1016"/>
      <point x="574" y="1016" type="curve" smooth="yes"/>
      <point x="468" y="1016"/>
      <point x="384" y="974"/>
      <point x="318" y="922" type="curve"/>
      <point x="308" y="1000" type="line"/>
      <point x="100" y="1000" type="line"/>
      <point x="100" y="0" type="line"/>
      <point x="340" y="0" type="line"/>
      <point x="340" y="734" type="line"/>
      <point x="380" y="788"/>
      <point x="432" y="820"/>
      <point x="506" y="820" type="curve" smooth="yes"/>
      <point x="602" y="820"/>
      <point x="642" y="756"/>
      <point x="642" y="618" type="curve" smooth="yes"/>
      <point x="642" y="0" type="line" smooth="yes"/>
      <point x="642" y="-108"/>
      <point x="580" y="-162"/>
      <point x="490" y="-162" type="curve" smooth="yes"/>
      <point x="450" y="-162"/>
      <point x="414" y="-156"/>
      <point x="376" y="-144" type="curve"/>
      <point x="350" y="-336" type="line"/>
      <point x="400" y="-350"/>
      <point x="456" y="-358"/>
      <point x="512" y="-358" type="curve" smooth="yes"/>
      <point x="730" y="-358"/>
      <point x="890" y="-234"/>
    </contour>
  </outline>
</glyph>
<glyph name="OE" format="2">
  <advance width="1862"/>
  <unicode hex="0152"/>
  <outline>
    <contour>
      <point x="634" y="-28" type="curve" smooth="yes"/>
      <point x="976" y="-28"/>
      <point x="1206" y="300"/>
      <point x="1206" y="700" type="curve" smooth="yes"/>
      <point x="1206" y="1100"/>
      <point x="976" y="1428"/>
      <point x="634" y="1428" type="curve" smooth="yes"/>
      <point x="302" y="1428"/>
      <point x="60" y="1140"/>
      <point x="60" y="700" type="curve" smooth="yes"/>
      <point x="60" y="260"/>
      <point x="302" y="-28"/>
    </contour>
    <contour>
      <point x="654" y="218" type="curve" smooth="yes"/>
      <point x="438" y="218"/>
      <point x="328" y="420"/>
      <point x="328" y="700" type="curve" smooth="yes"/>
      <point x="328" y="980"/>
      <point x="438" y="1182"/>
      <point x="654" y="1182" type="curve" smooth="yes"/>
      <point x="870" y="1182"/>
      <point x="980" y="980"/>
      <point x="980" y="700" type="curve" smooth="yes"/>
      <point x="980" y="420"/>
      <point x="870" y="218"/>
    </contour>
    <contour>
      <point x="1000" y="0" type="line"/>
      <point x="1804" y="0" type="line"/>
      <point x="1804" y="248" type="line"/>
      <point x="1252" y="248" type="line"/>
      <point x="1252" y="606" type="line"/>
      <point x="1662" y="606" type="line"/>
      <point x="1662" y="854" type="line"/>
      <point x="1252" y="854" type="line"/>
      <point x="1252" y="1152" type="line"/>
      <point x="1786" y="1152" type="line"/>
      <point x="1786" y="1400" type="line"/>
      <point x="1000" y="1400" type="line"/>
    </contour>
  </outline>
</glyph>
<glyph name="oe" format="2">
  <advance width="1544"/>
  <unicode hex="0153"/>
  <anchor x="810" y="1000" name="top"/>
  <outline>
    <contour>
      <point x="490" y="-20" type="curve" smooth="yes"/>
      <point x="658" y="-20"/>
      <point x="784" y="80"/>
      <point x="854" y="226" type="curve"/>
      <point x="776" y="224" type="line"/>
      <point x="848" y="76"/>
      <point x="978" y="-20"/>
      <point x="1166" y="-20" type="curve" smooth="yes"/>
      <point x="1288" y="-20"/>
      <point x="1390" y="16"/>
      <point x="1456" y="56" type="curve"/>
      <point x="1450" y="266" type="line"/>
      <point x="1386" y="222"/>
      <point x="1300" y="184"/>
      <point x="1196" y="184" type="curve" smooth="yes"/>
      <point x="1051" y="184"/>
      <point x="961" y="261"/>
      <point x="940" y="446" type="curve"/>
      <point x="1478" y="446" type="line"/>
      <point x="1488" y="498"/>
      <point x="1494" y="542"/>
      <point x="1494" y="596" type="curve" smooth="yes"/>
      <point x="1494" y="852"/>
      <point x="1366" y="1016"/>
      <point x="1142" y="1016" type="curve" smooth="yes"/>
      <point x="968" y="1016"/>
      <point x="842" y="918"/>
      <point x="772" y="774" type="curve"/>
      <point x="852" y="774" type="line"/>
      <point x="780" y="918"/>
      <point x="656" y="1016"/>
      <point x="490" y="1016" type="curve" smooth="yes"/>
      <point x="210" y="1016"/>
      <point x="48" y="778"/>
      <point x="48" y="498" type="curve" smooth="yes"/>
      <point x="48" y="218"/>
      <point x="210" y="-20"/>
    </contour>
    <contour>
      <point x="490" y="184" type="curve" smooth="yes"/>
      <point x="366" y="184"/>
      <point x="292" y="312"/>
      <point x="292" y="498" type="curve" smooth="yes"/>
      <point x="292" y="684"/>
      <point x="366" y="812"/>
      <point x="490" y="812" type="curve" smooth="yes"/>
      <point x="616" y="812"/>
      <point x="688" y="684"/>
      <point x="688" y="498" type="curve" smooth="yes"/>
      <point x="688" y="312"/>
      <point x="616" y="184"/>
    </contour>
    <contour>
      <point x="942" y="614" type="line"/>
      <point x="960" y="734"/>
      <point x="1021" y="812"/>
      <point x="1120" y="812" type="curve" smooth="yes"/>
      <point x="1224" y="812"/>
      <point x="1252" y="704"/>
      <point x="1252" y="614" type="curve"/>
    </contour>
  </outline>
</glyph>
<glyph name="Tbar" format="2">
  <advance width="952"/>
  <unicode hex="0166"/>
  <outline>
    <contour>
      <point x="354" y="0" type="line"/>
      <point x="598" y="0" type="line"/>
      <point x="598" y="1176" type="line"/>
      <point x="934" y="1176" type="line"/>
      <point x="934" y="1400" type="line"/>
      <point x="18" y="1400" type="line"/>
      <point x="18" y="1176" type="line"/>
      <point x="354" y="1176" type="line"/>
    </contour>
    <contour>
      <point x="94" y="612" type="line"/>
      <point x="858" y="612" type="line"/>
      <point x="858" y="778" type="line"/>
      <point x="94" y="778" type="line"/>
    </contour>
  </outline>
</glyph>
<glyph name="tbar" format="2">
  <advance width="598"/>
  <unicode hex="0167"/>
  <outline>
    <contour>
      <point x="380" y="-20" type="curve" smooth="yes"/>
      <point x="538" y="-20" type="line"/>
      <point x="560" y="184" type="line"/>
      <point x="488" y="184" type="line" smooth="yes"/>
      <point x="416" y="184"/>
      <point x="384" y="222"/>
      <point x="384" y="304" type="curve" smooth="yes"/>
      <point x="384" y="796" type="line"/>
      <point x="558" y="796" type="line"/>
      <point x="558" y="1000" type="line"/>
      <point x="384" y="1000" type="line"/>
      <point x="384" y="1246" type="line"/>
      <point x="144" y="1220" type="line"/>
      <point x="144" y="1000" type="line"/>
      <point x="54" y="1000" type="line"/>
      <point x="32" y="796" type="line"/>
      <point x="144" y="796" type="line"/>
      <point x="144" y="242" type="line" smooth="yes"/>
      <point x="144" y="68"/>
      <point x="230" y="-20"/>
    </contour>
    <contour>
      <point x="32" y="448" type="line"/>
      <point x="548" y="448" type="line"/>
      <point x="548" y="614" type="line"/>
      <point x="32" y="614" type="line"/>
    </contour>
  </outline>
</glyph>
<glyph name="Schwa" format="2">
  <advance width="1188"/>
  <unicode hex="018F"/>
  <outline>
    <contour>
      <point x="868" y="684" type="curve" smooth="yes"/>
      <point x="868" y="404"/>
      <point x="790" y="218"/>
      <point x="588" y="218" type="curve" smooth="yes"/>
      <point x="402" y="218"/>
      <point x="318" y="324"/>
      <point x="318" y="524" type="curve"/>
      <point x="978" y="524" type="line"/>
      <point x="978" y="752" type="line"/>
      <point x="76" y="752" type="line"/>
      <point x="64" y="686"/>
      <point x="60" y="622"/>
      <point x="60" y="568" type="curve" smooth="yes"/>
      <point x="60" y="206"/>
      <point x="250" y="-28"/>
      <point x="584" y="-28" type="curve" smooth="yes"/>
      <point x="918" y="-28"/>
      <point x="1128" y="240"/>
      <point x="1128" y="680" type="curve" smooth="yes"/>
      <point x="1128" y="1120"/>
      <point x="926" y="1428"/>
      <point x="568" y="1428" type="curve" smooth="yes"/>
      <point x="392" y="1428"/>
      <point x="260" y="1390"/>
      <point x="142" y="1330" type="curve"/>
      <point x="158" y="1090" type="line"/>
      <point x="268" y="1146"/>
      <point x="382" y="1182"/>
      <point x="506" y="1182" type="curve" smooth="yes"/>
      <point x="772" y="1182"/>
      <point x="868" y="994"/>
    </contour>
  </outline>
</glyph>
<glyph name="florin" format="2">
  <advance width="626"/>
  <unicode hex="0192"/>
  <outline>
    <contour>
      <point x="2" y="796" type="line"/>
      <point x="616" y="796" type="line"/>
      <point x="638" y="1000" type="line"/>
      <point x="24" y="1000" type="line"/>
    </contour>
    <contour>
      <point x="304" y="86" type="curve" smooth="yes"/>
      <point x="400" y="1026" type="line" smooth="yes"/>
      <point x="414" y="1172"/>
      <point x="470" y="1230"/>
      <point x="570" y="1230" type="curve" smooth="yes"/>
      <point x="606" y="1230"/>
      <point x="642" y="1222"/>
      <point x="664" y="1214" type="curve"/>
      <point x="686" y="1406" type="line"/>
      <point x="644" y="1420"/>
      <point x="596" y="1428"/>
      <point x="536" y="1428" type="curve" smooth="yes"/>
      <point x="334" y="1428"/>
      <point x="202" y="1314"/>
      <point x="178" y="1054" type="curve" smooth="yes"/>
      <point x="82" y="114" type="line" smooth="yes"/>
      <point x="68" y="-30"/>
      <point x="12" y="-90"/>
      <point x="-88" y="-90" type="curve" smooth="yes"/>
      <point x="-128" y="-90"/>
      <point x="-162" y="-84"/>
      <point x="-190" y="-74" type="curve"/>
      <point x="-212" y="-266" type="line"/>
      <point x="-170" y="-280"/>
      <point x="-122" y="-288"/>
      <point x="-62" y="-288" type="curve" smooth="yes"/>
      <point x="146" y="-288"/>
      <point x="278" y="-184"/>
    </contour>
  </outline>
</glyph>
<glyph name="jdotless" format="2">
  <advance width="416"/>
  <unicode hex="0237"/>
  <anchor x="208" y="1000" name="top"/>
  <outline>
    <contour>
      <point x="14" y="-484" type="line"/>
      <point x="76" y="-484" type="line" smooth="yes"/>
      <point x="254" y="-484"/>
      <point x="328" y="-396"/>
      <point x="328" y="-222" type="curve" smooth="yes"/>
      <point x="328" y="1000" type="line"/>
      <point x="88" y="1000" type="line"/>
      <point x="88" y="-156" type="line" smooth="yes"/>
      <point x="88" y="-248"/>
      <point x="60" y="-280"/>
      <point x="-6" y="-280" type="curve"/>
    </contour>
  </outline>
</glyph>
<glyph name="ringhalfright" format="2">
  <advance width="348"/>
  <unicode hex="02BE"/>
  <outline>
    <contour>
      <point x="80" y="1140" type="line"/>
      <point x="206" y="1140"/>
      <point x="268" y="1228"/>
      <point x="268" y="1334" type="curve" smooth="yes"/>
      <point x="268" y="1440"/>
      <point x="206" y="1530"/>
      <point x="80" y="1530" type="curve" smooth="yes"/>
      <point x="80" y="1428" type="line"/>
      <point x="128" y="1428"/>
      <point x="152" y="1388"/>
      <point x="152" y="1334" type="curve" smooth="yes"/>
      <point x="152" y="1278"/>
      <point x="128" y="1240"/>
      <point x="80" y="1240" type="curve" smooth="yes"/>
    </contour>
  </outline>
</glyph>
<glyph name="ringhalfleft" format="2">
  <advance width="348"/>
  <unicode hex="02BF"/>
  <outline>
    <contour>
      <point x="268" y="1140" type="curve"/>
      <point x="268" y="1240" type="line"/>
      <point x="220" y="1240"/>
      <point x="196" y="1278"/>
      <point x="196" y="1334" type="curve" smooth="yes"/>
      <point x="196" y="1388"/>
      <point x="220" y="1428"/>
      <point x="268" y="1428" type="curve"/>
      <point x="268" y="1530" type="line"/>
      <point x="144" y="1530"/>
      <point x="80" y="1440"/>
      <point x="80" y="1334" type="curve" smooth="yes"/>
      <point x="80" y="1228"/>
      <point x="144" y="1140"/>
    </contour>
  </outline>
</glyph>
<glyph name="verticallinemod" format="2">
  <advance width="332"/>
  <unicode hex="02C8"/>
  <outline>
    <contour>
      <point x="80" y="1530" type="line"/>
      <point x="80" y="1140" type="line"/>
      <point x="252" y="1140" type="line"/>
      <point x="252" y="1530" type="line"/>
    </contour>
  </outline>
</glyph>
<glyph name="verticallinelowmod" format="2">
  <advance width="340"/>
  <unicode hex="02CC"/>
  <outline>
    <contour>
      <point x="90" y="230" type="line"/>
      <point x="90" y="-160" type="line"/>
      <point x="250" y="-160" type="line"/>
      <point x="250" y="230" type="line"/>
    </contour>
  </outline>
</glyph>
<glyph name="gravecomb" format="2">
  <unicode hex="0300"/>
  <anchor x="0" y="1000" name="_top"/>
  <anchor x="0" y="1500" name="top"/>
  <outline>
    <contour>
      <point x="156" y="1152" type="line"/>
      <point x="156" y="1318" type="line"/>
      <point x="-158" y="1518" type="line"/>
      <point x="-158" y="1280" type="line"/>
    </contour>
  </outline>
</glyph>
<glyph name="acutecomb" format="2">
  <unicode hex="0301"/>
  <anchor x="0" y="1000" name="_top"/>
  <anchor x="0" y="1500" name="top"/>
  <outline>
    <contour>
      <point x="-156" y="1156" type="line"/>
      <point x="158" y="1276" type="line"/>
      <point x="158" y="1506" type="line"/>
      <point x="-156" y="1314" type="line"/>
    </contour>
  </outline>
</glyph>
<glyph name="circumflexcomb" format="2">
  <unicode hex="0302"/>
  <anchor x="0" y="1000" name="_top"/>
  <anchor x="0" y="1492" name="top"/>
  <outline>
    <contour>
      <point x="-224" y="1128" type="line"/>
      <point x="0" y="1268" type="line"/>
      <point x="224" y="1128" type="line"/>
      <point x="224" y="1286" type="line"/>
      <point x="0" y="1476" type="line"/>
      <point x="-224" y="1286" type="line"/>
    </contour>
  </outline>
</glyph>
<glyph name="tildecomb" format="2">
  <unicode hex="0303"/>
  <anchor x="0" y="1000" name="_top"/>
  <anchor x="0" y="1442" name="top"/>
  <outline>
    <contour>
      <point x="138" y="1156" type="curve" smooth="yes"/>
      <point x="240" y="1156"/>
      <point x="296" y="1242"/>
      <point x="302" y="1398" type="curve"/>
      <point x="140" y="1398" type="line"/>
      <point x="140" y="1354"/>
      <point x="118" y="1326"/>
      <point x="84" y="1326" type="curve" smooth="yes"/>
      <point x="16" y="1326"/>
      <point x="-36" y="1414"/>
      <point x="-138" y="1414" type="curve" smooth="yes"/>
      <point x="-240" y="1414"/>
      <point x="-296" y="1328"/>
      <point x="-302" y="1172" type="curve"/>
      <point x="-140" y="1172" type="line"/>
      <point x="-140" y="1216"/>
      <point x="-118" y="1244"/>
      <point x="-84" y="1244" type="curve" smooth="yes"/>
      <point x="-16" y="1244"/>
      <point x="36" y="1156"/>
    </contour>
  </outline>
</glyph>
<glyph name="macroncomb" format="2">
  <unicode hex="0304"/>
  <anchor x="0" y="980" name="_top"/>
  <anchor x="0" y="1400" name="top"/>
  <outline>
    <contour>
      <point x="-288" y="1186" type="line"/>
      <point x="288" y="1186" type="line"/>
      <point x="288" y="1340" type="line"/>
      <point x="-288" y="1340" type="line"/>
    </contour>
  </outline>
</glyph>
<glyph name="brevecomb" format="2">
  <unicode hex="0306"/>
  <anchor x="0" y="1000" name="_top"/>
  <anchor x="0" y="1374" name="top"/>
  <outline>
    <contour>
      <point x="0" y="1174" type="curve" smooth="yes"/>
      <point x="174" y="1174"/>
      <point x="278" y="1292"/>
      <point x="278" y="1436" type="curve"/>
      <point x="116" y="1436" type="line"/>
      <point x="116" y="1362"/>
      <point x="76" y="1318"/>
      <point x="0" y="1318" type="curve" smooth="yes"/>
      <point x="-76" y="1318"/>
      <point x="-116" y="1362"/>
      <point x="-116" y="1436" type="curve"/>
      <point x="-278" y="1436" type="line"/>
      <point x="-278" y="1292"/>
      <point x="-172" y="1174"/>
    </contour>
  </outline>
</glyph>
<glyph name="dieresiscomb" format="2">
  <unicode hex="0308"/>
  <anchor x="0" y="1000" name="_top"/>
  <anchor x="0" y="1400" name="top"/>
  <outline>
    <contour>
      <point x="74" y="1182" type="line"/>
      <point x="258" y="1182" type="line"/>
      <point x="258" y="1362" type="line"/>
      <point x="74" y="1362" type="line"/>
    </contour>
    <contour>
      <point x="-258" y="1182" type="line"/>
      <point x="-74" y="1182" type="line"/>
      <point x="-74" y="1362" type="line"/>
      <point x="-258" y="1362" type="line"/>
    </contour>
  </outline>
</glyph>
<glyph name="hookabovecomb" format="2">
  <unicode hex="0309"/>
  <anchor x="0" y="1000" name="_top"/>
  <anchor x="0" y="1430" name="top"/>
  <outline>
    <contour>
      <point x="32" y="1068" type="line"/>
      <point x="108" y="1132"/>
      <point x="150" y="1190"/>
      <point x="150" y="1278" type="curve" smooth="yes"/>
      <point x="150" y="1390"/>
      <point x="70" y="1454"/>
      <point x="-32" y="1454" type="curve" smooth="yes"/>
      <point x="-82" y="1454"/>
      <point x="-128" y="1442"/>
      <point x="-168" y="1424" type="curve"/>
      <point x="-134" y="1306" type="line"/>
      <point x="-104" y="1324"/>
      <point x="-70" y="1336"/>
      <point x="-40" y="1336" type="curve" smooth="yes"/>
      <point x="4" y="1336"/>
      <point x="30" y="1314"/>
      <point x="30" y="1270" type="curve" smooth="yes"/>
      <point x="30" y="1222"/>
      <point x="2" y="1188"/>
      <point x="-42" y="1142" type="curve"/>
    </contour>
  </outline>
</glyph>
<glyph name="ringcomb" format="2">
  <unicode hex="030A"/>
  <anchor x="0" y="1000" name="_top"/>
  <anchor x="0" y="1490" name="top"/>
  <outline>
    <contour>
      <point x="0" y="1140" type="curve" smooth="yes"/>
      <point x="126" y="1140"/>
      <point x="188" y="1228"/>
      <point x="188" y="1334" type="curve" smooth="yes"/>
      <point x="188" y="1440"/>
      <point x="126" y="1530"/>
      <point x="0" y="1530" type="curve" smooth="yes"/>
      <point x="-124" y="1530"/>
      <point x="-188" y="1440"/>
      <point x="-188" y="1334" type="curve" smooth="yes"/>
      <point x="-188" y="1228"/>
      <point x="-124" y="1140"/>
    </contour>
    <contour>
      <point x="0" y="1240" type="curve" smooth="yes"/>
      <point x="-48" y="1240"/>
      <point x="-72" y="1278"/>
      <point x="-72" y="1334" type="curve" smooth="yes"/>
      <point x="-72" y="1388"/>
      <point x="-48" y="1428"/>
      <point x="0" y="1428" type="curve" smooth="yes"/>
      <point x="48" y="1428"/>
      <point x="72" y="1388"/>
      <point x="72" y="1334" type="curve" smooth="yes"/>
      <point x="72" y="1278"/>
      <point x="48" y="1240"/>
    </contour>
  </outline>
</glyph>
<glyph name="hungarumlautcomb" format="2">
  <unicode hex="030B"/>
  <anchor x="0" y="1000" name="_top"/>
  <anchor x="0" y="1510" name="top"/>
  <outline>
    <contour>
      <point x="72" y="1176" type="line"/>
      <point x="218" y="1176" type="line"/>
      <point x="418" y="1530" type="line"/>
      <point x="200" y="1530" type="line"/>
    </contour>
    <contour>
      <point x="-222" y="1176" type="line"/>
      <point x="-76" y="1176" type="line"/>
      <point x="108" y="1530" type="line"/>
      <point x="-110" y="1530" type="line"/>
    </contour>
  </outline>
</glyph>
<glyph name="caroncomb" format="2">
  <unicode hex="030C"/>
  <anchor x="0" y="1000" name="_top"/>
  <anchor x="0" y="1372" name="top"/>
  <outline>
    <contour>
      <point x="0" y="1128" type="line"/>
      <point x="224" y="1316" type="line"/>
      <point x="224" y="1474" type="line"/>
      <point x="0" y="1334" type="line"/>
      <point x="-224" y="1474" type="line"/>
      <point x="-224" y="1316" type="line"/>
    </contour>
  </outline>
</glyph>
<glyph name="dblgravecomb" format="2">
  <unicode hex="030F"/>
  <anchor x="0" y="1000" name="_top"/>
  <anchor x="0" y="1510" name="top"/>
  <outline>
    <contour>
      <point x="238" y="1176" type="line"/>
      <point x="138" y="1530" type="line"/>
      <point x="-78" y="1530" type="line"/>
      <point x="94" y="1176" type="line"/>
    </contour>
    <contour>
      <point x="-44" y="1176" type="line"/>
      <point x="-160" y="1530" type="line"/>
      <point x="-378" y="1530" type="line"/>
      <point x="-190" y="1176" type="line"/>
    </contour>
  </outline>
</glyph>
<glyph name="breveinvertedcomb" format="2">
  <unicode hex="0311"/>
  <anchor x="0" y="1000" name="_top"/>
  <anchor x="0" y="1374" name="top"/>
  <outline>
    <contour>
      <point x="0" y="1432" type="curve" smooth="yes"/>
      <point x="-184" y="1432"/>
      <point x="-298" y="1316"/>
      <point x="-298" y="1174" type="curve"/>
      <point x="-128" y="1174" type="line"/>
      <point x="-128" y="1244"/>
      <point x="-78" y="1282"/>
      <point x="0" y="1282" type="curve" smooth="yes"/>
      <point x="78" y="1282"/>
      <point x="128" y="1244"/>
      <point x="128" y="1174" type="curve"/>
      <point x="298" y="1174" type="line"/>
      <point x="298" y="1316"/>
      <point x="186" y="1432"/>
    </contour>
  </outline>
</glyph>
<glyph name="horncomb" format="2">
  <unicode hex="031B"/>
  <anchor x="0" y="980" name="_topright"/>
  <outline>
    <contour>
      <point x="0" y="816" type="line"/>
      <point x="180" y="816"/>
      <point x="346" y="914"/>
      <point x="346" y="1128" type="curve"/>
      <point x="144" y="1128" type="line"/>
      <point x="144" y="1022"/>
      <point x="90" y="980"/>
      <point x="0" y="980" type="curve"/>
    </contour>
  </outline>
</glyph>
<glyph name="commaaccentcomb" format="2">
  <unicode hex="0326"/>
  <anchor x="0" y="0" name="_bottom"/>
  <anchor x="0" y="-618" name="bottom"/>
  <outline>
    <contour>
      <point x="-28" y="-596" type="line"/>
      <point x="100" y="-352" type="line"/>
      <point x="100" y="-182" type="line"/>
      <point x="-100" y="-182" type="line"/>
      <point x="-100" y="-376" type="line"/>
      <point x="-34" y="-376" type="line"/>
      <point x="-120" y="-596" type="line"/>
    </contour>
  </outline>
</glyph>
<glyph name="cedillacomb" format="2">
  <unicode hex="0327"/>
  <anchor x="0" y="0" name="_bottom"/>
  <anchor x="0" y="-458" name="bottom"/>
  <outline>
    <contour>
      <point x="26" y="-158" type="line"/>
      <point x="74" y="0" type="line"/>
      <point x="-30" y="0" type="line"/>
      <point x="-86" y="-226" type="line"/>
      <point x="-60" y="-218"/>
      <point x="-34" y="-212"/>
      <point x="-6" y="-212" type="curve" smooth="yes"/>
      <point x="50" y="-212"/>
      <point x="80" y="-238"/>
      <point x="80" y="-288" type="curve" smooth="yes"/>
      <point x="80" y="-338"/>
      <point x="44" y="-364"/>
      <point x="-14" y="-364" type="curve" smooth="yes"/>
      <point x="-50" y="-364"/>
      <point x="-84" y="-354"/>
      <point x="-114" y="-342" type="curve"/>
      <point x="-152" y="-452" type="line"/>
      <point x="-116" y="-466"/>
      <point x="-70" y="-478"/>
      <point x="-8" y="-478" type="curve" smooth="yes"/>
      <point x="108" y="-478"/>
      <point x="200" y="-412"/>
      <point x="200" y="-282" type="curve" smooth="yes"/>
      <point x="200" y="-176"/>
      <point x="136" y="-114"/>
      <point x="32" y="-114" type="curve" smooth="yes"/>
      <point x="8" y="-114"/>
      <point x="-14" y="-118"/>
      <point x="-36" y="-124" type="curve"/>
    </contour>
  </outline>
</glyph>
<glyph name="ogonekcomb" format="2">
  <unicode hex="0328"/>
  <anchor x="0" y="0" name="_ogonek"/>
  <outline>
    <contour>
      <point x="-60" y="0" type="line"/>
      <point x="-134" y="-72"/>
      <point x="-198" y="-148"/>
      <point x="-198" y="-250" type="curve" smooth="yes"/>
      <point x="-198" y="-362"/>
      <point x="-112" y="-422"/>
      <point x="2" y="-422" type="curve" smooth="yes"/>
      <point x="72" y="-422"/>
      <point x="122" y="-406"/>
      <point x="160" y="-386" type="curve"/>
      <point x="126" y="-276" type="line"/>
      <point x="94" y="-290"/>
      <point x="62" y="-300"/>
      <point x="24" y="-300" type="curve" smooth="yes"/>
      <point x="-32" y="-300"/>
      <point x="-70" y="-270"/>
      <point x="-70" y="-208" type="curve" smooth="yes"/>
      <point x="-70" y="-138"/>
      <point x="-10" y="-70"/>
      <point x="64" y="0" type="curve"/>
    </contour>
  </outline>
</glyph>
<glyph name="strokeshortcomb" format="2">
  <unicode hex="0335"/>
  <anchor x="0" y="538" name="_center"/>
  <outline>
    <contour>
      <point x="-296" y="454" type="line"/>
      <point x="296" y="454" type="line"/>
      <point x="296" y="620" type="line"/>
      <point x="-296" y="620" type="line"/>
    </contour>
  </outline>
</glyph>
<glyph name="pi" format="2">
  <advance width="1016"/>
  <unicode hex="03C0"/>
  <outline>
    <contour>
      <point x="926" y="180" type="curve" smooth="yes"/>
      <point x="884" y="180"/>
      <point x="860" y="210"/>
      <point x="860" y="272" type="curve" smooth="yes"/>
      <point x="860" y="796" type="line"/>
      <point x="984" y="796" type="line"/>
      <point x="984" y="1000" type="line"/>
      <point x="28" y="1000" type="line"/>
      <point x="28" y="796" type="line"/>
      <point x="150" y="796" type="line"/>
      <point x="150" y="0" type="line"/>
      <point x="390" y="0" type="line"/>
      <point x="390" y="796" type="line"/>
      <point x="620" y="796" type="line"/>
      <point x="620" y="252" type="line" smooth="yes"/>
      <point x="620" y="74"/>
      <point x="706" y="-20"/>
      <point x="860" y="-20" type="curve" smooth="yes"/>
      <point x="910" y="-20"/>
      <point x="954" y="-6"/>
      <point x="980" y="10" type="curve"/>
      <point x="980" y="194" type="line"/>
      <point x="966" y="186"/>
      <point x="946" y="180"/>
    </contour>
  </outline>
</glyph>
<glyph name="Germandbls" format="2">
  <advance width="1160"/>
  <unicode hex="1E9E"/>
  <outline>
    <contour>
      <point x="132" y="0" type="line"/>
      <point x="388" y="0" type="line"/>
      <point x="388" y="910" type="line" smooth="yes"/>
      <point x="388" y="1094"/>
      <point x="484" y="1206"/>
      <point x="652" y="1206" type="curve" smooth="yes"/>
      <point x="730" y="1206"/>
      <point x="784" y="1184"/>
      <point x="846" y="1142" type="curve"/>
      <point x="836" y="1304" type="line"/>
      <point x="538" y="838" type="line"/>
      <point x="538" y="636" type="line"/>
      <point x="612" y="636" type="line" smooth="yes"/>
      <point x="750" y="636"/>
      <point x="820" y="560"/>
      <point x="820" y="424" type="curve" smooth="yes"/>
      <point x="820" y="296"/>
      <point x="746" y="218"/>
      <point x="632" y="218" type="curve" smooth="yes"/>
      <point x="590" y="218"/>
      <point x="552" y="224"/>
      <point x="512" y="238" type="curve"/>
      <point x="512" y="0" type="line"/>
      <point x="568" y="-18"/>
      <point x="630" y="-28"/>
      <point x="696" y="-28" type="curve" smooth="yes"/>
      <point x="914" y="-28"/>
      <point x="1088" y="114"/>
      <point x="1088" y="410" type="curve" smooth="yes"/>
      <point x="1088" y="720"/>
      <point x="886" y="840"/>
      <point x="610" y="840" type="curve"/>
      <point x="706" y="696" type="line"/>
      <point x="970" y="1126" type="line"/>
      <point x="970" y="1328" type="line"/>
      <point x="880" y="1386"/>
      <point x="766" y="1428"/>
      <point x="620" y="1428" type="curve" smooth="yes"/>
      <point x="330" y="1428"/>
      <point x="132" y="1258"/>
      <point x="132" y="906" type="curve" smooth="yes"/>
    </contour>
  </outline>
</glyph>
<glyph name="figuredash" format="2">
  <advance width="1212"/>
  <unicode hex="2012"/>
  <outline>
    <contour>
      <point x="0" y="528" type="line"/>
      <point x="1212" y="528" type="line"/>
      <point x="1212" y="716" type="line"/>
      <point x="0" y="716" type="line"/>
    </contour>
  </outline>
</glyph>
<glyph name="endash" format="2">
  <advance width="958"/>
  <unicode hex="2013"/>
  <outline>
    <contour>
      <point x="0" y="528" type="line"/>
      <point x="958" y="528" type="line"/>
      <point x="958" y="716" type="line"/>
      <point x="0" y="716" type="line"/>
    </contour>
  </outline>
</glyph>
<glyph name="emdash" format="2">
  <advance width="1304"/>
  <unicode hex="2014"/>
  <outline>
    <contour>
      <point x="0" y="528" type="line"/>
      <point x="1304" y="528" type="line"/>
      <point x="1304" y="716" type="line"/>
      <point x="0" y="716" type="line"/>
    </contour>
  </outline>
</glyph>
<glyph name="dagger" format="2">
  <advance width="732"/>
  <unicode hex="2020"/>
  <outline>
    <contour>
      <point x="278" y="0" type="line"/>
      <point x="456" y="0" type="line"/>
      <point x="506" y="514" type="line"/>
      <point x="466" y="750" type="line"/>
      <point x="670" y="698" type="line"/>
      <point x="670" y="962" type="line"/>
      <point x="464" y="908" type="line"/>
      <point x="510" y="1214" type="line"/>
      <point x="222" y="1214" type="line"/>
      <point x="268" y="908" type="line"/>
      <point x="62" y="962" type="line"/>
      <point x="62" y="698" type="line"/>
      <point x="268" y="750" type="line"/>
      <point x="226" y="514" type="line"/>
    </contour>
  </outline>
</glyph>
<glyph name="daggerdbl" format="2">
  <advance width="772"/>
  <unicode hex="2021"/>
  <outline>
    <contour>
      <point x="242" y="-118" type="line"/>
      <point x="530" y="-118" type="line"/>
      <point x="484" y="188" type="line"/>
      <point x="690" y="134" type="line"/>
      <point x="690" y="398" type="line"/>
      <point x="488" y="346" type="line"/>
      <point x="526" y="548" type="line"/>
      <point x="488" y="750" type="line"/>
      <point x="690" y="698" type="line"/>
      <point x="690" y="962" type="line"/>
      <point x="484" y="908" type="line"/>
      <point x="530" y="1214" type="line"/>
      <point x="242" y="1214" type="line"/>
      <point x="288" y="908" type="line"/>
      <point x="82" y="962" type="line"/>
      <point x="82" y="698" type="line"/>
      <point x="286" y="750" type="line"/>
      <point x="246" y="548" type="line"/>
      <point x="286" y="346" type="line"/>
      <point x="82" y="398" type="line"/>
      <point x="82" y="134" type="line"/>
      <point x="288" y="188" type="line"/>
    </contour>
  </outline>
</glyph>
<glyph name="bullet" format="2">
  <advance width="556"/>
  <unicode hex="2022"/>
  <outline>
    <contour>
      <point x="278" y="338" type="curve" smooth="yes"/>
      <point x="396" y="338"/>
      <point x="476" y="436"/>
      <point x="476" y="556" type="curve" smooth="yes"/>
      <point x="476" y="676"/>
      <point x="396" y="774"/>
      <point x="278" y="774" type="curve" smooth="yes"/>
      <point x="160" y="774"/>
      <point x="80" y="676"/>
      <point x="80" y="556" type="curve" smooth="yes"/>
      <point x="80" y="436"/>
      <point x="160" y="338"/>
    </contour>
  </outline>
</glyph>
<glyph name="minute" format="2">
  <advance width="354"/>
  <unicode hex="2032"/>
  <outline>
    <contour>
      <point x="64" y="1006" type="line"/>
      <point x="192" y="1006" type="line"/>
      <point x="250" y="1400" type="line"/>
      <point x="64" y="1400" type="line"/>
    </contour>
  </outline>
</glyph>
<glyph name="guilsinglleft" format="2">
  <advance width="598"/>
  <unicode hex="2039"/>
  <outline>
    <contour>
      <point x="276" y="156" type="line"/>
      <point x="558" y="156" type="line"/>
      <point x="302" y="568" type="line"/>
      <point x="558" y="980" type="line"/>
      <point x="276" y="980" type="line"/>
      <point x="20" y="568" type="line"/>
    </contour>
  </outline>
</glyph>
<glyph name="guilsinglright" format="2">
  <advance width="598"/>
  <unicode hex="203A"/>
  <outline>
    <contour>
      <point x="40" y="156" type="line"/>
      <point x="322" y="156" type="line"/>
      <point x="578" y="568" type="line"/>
      <point x="322" y="980" type="line"/>
      <point x="40" y="980" type="line"/>
      <point x="296" y="568" type="line"/>
    </contour>
  </outline>
</glyph>
<glyph name="fraction" format="2">
  <advance width="192"/>
  <unicode hex="2044"/>
  <outline>
    <contour>
      <point x="-376" y="0" type="line"/>
      <point x="-184" y="0" type="line"/>
      <point x="568" y="1400" type="line"/>
      <point x="378" y="1400" type="line"/>
    </contour>
  </outline>
</glyph>
<glyph name="colonsign" format="2">
  <advance width="1048"/>
  <unicode hex="20A1"/>
  <outline>
    <contour>
      <point x="678" y="-28" type="curve" smooth="yes"/>
      <point x="804" y="-28"/>
      <point x="916" y="-2"/>
      <point x="996" y="38" type="curve"/>
      <point x="968" y="282" type="line"/>
      <point x="886" y="246"/>
      <point x="814" y="218"/>
      <point x="712" y="218" type="curve" smooth="yes"/>
      <point x="472" y="218"/>
      <point x="328" y="400"/>
      <point x="328" y="700" type="curve" smooth="yes"/>
      <point x="328" y="1000"/>
      <point x="472" y="1182"/>
      <point x="714" y="1182" type="curve" smooth="yes"/>
      <point x="814" y="1182"/>
      <point x="886" y="1154"/>
      <point x="968" y="1118" type="curve"/>
      <point x="996" y="1362" type="line"/>
      <point x="914" y="1400"/>
      <point x="810" y="1428"/>
      <point x="682" y="1428" type="curve" smooth="yes"/>
      <point x="326" y="1428"/>
      <point x="60" y="1150"/>
      <point x="60" y="700" type="curve" smooth="yes"/>
      <point x="60" y="250"/>
      <point x="328" y="-28"/>
    </contour>
    <contour>
      <point x="402" y="-228" type="line"/>
      <point x="540" y="-228" type="line"/>
      <point x="680" y="1628" type="line"/>
      <point x="542" y="1628" type="line"/>
    </contour>
    <contour>
      <point x="672" y="-228" type="line"/>
      <point x="810" y="-228" type="line"/>
      <point x="950" y="1628" type="line"/>
      <point x="812" y="1628" type="line"/>
    </contour>
  </outline>
</glyph>
<glyph name="franc" format="2">
  <advance width="906"/>
  <unicode hex="20A3"/>
  <outline>
    <contour>
      <point x="132" y="0" type="line"/>
      <point x="376" y="0" type="line"/>
      <point x="376" y="622" type="line"/>
      <point x="762" y="622" type="line"/>
      <point x="762" y="846" type="line"/>
      <point x="376" y="846" type="line"/>
      <point x="376" y="1176" type="line"/>
      <point x="876" y="1176" type="line"/>
      <point x="876" y="1400" type="line"/>
      <point x="132" y="1400" type="line"/>
    </contour>
    <contour>
      <point x="16" y="248" type="line"/>
      <point x="654" y="248" type="line"/>
      <point x="654" y="424" type="line"/>
      <point x="16" y="424" type="line"/>
    </contour>
  </outline>
</glyph>
<glyph name="lira" format="2">
  <advance width="932"/>
  <unicode hex="20A4"/>
  <outline>
    <contour>
      <point x="338" y="98" type="line"/>
      <point x="410" y="266"/>
      <point x="442" y="392"/>
      <point x="470" y="652" type="curve" smooth="yes"/>
      <point x="502" y="960" type="line" smooth="yes"/>
      <point x="518" y="1112"/>
      <point x="576" y="1184"/>
      <point x="690" y="1184" type="curve" smooth="yes"/>
      <point x="754" y="1184"/>
      <point x="804" y="1162"/>
      <point x="862" y="1116" type="curve"/>
      <point x="882" y="1378" type="line"/>
      <point x="810" y="1410"/>
      <point x="740" y="1428"/>
      <point x="656" y="1428" type="curve" smooth="yes"/>
      <point x="408" y="1428"/>
      <point x="294" y="1258"/>
      <point x="262" y="956" type="curve" smooth="yes"/>
      <point x="228" y="636" type="line" smooth="yes"/>
      <point x="200" y="376"/>
      <point x="170" y="220"/>
      <point x="92" y="0" type="curve"/>
      <point x="892" y="0" type="line"/>
      <point x="892" y="224" type="line"/>
      <point x="272" y="224" type="line"/>
    </contour>
    <contour>
      <point x="84" y="736" type="line"/>
      <point x="808" y="736" type="line"/>
      <point x="808" y="912" type="line"/>
      <point x="84" y="912" type="line"/>
    </contour>
    <contour>
      <point x="84" y="436" type="line"/>
      <point x="808" y="436" type="line"/>
      <point x="808" y="612" type="line"/>
      <point x="84" y="612" type="line"/>
    </contour>
  </outline>
</glyph>
<glyph name="naira" format="2">
  <advance width="1294"/>
  <unicode hex="20A6"/>
  <outline>
    <contour>
      <point x="168" y="0" type="line"/>
      <point x="412" y="0" type="line"/>
      <point x="412" y="932" type="line"/>
      <point x="912" y="0" type="line"/>
      <point x="1126" y="0" type="line"/>
      <point x="1126" y="1400" type="line"/>
      <point x="882" y="1400" type="line"/>
      <point x="882" y="524" type="line"/>
      <point x="418" y="1400" type="line"/>
      <point x="168" y="1400" type="line"/>
    </contour>
    <contour>
      <point x="52" y="658" type="line"/>
      <point x="1242" y="658" type="line"/>
      <point x="1242" y="804" type="line"/>
      <point x="52" y="804" type="line"/>
    </contour>
  </outline>
</glyph>
<glyph name="peseta" format="2">
  <advance width="2294"/>
  <unicode hex="20A7"/>
  <outline>
    <contour>
      <point x="120" y="0" type="line"/>
      <point x="364" y="0" type="line"/>
      <point x="364" y="472" type="line"/>
      <point x="528" y="472" type="line" smooth="yes"/>
      <point x="808" y="472"/>
      <point x="998" y="620"/>
      <point x="998" y="936" type="curve" smooth="yes"/>
      <point x="998" y="1252"/>
      <point x="808" y="1400"/>
      <point x="528" y="1400" type="curve" smooth="yes"/>
      <point x="120" y="1400" type="line"/>
    </contour>
    <contour>
      <point x="364" y="684" type="line"/>
      <point x="364" y="1188" type="line"/>
      <point x="506" y="1188" type="line" smooth="yes"/>
      <point x="654" y="1188"/>
      <point x="746" y="1110"/>
      <point x="746" y="936" type="curve" smooth="yes"/>
      <point x="746" y="748"/>
      <point x="654" y="684"/>
      <point x="506" y="684" type="curve" smooth="yes"/>
    </contour>
    <contour>
      <point x="1378" y="-20" type="curve" smooth="yes"/>
      <point x="1536" y="-20" type="line"/>
      <point x="1558" y="184" type="line"/>
      <point x="1486" y="184" type="line" smooth="yes"/>
      <point x="1414" y="184"/>
      <point x="1382" y="222"/>
      <point x="1382" y="304" type="curve" smooth="yes"/>
      <point x="1382" y="796" type="line"/>
      <point x="1556" y="796" type="line"/>
      <point x="1556" y="1000" type="line"/>
      <point x="1382" y="1000" type="line"/>
      <point x="1382" y="1246" type="line"/>
      <point x="1142" y="1220" type="line"/>
      <point x="1142" y="1000" type="line"/>
      <point x="1052" y="1000" type="line"/>
      <point x="1030" y="796" type="line"/>
      <point x="1142" y="796" type="line"/>
      <point x="1142" y="242" type="line" smooth="yes"/>
      <point x="1142" y="68"/>
      <point x="1228" y="-20"/>
    </contour>
    <contour>
      <point x="1900" y="-20" type="curve" smooth="yes"/>
      <point x="2110" y="-20"/>
      <point x="2250" y="90"/>
      <point x="2250" y="274" type="curve" smooth="yes"/>
      <point x="2250" y="428"/>
      <point x="2174" y="508"/>
      <point x="2032" y="580" type="curve" smooth="yes"/>
      <point x="1904" y="646"/>
      <point x="1846" y="674"/>
      <point x="1846" y="742" type="curve" smooth="yes"/>
      <point x="1846" y="804"/>
      <point x="1898" y="838"/>
      <point x="1974" y="838" type="curve" smooth="yes"/>
      <point x="2060" y="838"/>
      <point x="2128" y="796"/>
      <point x="2198" y="736" type="curve"/>
      <point x="2220" y="942" type="line"/>
      <point x="2148" y="986"/>
      <point x="2064" y="1016"/>
      <point x="1958" y="1016" type="curve" smooth="yes"/>
      <point x="1748" y="1016"/>
      <point x="1618" y="896"/>
      <point x="1618" y="726" type="curve" smooth="yes"/>
      <point x="1618" y="562"/>
      <point x="1708" y="494"/>
      <point x="1860" y="420" type="curve" smooth="yes"/>
      <point x="1984" y="360"/>
      <point x="2022" y="328"/>
      <point x="2022" y="264" type="curve" smooth="yes"/>
      <point x="2022" y="202"/>
      <point x="1972" y="166"/>
      <point x="1882" y="166" type="curve" smooth="yes"/>
      <point x="1802" y="166"/>
      <point x="1718" y="206"/>
      <point x="1636" y="262" type="curve"/>
      <point x="1614" y="50" type="line"/>
      <point x="1704" y="4"/>
      <point x="1788" y="-20"/>
    </contour>
  </outline>
</glyph>
<glyph name="won" format="2">
  <advance width="1620"/>
  <unicode hex="20A9"/>
  <outline>
    <contour>
      <point x="308" y="0" type="line"/>
      <point x="568" y="0" type="line"/>
      <point x="836" y="1120" type="line"/>
      <point x="784" y="1120" type="line"/>
      <point x="1052" y="0" type="line"/>
      <point x="1312" y="0" type="line"/>
      <point x="1624" y="1400" type="line"/>
      <point x="1380" y="1400" type="line"/>
      <point x="1154" y="252" type="line"/>
      <point x="1202" y="254" type="line"/>
      <point x="940" y="1374" type="line"/>
      <point x="680" y="1374" type="line"/>
      <point x="418" y="254" type="line"/>
      <point x="466" y="252" type="line"/>
      <point x="240" y="1400" type="line"/>
      <point x="-4" y="1400" type="line"/>
    </contour>
    <contour>
      <point x="20" y="644" type="line"/>
      <point x="1600" y="644" type="line"/>
      <point x="1600" y="808" type="line"/>
      <point x="20" y="808" type="line"/>
    </contour>
  </outline>
</glyph>
<glyph name="dong" format="2">
  <advance width="1006"/>
  <unicode hex="20AB"/>
  <guideline x="443"/>
  <guideline x="15" y="249" angle="90"/>
  <outline>
    <contour>
      <point x="426" y="-20" type="curve" smooth="yes"/>
      <point x="556" y="-20"/>
      <point x="632" y="32"/>
      <point x="712" y="118" type="curve"/>
      <point x="648" y="170" type="line"/>
      <point x="660" y="0" type="line"/>
      <point x="886" y="0" type="line"/>
      <point x="886" y="1500" type="line"/>
      <point x="646" y="1500" type="line"/>
      <point x="646" y="834" type="line"/>
      <point x="698" y="886" type="line"/>
      <point x="632" y="962"/>
      <point x="550" y="1016"/>
      <point x="426" y="1016" type="curve" smooth="yes"/>
      <point x="170" y="1016"/>
      <point x="30" y="778"/>
      <point x="30" y="498" type="curve" smooth="yes"/>
      <point x="30" y="218"/>
      <point x="170" y="-20"/>
    </contour>
    <contour>
      <point x="158" y="-294" type="line"/>
      <point x="886" y="-294" type="line"/>
      <point x="886" y="-106" type="line"/>
      <point x="158" y="-106" type="line"/>
    </contour>
    <contour>
      <point x="462" y="176" type="curve" smooth="yes"/>
      <point x="342" y="176"/>
      <point x="274" y="308"/>
      <point x="274" y="498" type="curve" smooth="yes"/>
      <point x="274" y="688"/>
      <point x="342" y="820"/>
      <point x="462" y="820" type="curve" smooth="yes"/>
      <point x="598" y="820"/>
      <point x="658" y="688"/>
      <point x="658" y="498" type="curve" smooth="yes"/>
      <point x="658" y="308"/>
      <point x="598" y="176"/>
    </contour>
    <contour>
      <point x="366" y="1174" type="line"/>
      <point x="1006" y="1174" type="line"/>
      <point x="1006" y="1340" type="line"/>
      <point x="366" y="1340" type="line"/>
    </contour>
  </outline>
</glyph>
<glyph name="euro" format="2">
  <advance width="1096"/>
  <unicode hex="20AC"/>
  <outline>
    <contour>
      <point x="730" y="-28" type="curve" smooth="yes"/>
      <point x="856" y="-28"/>
      <point x="968" y="-2"/>
      <point x="1048" y="38" type="curve"/>
      <point x="1020" y="282" type="line"/>
      <point x="938" y="246"/>
      <point x="866" y="218"/>
      <point x="764" y="218" type="curve" smooth="yes"/>
      <point x="524" y="218"/>
      <point x="380" y="400"/>
      <point x="380" y="700" type="curve" smooth="yes"/>
      <point x="380" y="1000"/>
      <point x="524" y="1182"/>
      <point x="766" y="1182" type="curve" smooth="yes"/>
      <point x="866" y="1182"/>
      <point x="938" y="1154"/>
      <point x="1020" y="1118" type="curve"/>
      <point x="1048" y="1362" type="line"/>
      <point x="966" y="1400"/>
      <point x="862" y="1428"/>
      <point x="734" y="1428" type="curve" smooth="yes"/>
      <point x="378" y="1428"/>
      <point x="112" y="1150"/>
      <point x="112" y="700" type="curve" smooth="yes"/>
      <point x="112" y="250"/>
      <point x="380" y="-28"/>
    </contour>
    <contour>
      <point x="-8" y="458" type="line"/>
      <point x="840" y="458" type="line"/>
      <point x="840" y="634" type="line"/>
      <point x="-8" y="634" type="line"/>
    </contour>
    <contour>
      <point x="-8" y="776" type="line"/>
      <point x="840" y="776" type="line"/>
      <point x="840" y="952" type="line"/>
      <point x="-8" y="952" type="line"/>
    </contour>
  </outline>
</glyph>
<glyph name="kip" format="2">
  <advance width="1200"/>
  <unicode hex="20AD"/>
  <outline>
    <contour>
      <point x="784" y="0" type="line"/>
      <point x="1072" y="0" type="line"/>
      <point x="638" y="740" type="line"/>
      <point x="1072" y="1400" type="line"/>
      <point x="784" y="1400" type="line"/>
      <point x="362" y="740" type="line"/>
    </contour>
    <contour>
      <point x="108" y="0" type="line"/>
      <point x="352" y="0" type="line"/>
      <point x="352" y="1400" type="line"/>
      <point x="108" y="1400" type="line"/>
    </contour>
    <contour>
      <point x="-8" y="650" type="line"/>
      <point x="996" y="650" type="line"/>
      <point x="996" y="826" type="line"/>
      <point x="-8" y="826" type="line"/>
    </contour>
  </outline>
</glyph>
<glyph name="peso" format="2">
  <advance width="1134"/>
  <unicode hex="20B1"/>
  <outline>
    <contour>
      <point x="136" y="0" type="line"/>
      <point x="380" y="0" type="line"/>
      <point x="380" y="386" type="line"/>
      <point x="544" y="386" type="line" smooth="yes"/>
      <point x="824" y="386"/>
      <point x="1014" y="548"/>
      <point x="1014" y="894" type="curve" smooth="yes"/>
      <point x="1014" y="1238"/>
      <point x="824" y="1400"/>
      <point x="544" y="1400" type="curve" smooth="yes"/>
      <point x="136" y="1400" type="line"/>
    </contour>
    <contour>
      <point x="380" y="598" type="line"/>
      <point x="380" y="1188" type="line"/>
      <point x="522" y="1188" type="line" smooth="yes"/>
      <point x="670" y="1188"/>
      <point x="762" y="1098"/>
      <point x="762" y="894" type="curve" smooth="yes"/>
      <point x="762" y="674"/>
      <point x="670" y="598"/>
      <point x="522" y="598" type="curve" smooth="yes"/>
    </contour>
    <contour>
      <point x="20" y="944" type="line"/>
      <point x="1114" y="944" type="line"/>
      <point x="1114" y="1086" type="line"/>
      <point x="20" y="1086" type="line"/>
    </contour>
    <contour>
      <point x="20" y="700" type="line"/>
      <point x="1114" y="700" type="line"/>
      <point x="1114" y="842" type="line"/>
      <point x="20" y="842" type="line"/>
    </contour>
  </outline>
</glyph>
<glyph name="rupeeIndian" format="2">
  <advance width="980"/>
  <unicode hex="20B9"/>
  <outline>
    <contour>
      <point x="80" y="484" type="line"/>
      <point x="334" y="484" type="line" smooth="yes"/>
      <point x="622" y="484"/>
      <point x="810" y="648"/>
      <point x="810" y="920" type="curve" smooth="yes"/>
      <point x="810" y="1084"/>
      <point x="736" y="1206"/>
      <point x="604" y="1286" type="curve"/>
      <point x="586" y="1224" type="line"/>
      <point x="930" y="1224" type="line"/>
      <point x="930" y="1400" type="line"/>
      <point x="80" y="1400" type="line"/>
      <point x="80" y="1224" type="line"/>
      <point x="306" y="1224" type="line" smooth="yes"/>
      <point x="468" y="1224"/>
      <point x="560" y="1128"/>
      <point x="560" y="940" type="curve" smooth="yes"/>
      <point x="560" y="750"/>
      <point x="468" y="660"/>
      <point x="306" y="660" type="curve" smooth="yes"/>
      <point x="80" y="660" type="line"/>
    </contour>
    <contour>
      <point x="686" y="0" type="line"/>
      <point x="944" y="0" type="line"/>
      <point x="602" y="568" type="line"/>
      <point x="348" y="568" type="line"/>
    </contour>
    <contour>
      <point x="80" y="854" type="line"/>
      <point x="930" y="854" type="line"/>
      <point x="930" y="1030" type="line"/>
      <point x="80" y="1030" type="line"/>
    </contour>
  </outline>
</glyph>
<glyph name="liraTurkish" format="2">
  <advance width="1200"/>
  <unicode hex="20BA"/>
  <outline>
    <contour>
      <point x="424" y="1400" type="line"/>
      <point x="180" y="1400" type="line"/>
      <point x="180" y="0" type="line"/>
      <point x="430" y="0" type="line" smooth="yes"/>
      <point x="806" y="0"/>
      <point x="1010" y="218"/>
      <point x="1010" y="620" type="curve" smooth="yes"/>
      <point x="1010" y="674" type="line"/>
      <point x="766" y="674" type="line"/>
      <point x="766" y="620" type="line" smooth="yes"/>
      <point x="766" y="362"/>
      <point x="660" y="224"/>
      <point x="450" y="224" type="curve" smooth="yes"/>
      <point x="424" y="224" type="line"/>
    </contour>
    <contour>
      <point x="64" y="560" type="line"/>
      <point x="896" y="840" type="line"/>
      <point x="896" y="1030" type="line"/>
      <point x="64" y="750" type="line"/>
    </contour>
    <contour>
      <point x="64" y="886" type="line"/>
      <point x="896" y="1166" type="line"/>
      <point x="896" y="1356" type="line"/>
      <point x="64" y="1076" type="line"/>
    </contour>
  </outline>
</glyph>
<glyph name="manat" format="2">
  <advance width="1200"/>
  <unicode hex="20BC"/>
  <outline>
    <contour>
      <point x="628" y="1168" type="curve" smooth="yes"/>
      <point x="274" y="1168"/>
      <point x="108" y="928"/>
      <point x="108" y="558" type="curve" smooth="yes"/>
      <point x="108" y="0" type="line"/>
      <point x="352" y="0" type="line"/>
      <point x="352" y="530" type="line" smooth="yes"/>
      <point x="352" y="748"/>
      <point x="398" y="922"/>
      <point x="628" y="922" type="curve" smooth="yes"/>
      <point x="858" y="922"/>
      <point x="904" y="748"/>
      <point x="904" y="530" type="curve" smooth="yes"/>
      <point x="904" y="0" type="line"/>
      <point x="1148" y="0" type="line"/>
      <point x="1148" y="558" type="line" smooth="yes"/>
      <point x="1148" y="928"/>
      <point x="982" y="1168"/>
    </contour>
    <contour>
      <point x="514" y="0" type="line"/>
      <point x="744" y="0" type="line"/>
      <point x="744" y="1400" type="line"/>
      <point x="514" y="1400" type="line"/>
    </contour>
  </outline>
</glyph>
<glyph name="ruble" format="2">
  <advance width="1054"/>
  <unicode hex="20BD"/>
  <outline>
    <contour>
      <point x="136" y="0" type="line"/>
      <point x="380" y="0" type="line"/>
      <point x="380" y="1188" type="line"/>
      <point x="522" y="1188" type="line" smooth="yes"/>
      <point x="670" y="1188"/>
      <point x="762" y="1114"/>
      <point x="762" y="944" type="curve" smooth="yes"/>
      <point x="762" y="762"/>
      <point x="670" y="698"/>
      <point x="522" y="698" type="curve" smooth="yes"/>
      <point x="20" y="698" type="line"/>
      <point x="20" y="486" type="line"/>
      <point x="544" y="486" type="line" smooth="yes"/>
      <point x="824" y="486"/>
      <point x="1014" y="632"/>
      <point x="1014" y="944" type="curve" smooth="yes"/>
      <point x="1014" y="1254"/>
      <point x="824" y="1400"/>
      <point x="544" y="1400" type="curve" smooth="yes"/>
      <point x="136" y="1400" type="line"/>
    </contour>
    <contour>
      <point x="20" y="164" type="line"/>
      <point x="680" y="164" type="line"/>
      <point x="680" y="340" type="line"/>
      <point x="20" y="340" type="line"/>
    </contour>
  </outline>
</glyph>
<glyph name="literSign" format="2">
  <advance width="1036"/>
  <unicode hex="2113"/>
  <outline>
    <contour>
      <point x="574" y="-16" type="curve" smooth="yes"/>
      <point x="826" y="-16"/>
      <point x="902" y="132"/>
      <point x="908" y="368" type="curve"/>
      <point x="708" y="368" type="line"/>
      <point x="706" y="238"/>
      <point x="682" y="158"/>
      <point x="616" y="158" type="curve" smooth="yes"/>
      <point x="552" y="158"/>
      <point x="522" y="214"/>
      <point x="522" y="360" type="curve" smooth="yes"/>
      <point x="522" y="1124" type="line" smooth="yes"/>
      <point x="522" y="1240"/>
      <point x="550" y="1282"/>
      <point x="596" y="1282" type="curve" smooth="yes"/>
      <point x="648" y="1282"/>
      <point x="670" y="1232"/>
      <point x="670" y="1128" type="curve" smooth="yes"/>
      <point x="670" y="810"/>
      <point x="448" y="754"/>
      <point x="92" y="636" type="curve"/>
      <point x="92" y="466" type="line"/>
      <point x="580" y="604"/>
      <point x="900" y="724"/>
      <point x="900" y="1120" type="curve" smooth="yes"/>
      <point x="900" y="1334"/>
      <point x="790" y="1446"/>
      <point x="596" y="1446" type="curve" smooth="yes"/>
      <point x="370" y="1446"/>
      <point x="274" y="1306"/>
      <point x="274" y="1086" type="curve" smooth="yes"/>
      <point x="274" y="366" type="line" smooth="yes"/>
      <point x="274" y="132"/>
      <point x="378" y="-16"/>
    </contour>
  </outline>
</glyph>
<glyph name="numero" format="2">
  <advance width="2174"/>
  <unicode hex="2116"/>
  <outline>
    <contour>
      <point x="132" y="0" type="line"/>
      <point x="376" y="0" type="line"/>
      <point x="376" y="932" type="line"/>
      <point x="876" y="0" type="line"/>
      <point x="1090" y="0" type="line"/>
      <point x="1090" y="1400" type="line"/>
      <point x="846" y="1400" type="line"/>
      <point x="846" y="524" type="line"/>
      <point x="382" y="1400" type="line"/>
      <point x="132" y="1400" type="line"/>
    </contour>
    <contour>
      <point x="1412" y="118" type="line"/>
      <point x="1952" y="118" type="line"/>
      <point x="1952" y="322" type="line"/>
      <point x="1412" y="322" type="line"/>
    </contour>
    <contour>
      <point x="1682" y="472" type="curve" smooth="yes"/>
      <point x="1954" y="472"/>
      <point x="2114" y="692"/>
      <point x="2114" y="950" type="curve" smooth="yes"/>
      <point x="2114" y="1208"/>
      <point x="1954" y="1428"/>
      <point x="1682" y="1428" type="curve" smooth="yes"/>
      <point x="1410" y="1428"/>
      <point x="1250" y="1208"/>
      <point x="1250" y="950" type="curve" smooth="yes"/>
      <point x="1250" y="692"/>
      <point x="1410" y="472"/>
    </contour>
    <contour>
      <point x="1682" y="676" type="curve" smooth="yes"/>
      <point x="1554" y="676"/>
      <point x="1482" y="788"/>
      <point x="1482" y="950" type="curve" smooth="yes"/>
      <point x="1482" y="1112"/>
      <point x="1554" y="1224"/>
      <point x="1682" y="1224" type="curve" smooth="yes"/>
      <point x="1810" y="1224"/>
      <point x="1882" y="1112"/>
      <point x="1882" y="950" type="curve" smooth="yes"/>
      <point x="1882" y="788"/>
      <point x="1810" y="676"/>
    </contour>
  </outline>
</glyph>
<glyph name="trademark" format="2">
  <advance width="1268"/>
  <unicode hex="2122"/>
  <outline>
    <contour>
      <point x="524" y="674" type="line"/>
      <point x="688" y="674" type="line"/>
      <point x="742" y="1212" type="line"/>
      <point x="660" y="1194" type="line"/>
      <point x="846" y="842" type="line"/>
      <point x="868" y="842" type="line"/>
      <point x="1054" y="1194" type="line"/>
      <point x="974" y="1212" type="line"/>
      <point x="1028" y="674" type="line"/>
      <point x="1192" y="674" type="line"/>
      <point x="1106" y="1400" type="line"/>
      <point x="1002" y="1400" type="line"/>
      <point x="858" y="1104" type="line"/>
      <point x="712" y="1400" type="line"/>
      <point x="610" y="1400" type="line"/>
    </contour>
    <contour>
      <point x="218" y="674" type="line"/>
      <point x="376" y="674" type="line"/>
      <point x="376" y="1244" type="line"/>
      <point x="534" y="1244" type="line"/>
      <point x="554" y="1400" type="line"/>
      <point x="54" y="1400" type="line"/>
      <point x="54" y="1244" type="line"/>
      <point x="218" y="1244" type="line"/>
    </contour>
  </outline>
</glyph>
<glyph name="Ohm" format="2">
  <advance width="1376"/>
  <unicode hex="2126"/>
  <outline>
    <contour>
      <point x="92" y="0" type="line"/>
      <point x="624" y="0" type="line"/>
      <point x="624" y="202" type="line"/>
      <point x="466" y="320"/>
      <point x="380" y="488"/>
      <point x="380" y="728" type="curve" smooth="yes"/>
      <point x="380" y="994"/>
      <point x="492" y="1182"/>
      <point x="688" y="1182" type="curve" smooth="yes"/>
      <point x="884" y="1182"/>
      <point x="996" y="994"/>
      <point x="996" y="728" type="curve" smooth="yes"/>
      <point x="996" y="486"/>
      <point x="908" y="320"/>
      <point x="750" y="202" type="curve"/>
      <point x="750" y="0" type="line"/>
      <point x="1284" y="0" type="line"/>
      <point x="1284" y="228" type="line"/>
      <point x="1006" y="228" type="line"/>
      <point x="1168" y="340"/>
      <point x="1264" y="516"/>
      <point x="1264" y="782" type="curve" smooth="yes"/>
      <point x="1264" y="1188"/>
      <point x="1032" y="1428"/>
      <point x="688" y="1428" type="curve" smooth="yes"/>
      <point x="344" y="1428"/>
      <point x="112" y="1172"/>
      <point x="112" y="782" type="curve" smooth="yes"/>
      <point x="112" y="520"/>
      <point x="214" y="336"/>
      <point x="368" y="228" type="curve"/>
      <point x="92" y="228" type="line"/>
    </contour>
  </outline>
</glyph>
<glyph name="partialdiff" format="2">
  <advance width="1098"/>
  <unicode hex="2202"/>
  <outline>
    <contour>
      <point x="428" y="-20" type="curve" smooth="yes"/>
      <point x="844" y="-20"/>
      <point x="1006" y="498"/>
      <point x="1006" y="896" type="curve" smooth="yes"/>
      <point x="1006" y="1216"/>
      <point x="906" y="1448"/>
      <point x="590" y="1448" type="curve" smooth="yes"/>
      <point x="490" y="1448"/>
      <point x="390" y="1428"/>
      <point x="312" y="1400" type="curve"/>
      <point x="312" y="1186" type="line"/>
      <point x="388" y="1220"/>
      <point x="470" y="1244"/>
      <point x="550" y="1244" type="curve" smooth="yes"/>
      <point x="698" y="1244"/>
      <point x="752" y="1120"/>
      <point x="752" y="952" type="curve" smooth="yes"/>
      <point x="752" y="650"/>
      <point x="660" y="184"/>
      <point x="458" y="184" type="curve" smooth="yes"/>
      <point x="370" y="184"/>
      <point x="310" y="244"/>
      <point x="310" y="386" type="curve" smooth="yes"/>
      <point x="310" y="612"/>
      <point x="418" y="816"/>
      <point x="576" y="816" type="curve" smooth="yes"/>
      <point x="690" y="816"/>
      <point x="748" y="754"/>
      <point x="794" y="676" type="curve"/>
      <point x="834" y="858" type="line"/>
      <point x="768" y="962"/>
      <point x="680" y="1020"/>
      <point x="534" y="1020" type="curve" smooth="yes"/>
      <point x="248" y="1020"/>
      <point x="56" y="712"/>
      <point x="56" y="406" type="curve" smooth="yes"/>
      <point x="56" y="142"/>
      <point x="186" y="-20"/>
    </contour>
  </outline>
</glyph>
<glyph name="emptyset" format="2">
  <advance width="952"/>
  <unicode hex="2205"/>
  <outline>
    <contour>
      <point x="476" y="104" type="curve" smooth="yes"/>
      <point x="708" y="104"/>
      <point x="900" y="304"/>
      <point x="900" y="552" type="curve" smooth="yes"/>
      <point x="900" y="798"/>
      <point x="708" y="1000"/>
      <point x="476" y="1000" type="curve" smooth="yes"/>
      <point x="242" y="1000"/>
      <point x="52" y="798"/>
      <point x="52" y="552" type="curve" smooth="yes"/>
      <point x="52" y="304"/>
      <point x="242" y="104"/>
    </contour>
    <contour>
      <point x="476" y="300" type="curve" smooth="yes"/>
      <point x="350" y="300"/>
      <point x="256" y="408"/>
      <point x="256" y="552" type="curve" smooth="yes"/>
      <point x="256" y="696"/>
      <point x="350" y="804"/>
      <point x="476" y="804" type="curve" smooth="yes"/>
      <point x="602" y="804"/>
      <point x="696" y="696"/>
      <point x="696" y="552" type="curve" smooth="yes"/>
      <point x="696" y="408"/>
      <point x="602" y="300"/>
    </contour>
    <contour>
      <point x="156" y="52" type="line"/>
      <point x="888" y="978" type="line"/>
      <point x="796" y="1052" type="line"/>
      <point x="64" y="126" type="line"/>
    </contour>
  </outline>
</glyph>
<glyph name="increment" format="2">
  <advance width="1160"/>
  <unicode hex="2206"/>
  <outline>
    <contour>
      <point x="20" y="0" type="line"/>
      <point x="1140" y="0" type="line"/>
      <point x="1140" y="84" type="line"/>
      <point x="708" y="1400" type="line"/>
      <point x="452" y="1400" type="line"/>
      <point x="20" y="86" type="line"/>
    </contour>
    <contour>
      <point x="264" y="102" type="line"/>
      <point x="620" y="1214" type="line"/>
      <point x="540" y="1214" type="line"/>
      <point x="896" y="102" type="line"/>
      <point x="956" y="224" type="line"/>
      <point x="204" y="224" type="line"/>
    </contour>
  </outline>
</glyph>
<glyph name="product" format="2">
  <advance width="1260"/>
  <unicode hex="220F"/>
  <outline>
    <contour>
      <point x="168" y="-400" type="line"/>
      <point x="412" y="-400" type="line"/>
      <point x="412" y="1156" type="line"/>
      <point x="848" y="1156" type="line"/>
      <point x="848" y="-400" type="line"/>
      <point x="1092" y="-400" type="line"/>
      <point x="1092" y="1156" type="line"/>
      <point x="1248" y="1156" type="line"/>
      <point x="1248" y="1400" type="line"/>
      <point x="12" y="1400" type="line"/>
      <point x="12" y="1156" type="line"/>
      <point x="168" y="1156" type="line"/>
    </contour>
  </outline>
</glyph>
<glyph name="summation" format="2">
  <advance width="1068"/>
  <unicode hex="2211"/>
  <outline>
    <contour>
      <point x="32" y="-400" type="line"/>
      <point x="1052" y="-400" type="line"/>
      <point x="1052" y="-170" type="line"/>
      <point x="226" y="-170" type="line"/>
      <point x="290" y="-308" type="line"/>
      <point x="788" y="500" type="line"/>
      <point x="304" y="1308" type="line"/>
      <point x="226" y="1170" type="line"/>
      <point x="1032" y="1170" type="line"/>
      <point x="1032" y="1400" type="line"/>
      <point x="32" y="1400" type="line"/>
      <point x="32" y="1268" type="line"/>
      <point x="500" y="494" type="line"/>
      <point x="32" y="-280" type="line"/>
    </contour>
  </outline>
</glyph>
<glyph name="minus" format="2">
  <advance width="820"/>
  <unicode hex="2212"/>
  <outline>
    <contour>
      <point x="72" y="462" type="line"/>
      <point x="748" y="462" type="line"/>
      <point x="748" y="646" type="line"/>
      <point x="72" y="646" type="line"/>
    </contour>
  </outline>
</glyph>
<glyph name="radical" format="2">
  <advance width="1314"/>
  <unicode hex="221A"/>
  <outline>
    <contour>
      <point x="402" y="-400" type="line"/>
      <point x="592" y="-400" type="line"/>
      <point x="1084" y="1302" type="line"/>
      <point x="974" y="1160" type="line"/>
      <point x="1298" y="1160" type="line"/>
      <point x="1298" y="1400" type="line"/>
      <point x="870" y="1400" type="line"/>
      <point x="424" y="-174" type="line"/>
      <point x="570" y="-174" type="line"/>
      <point x="356" y="624" type="line"/>
      <point x="16" y="624" type="line"/>
      <point x="16" y="384" type="line"/>
      <point x="260" y="384" type="line"/>
      <point x="150" y="502" type="line"/>
    </contour>
  </outline>
</glyph>
<glyph name="infinity" format="2">
  <advance width="1330"/>
  <unicode hex="221E"/>
  <outline>
    <contour>
      <point x="392" y="324" type="curve" smooth="yes"/>
      <point x="594" y="324"/>
      <point x="746" y="486"/>
      <point x="746" y="704" type="curve" smooth="yes"/>
      <point x="746" y="922"/>
      <point x="594" y="1084"/>
      <point x="392" y="1084" type="curve" smooth="yes"/>
      <point x="186" y="1084"/>
      <point x="32" y="922"/>
      <point x="32" y="704" type="curve" smooth="yes"/>
      <point x="32" y="486"/>
      <point x="186" y="324"/>
    </contour>
    <contour>
      <point x="408" y="524" type="curve" smooth="yes"/>
      <point x="322" y="524"/>
      <point x="260" y="598"/>
      <point x="260" y="704" type="curve" smooth="yes"/>
      <point x="260" y="810"/>
      <point x="322" y="884"/>
      <point x="408" y="884" type="curve" smooth="yes"/>
      <point x="494" y="884"/>
      <point x="556" y="810"/>
      <point x="556" y="704" type="curve" smooth="yes"/>
      <point x="556" y="598"/>
      <point x="494" y="524"/>
    </contour>
    <contour>
      <point x="946" y="324" type="curve" smooth="yes"/>
      <point x="1148" y="324"/>
      <point x="1298" y="486"/>
      <point x="1298" y="704" type="curve" smooth="yes"/>
      <point x="1298" y="922"/>
      <point x="1148" y="1084"/>
      <point x="946" y="1084" type="curve" smooth="yes"/>
      <point x="744" y="1084"/>
      <point x="592" y="922"/>
      <point x="592" y="704" type="curve" smooth="yes"/>
      <point x="592" y="486"/>
      <point x="744" y="324"/>
    </contour>
    <contour>
      <point x="930" y="524" type="curve" smooth="yes"/>
      <point x="844" y="524"/>
      <point x="782" y="598"/>
      <point x="782" y="704" type="curve" smooth="yes"/>
      <point x="782" y="810"/>
      <point x="844" y="884"/>
      <point x="930" y="884" type="curve" smooth="yes"/>
      <point x="1012" y="884"/>
      <point x="1070" y="810"/>
      <point x="1070" y="704" type="curve" smooth="yes"/>
      <point x="1070" y="598"/>
      <point x="1012" y="524"/>
    </contour>
  </outline>
</glyph>
<glyph name="integral" format="2">
  <advance width="790"/>
  <unicode hex="222B"/>
  <outline>
    <contour>
      <point x="170" y="-428" type="curve" smooth="yes"/>
      <point x="356" y="-428"/>
      <point x="482" y="-316"/>
      <point x="492" y="-80" type="curve" smooth="yes"/>
      <point x="540" y="1026" type="line" smooth="yes"/>
      <point x="544" y="1128"/>
      <point x="592" y="1196"/>
      <point x="690" y="1196" type="curve" smooth="yes"/>
      <point x="718" y="1196"/>
      <point x="742" y="1192"/>
      <point x="764" y="1186" type="curve"/>
      <point x="778" y="1400" type="line"/>
      <point x="732" y="1418"/>
      <point x="682" y="1428"/>
      <point x="620" y="1428" type="curve" smooth="yes"/>
      <point x="434" y="1428"/>
      <point x="308" y="1316"/>
      <point x="298" y="1080" type="curve" smooth="yes"/>
      <point x="250" y="-26" type="line" smooth="yes"/>
      <point x="246" y="-128"/>
      <point x="198" y="-196"/>
      <point x="100" y="-196" type="curve" smooth="yes"/>
      <point x="72" y="-196"/>
      <point x="48" y="-192"/>
      <point x="26" y="-186" type="curve"/>
      <point x="12" y="-400" type="line"/>
      <point x="58" y="-418"/>
      <point x="108" y="-428"/>
    </contour>
  </outline>
</glyph>
<glyph name="approxequal" format="2">
  <advance width="858"/>
  <unicode hex="2248"/>
  <guideline x="238" y="126" angle="0"/>
  <guideline x="255" y="429" angle="0"/>
  <outline>
    <contour>
      <point x="592" y="586" type="curve" smooth="yes"/>
      <point x="712" y="586"/>
      <point x="780" y="678"/>
      <point x="786" y="848" type="curve"/>
      <point x="620" y="848" type="line"/>
      <point x="620" y="796"/>
      <point x="594" y="766"/>
      <point x="552" y="766" type="curve" smooth="yes"/>
      <point x="454" y="766"/>
      <point x="392" y="858"/>
      <point x="276" y="858" type="curve" smooth="yes"/>
      <point x="148" y="858"/>
      <point x="78" y="766"/>
      <point x="72" y="596" type="curve"/>
      <point x="238" y="596" type="line"/>
      <point x="238" y="648"/>
      <point x="264" y="678"/>
      <point x="306" y="678" type="curve" smooth="yes"/>
      <point x="404" y="678"/>
      <point x="476" y="586"/>
    </contour>
    <contour>
      <point x="592" y="272" type="curve" smooth="yes"/>
      <point x="712" y="272"/>
      <point x="780" y="364"/>
      <point x="786" y="534" type="curve"/>
      <point x="620" y="534" type="line"/>
      <point x="620" y="482"/>
      <point x="594" y="452"/>
      <point x="552" y="452" type="curve" smooth="yes"/>
      <point x="454" y="452"/>
      <point x="392" y="544"/>
      <point x="276" y="544" type="curve" smooth="yes"/>
      <point x="148" y="544"/>
      <point x="78" y="452"/>
      <point x="72" y="282" type="curve"/>
      <point x="238" y="282" type="line"/>
      <point x="238" y="334"/>
      <point x="264" y="364"/>
      <point x="306" y="364" type="curve" smooth="yes"/>
      <point x="404" y="364"/>
      <point x="476" y="272"/>
    </contour>
  </outline>
</glyph>
<glyph name="notequal" format="2">
  <advance width="820"/>
  <unicode hex="2260"/>
  <guideline x="35" y="150" angle="90"/>
  <guideline x="373" y="150" angle="90"/>
  <outline>
    <contour>
      <point x="130" y="190" type="line"/>
      <point x="298" y="190" type="line"/>
      <point x="686" y="918" type="line"/>
      <point x="518" y="918" type="line"/>
    </contour>
    <component base="equal"/>
  </outline>
</glyph>
<glyph name="lessequal" format="2">
  <advance width="700"/>
  <unicode hex="2264"/>
  <outline>
    <contour>
      <point x="660" y="366" type="line"/>
      <point x="660" y="558" type="line"/>
      <point x="222" y="718" type="line"/>
      <point x="660" y="878" type="line"/>
      <point x="660" y="1070" type="line"/>
      <point x="60" y="822" type="line"/>
      <point x="60" y="614" type="line"/>
    </contour>
    <contour>
      <point x="60" y="94" type="line"/>
      <point x="660" y="94" type="line"/>
      <point x="660" y="282" type="line"/>
      <point x="60" y="282" type="line"/>
    </contour>
  </outline>
</glyph>
<glyph name="lozenge" format="2">
  <advance width="1032"/>
  <unicode hex="25CA"/>
  <outline>
    <contour>
      <point x="396" y="0" type="line"/>
      <point x="636" y="0" type="line"/>
      <point x="1016" y="700" type="line"/>
      <point x="636" y="1400" type="line"/>
      <point x="396" y="1400" type="line"/>
      <point x="16" y="700" type="line"/>
    </contour>
    <contour>
      <point x="478" y="186" type="line"/>
      <point x="550" y="186" type="line"/>
      <point x="280" y="700" type="line"/>
      <point x="550" y="1214" type="line"/>
      <point x="478" y="1214" type="line"/>
      <point x="752" y="700" type="line"/>
    </contour>
  </outline>
</glyph>
<glyph name="A.sc" format="2">
  <advance width="1060"/>
  <outline>
    <contour>
      <point x="46" y="0" type="line"/>
      <point x="288" y="0" type="line"/>
      <point x="372" y="262" type="line"/>
      <point x="690" y="262" type="line"/>
      <point x="776" y="0" type="line"/>
      <point x="1016" y="0" type="line"/>
      <point x="636" y="1162" type="line"/>
      <point x="424" y="1162" type="line"/>
    </contour>
    <contour>
      <point x="454" y="502" type="line"/>
      <point x="528" y="764" type="line"/>
      <point x="608" y="502" type="line"/>
    </contour>
  </outline>
</glyph>
<glyph name="AE.sc" format="2">
  <advance width="1436"/>
  <outline>
    <contour>
      <point x="24" y="0" type="line"/>
      <point x="274" y="0" type="line"/>
      <point x="386" y="270" type="line"/>
      <point x="660" y="270" type="line"/>
      <point x="660" y="0" type="line"/>
      <point x="1332" y="0" type="line"/>
      <point x="1332" y="240" type="line"/>
      <point x="882" y="240" type="line"/>
      <point x="882" y="486" type="line"/>
      <point x="1216" y="486" type="line"/>
      <point x="1216" y="724" type="line"/>
      <point x="882" y="724" type="line"/>
      <point x="882" y="922" type="line"/>
      <point x="1318" y="922" type="line"/>
      <point x="1318" y="1162" type="line"/>
      <point x="548" y="1162" type="line"/>
    </contour>
    <contour>
      <point x="496" y="506" type="line"/>
      <point x="660" y="918" type="line"/>
      <point x="660" y="506" type="line"/>
    </contour>
  </outline>
</glyph>
<glyph name="B.sc" format="2">
  <advance width="1100"/>
  <outline>
    <contour>
      <point x="122" y="0" type="line"/>
      <point x="570" y="0" type="line" smooth="yes"/>
      <point x="754" y="0"/>
      <point x="964" y="86"/>
      <point x="964" y="340" type="curve" smooth="yes"/>
      <point x="964" y="500"/>
      <point x="884" y="574"/>
      <point x="772" y="622" type="curve"/>
      <point x="820" y="658"/>
      <point x="862" y="748"/>
      <point x="862" y="856" type="curve" smooth="yes"/>
      <point x="862" y="1120"/>
      <point x="692" y="1162"/>
      <point x="448" y="1162" type="curve" smooth="yes"/>
      <point x="122" y="1162" type="line"/>
    </contour>
    <contour>
      <point x="356" y="202" type="line"/>
      <point x="356" y="524" type="line"/>
      <point x="542" y="524" type="line" smooth="yes"/>
      <point x="650" y="524"/>
      <point x="724" y="482"/>
      <point x="724" y="366" type="curve" smooth="yes"/>
      <point x="724" y="254"/>
      <point x="670" y="202"/>
      <point x="580" y="202" type="curve" smooth="yes"/>
    </contour>
    <contour>
      <point x="356" y="704" type="line"/>
      <point x="356" y="960" type="line"/>
      <point x="556" y="960" type="line" smooth="yes"/>
      <point x="626" y="960"/>
      <point x="658" y="922"/>
      <point x="658" y="814" type="curve" smooth="yes"/>
      <point x="658" y="738"/>
      <point x="590" y="704"/>
      <point x="556" y="704" type="curve" smooth="yes"/>
    </contour>
  </outline>
</glyph>
<glyph name="C.sc" format="2">
  <advance width="1038"/>
  <outline>
    <contour>
      <point x="630" y="-24" type="curve" smooth="yes"/>
      <point x="744" y="-24"/>
      <point x="864" y="2"/>
      <point x="942" y="46" type="curve"/>
      <point x="916" y="278" type="line"/>
      <point x="824" y="236"/>
      <point x="744" y="214"/>
      <point x="626" y="214" type="curve" smooth="yes"/>
      <point x="450" y="214"/>
      <point x="362" y="362"/>
      <point x="362" y="582" type="curve" smooth="yes"/>
      <point x="362" y="800"/>
      <point x="450" y="948"/>
      <point x="630" y="948" type="curve" smooth="yes"/>
      <point x="744" y="948"/>
      <point x="824" y="926"/>
      <point x="916" y="884" type="curve"/>
      <point x="942" y="1118" type="line"/>
      <point x="860" y="1160"/>
      <point x="744" y="1186"/>
      <point x="630" y="1186" type="curve" smooth="yes"/>
      <point x="326" y="1186"/>
      <point x="106" y="944"/>
      <point x="106" y="582" type="curve" smooth="yes"/>
      <point x="106" y="218"/>
      <point x="326" y="-24"/>
    </contour>
  </outline>
</glyph>
<glyph name="D.sc" format="2">
  <advance width="1210"/>
  <outline>
    <contour>
      <point x="170" y="0" type="line"/>
      <point x="578" y="0" type="line" smooth="yes"/>
      <point x="880" y="0"/>
      <point x="1102" y="216"/>
      <point x="1102" y="582" type="curve" smooth="yes"/>
      <point x="1102" y="946"/>
      <point x="880" y="1162"/>
      <point x="578" y="1162" type="curve" smooth="yes"/>
      <point x="170" y="1162" type="line"/>
    </contour>
    <contour>
      <point x="404" y="238" type="line"/>
      <point x="404" y="924" type="line"/>
      <point x="578" y="924" type="line" smooth="yes"/>
      <point x="758" y="924"/>
      <point x="846" y="798"/>
      <point x="846" y="582" type="curve" smooth="yes"/>
      <point x="846" y="364"/>
      <point x="758" y="238"/>
      <point x="578" y="238" type="curve" smooth="yes"/>
    </contour>
  </outline>
</glyph>
<glyph name="E.sc" format="2">
  <advance width="1002"/>
  <outline>
    <contour>
      <point x="170" y="0" type="line"/>
      <point x="898" y="0" type="line"/>
      <point x="898" y="240" type="line"/>
      <point x="412" y="240" type="line"/>
      <point x="412" y="486" type="line"/>
      <point x="770" y="486" type="line"/>
      <point x="770" y="724" type="line"/>
      <point x="412" y="724" type="line"/>
      <point x="412" y="922" type="line"/>
      <point x="882" y="922" type="line"/>
      <point x="882" y="1162" type="line"/>
      <point x="170" y="1162" type="line"/>
    </contour>
  </outline>
</glyph>
<glyph name="F.sc" format="2">
  <advance width="916"/>
  <outline>
    <contour>
      <point x="170" y="0" type="line"/>
      <point x="404" y="0" type="line"/>
      <point x="404" y="486" type="line"/>
      <point x="738" y="486" type="line"/>
      <point x="738" y="724" type="line"/>
      <point x="404" y="724" type="line"/>
      <point x="404" y="922" type="line"/>
      <point x="838" y="922" type="line"/>
      <point x="838" y="1162" type="line"/>
      <point x="170" y="1162" type="line"/>
    </contour>
  </outline>
</glyph>
<glyph name="G.sc" format="2">
  <advance width="1122"/>
  <outline>
    <contour>
      <point x="632" y="-24" type="curve" smooth="yes"/>
      <point x="754" y="-24"/>
      <point x="928" y="16"/>
      <point x="1000" y="64" type="curve"/>
      <point x="1000" y="582" type="line"/>
      <point x="686" y="582" type="line"/>
      <point x="686" y="388" type="line"/>
      <point x="766" y="388" type="line"/>
      <point x="766" y="226" type="line"/>
      <point x="718" y="220"/>
      <point x="684" y="214"/>
      <point x="642" y="214" type="curve" smooth="yes"/>
      <point x="460" y="214"/>
      <point x="362" y="366"/>
      <point x="362" y="588" type="curve" smooth="yes"/>
      <point x="362" y="798"/>
      <point x="450" y="948"/>
      <point x="644" y="948" type="curve" smooth="yes"/>
      <point x="738" y="948"/>
      <point x="860" y="918"/>
      <point x="938" y="878" type="curve"/>
      <point x="964" y="1116" type="line"/>
      <point x="890" y="1160"/>
      <point x="742" y="1186"/>
      <point x="638" y="1186" type="curve" smooth="yes"/>
      <point x="324" y="1186"/>
      <point x="106" y="944"/>
      <point x="106" y="582" type="curve" smooth="yes"/>
      <point x="106" y="218"/>
      <point x="328" y="-24"/>
    </contour>
  </outline>
</glyph>
<glyph name="H.sc" format="2">
  <advance width="1240"/>
  <outline>
    <contour>
      <point x="170" y="0" type="line"/>
      <point x="404" y="0" type="line"/>
      <point x="404" y="486" type="line"/>
      <point x="834" y="486" type="line"/>
      <point x="834" y="0" type="line"/>
      <point x="1070" y="0" type="line"/>
      <point x="1070" y="1162" type="line"/>
      <point x="834" y="1162" type="line"/>
      <point x="834" y="724" type="line"/>
      <point x="404" y="724" type="line"/>
      <point x="404" y="1162" type="line"/>
      <point x="170" y="1162" type="line"/>
    </contour>
  </outline>
</glyph>
<glyph name="I.sc" format="2">
  <advance width="536"/>
  <outline>
    <contour>
      <point x="152" y="0" type="line"/>
      <point x="386" y="0" type="line"/>
      <point x="386" y="1162" type="line"/>
      <point x="152" y="1162" type="line"/>
    </contour>
  </outline>
</glyph>
<glyph name="J.sc" format="2">
  <advance width="536"/>
  <outline>
    <contour>
      <point x="58" y="-286" type="line"/>
      <point x="136" y="-286" type="line" smooth="yes"/>
      <point x="272" y="-286"/>
      <point x="380" y="-208"/>
      <point x="380" y="-32" type="curve" smooth="yes"/>
      <point x="380" y="1162" type="line"/>
      <point x="146" y="1162" type="line"/>
      <point x="146" y="12" type="line" smooth="yes"/>
      <point x="146" y="-58"/>
      <point x="130" y="-90"/>
      <point x="110" y="-90" type="curve" smooth="yes"/>
      <point x="42" y="-90" type="line"/>
    </contour>
  </outline>
</glyph>
<glyph name="K.sc" format="2">
  <advance width="1032"/>
  <outline>
    <contour>
      <point x="746" y="0" type="line"/>
      <point x="1016" y="0" type="line"/>
      <point x="658" y="614" type="line"/>
      <point x="1016" y="1162" type="line"/>
      <point x="746" y="1162" type="line"/>
      <point x="390" y="614" type="line"/>
    </contour>
    <contour>
      <point x="132" y="0" type="line"/>
      <point x="366" y="0" type="line"/>
      <point x="366" y="1162" type="line"/>
      <point x="132" y="1162" type="line"/>
    </contour>
  </outline>
</glyph>
<glyph name="L.sc" format="2">
  <advance width="870"/>
  <outline>
    <contour>
      <point x="170" y="0" type="line"/>
      <point x="808" y="0" type="line"/>
      <point x="808" y="240" type="line"/>
      <point x="404" y="240" type="line"/>
      <point x="404" y="1162" type="line"/>
      <point x="170" y="1162" type="line"/>
    </contour>
  </outline>
</glyph>
<glyph name="M.sc" format="2">
  <advance width="1418"/>
  <outline>
    <contour>
      <point x="108" y="0" type="line"/>
      <point x="350" y="0" type="line"/>
      <point x="434" y="722" type="line"/>
      <point x="694" y="226" type="line"/>
      <point x="958" y="724" type="line"/>
      <point x="1042" y="0" type="line"/>
      <point x="1286" y="0" type="line"/>
      <point x="1132" y="1162" type="line"/>
      <point x="942" y="1162" type="line"/>
      <point x="698" y="658" type="line"/>
      <point x="448" y="1162" type="line"/>
      <point x="260" y="1162" type="line"/>
    </contour>
  </outline>
</glyph>
